<?xml version="1.0" standalone="no"?>
<!DOCTYPE svg PUBLIC "-//W3C//DTD SVG 20010904//EN"
 "http://www.w3.org/TR/2001/REC-SVG-20010904/DTD/svg10.dtd">
<svg version="1.0" xmlns="http://www.w3.org/2000/svg"
 width="468pt" height="283pt" viewBox="0 0 468 283"
 preserveAspectRatio="xMidYMid meet">
<metadata>
Created by potrace 1.8, written by Peter Selinger 2001-2007
</metadata>
<g transform="translate(0,283) scale(0.039328,-0.039328)"
fill="#000000" stroke="none">
<path d="M6935 7084 c-55 -53 -252 -236 -438 -407 -185 -172 -336 -316 -334
-322 2 -5 17 -17 33 -25 16 -8 51 -29 79 -46 27 -16 58 -33 67 -37 9 -3 36
-18 59 -33 42 -26 42 -26 19 -39 -21 -11 -29 -9 -70 16 -26 16 -50 29 -53 29
-4 0 -45 23 -92 51 l-86 50 -115 -108 c-64 -59 -148 -137 -187 -172 -40 -35
-138 -125 -218 -200 -80 -75 -178 -167 -219 -204 l-74 -68 53 -30 c30 -16 86
-44 125 -63 39 -19 80 -41 90 -49 19 -14 19 -15 -2 -21 -15 -5 -58 11 -152 58
-72 37 -135 66 -141 66 -10 0 -81 -64 -224 -200 -38 -36 -101 -95 -140 -130
-38 -35 -126 -116 -195 -181 -69 -64 -139 -128 -157 -143 -34 -28 -32 -28
-159 9 -13 4 -32 0 -47 -9 -16 -11 -38 -15 -68 -12 -24 3 -141 7 -259 11 -411
11 -412 11 -518 61 -51 24 -95 44 -97 44 -3 0 -38 15 -78 34 -40 19 -117 54
-172 79 -55 25 -179 81 -275 125 -96 44 -227 103 -290 131 -63 29 -135 62
-160 73 -39 18 -119 54 -305 138 -220 99 -225 101 -329 101 l-90 1 -40 -45
c-48 -52 -125 -97 -147 -85 -8 4 -41 19 -74 34 -33 14 -93 41 -133 60 -49 23
-95 36 -135 40 -81 6 -143 13 -192 19 -57 8 -106 -19 -118 -65 -20 -77 9 -212
64 -303 16 -26 29 -51 29 -55 0 -5 -48 -29 -107 -55 -90 -39 -109 -44 -116
-32 -10 19 -33 19 -40 1 -16 -40 -114 -11 -462 139 -11 5 -47 14 -79 20 -75
15 -129 3 -145 -31 -14 -32 -14 -118 0 -186 14 -69 99 -232 161 -308 26 -33
48 -67 48 -76 0 -22 19 -54 31 -54 6 0 25 -6 42 -14 18 -8 49 -19 69 -26 25
-7 43 -22 57 -46 11 -19 28 -34 39 -34 12 0 71 -66 169 -187 82 -104 155 -197
161 -208 6 -13 7 -38 1 -75 -7 -40 -6 -67 4 -100 l13 -45 62 3 c69 4 92 -7 92
-43 0 -29 105 -153 150 -176 81 -42 122 -59 140 -59 10 0 21 -4 25 -9 3 -5 20
-13 37 -17 18 -3 39 -10 48 -15 8 -5 33 -15 55 -23 67 -23 189 -67 210 -77 11
-5 124 -47 250 -94 127 -47 239 -90 250 -94 11 -5 61 -23 110 -41 50 -17 99
-35 110 -40 32 -14 144 -56 215 -81 36 -12 69 -26 74 -31 6 -4 18 -8 28 -8 27
0 22 -15 -13 -43 -24 -18 -27 -26 -17 -34 11 -8 152 -64 221 -87 10 -3 16 -10
13 -15 -7 -10 -54 -2 -62 10 -3 5 -12 9 -21 9 -8 0 -31 7 -51 16 -21 9 -52 22
-70 30 -65 28 -44 42 -311 -207 -75 -69 -165 -152 -201 -185 -56 -51 -82 -79
-84 -92 -1 -5 146 -62 158 -62 8 0 158 -52 231 -79 33 -13 86 -31 150 -52 33
-11 68 -24 77 -29 10 -6 26 -10 36 -10 10 0 21 -3 25 -6 5 -5 201 -74 397
-140 41 -14 84 -29 95 -34 22 -10 292 -102 370 -127 28 -8 59 -19 70 -23 47
-19 141 -52 302 -107 131 -46 176 -57 190 -50 18 10 173 127 183 138 3 3 23
18 45 35 22 16 48 37 59 46 17 16 23 15 100 -14 44 -17 91 -33 104 -35 12 -3
25 -9 28 -14 3 -5 12 -9 21 -9 8 0 29 -6 46 -14 18 -8 59 -23 92 -34 99 -33
239 -82 260 -91 11 -5 43 -17 70 -26 28 -9 64 -23 82 -31 17 -8 35 -14 39 -14
8 0 119 -39 169 -60 11 -4 43 -15 70 -25 28 -9 59 -20 70 -25 11 -5 29 -11 40
-13 11 -3 81 -28 155 -55 148 -55 171 -63 275 -100 39 -13 79 -28 90 -32 11
-4 54 -20 95 -35 41 -15 89 -33 105 -40 17 -7 50 -21 75 -30 25 -10 54 -21 65
-25 11 -5 40 -15 65 -23 25 -8 52 -17 60 -21 11 -4 62 23 148 79 72 47 136 85
142 85 15 0 12 -16 -5 -30 -40 -33 4 -70 78 -65 34 2 56 10 71 25 l21 21 -27
24 c-29 25 -36 49 -17 61 6 3 8 16 5 28 -5 23 -2 26 187 146 53 34 97 67 97
73 0 6 6 18 14 26 7 9 23 42 35 74 17 47 35 83 57 116 5 6 108 -32 125 -46 8
-7 21 -13 28 -13 10 0 183 -68 256 -101 11 -5 64 -26 119 -48 54 -21 103 -44
109 -50 6 -6 19 -11 29 -11 10 0 26 -4 36 -9 26 -14 309 -131 356 -147 22 -8
50 -21 61 -28 11 -7 34 -16 50 -20 17 -4 58 -21 93 -37 35 -16 68 -29 73 -29
6 0 34 -11 62 -24 29 -13 88 -39 132 -57 44 -18 82 -36 83 -41 2 -4 13 -8 25
-8 11 0 39 -9 61 -19 23 -11 104 -45 181 -76 77 -31 153 -62 170 -69 16 -8 46
-19 65 -26 19 -7 63 -26 97 -42 34 -15 66 -28 70 -28 7 0 120 -47 218 -89 11
-5 94 -39 185 -76 91 -37 185 -77 210 -88 25 -11 50 -21 55 -23 88 -27 90 -28
93 -91 l3 -59 79 -33 c75 -31 79 -33 85 -70 3 -21 26 -76 50 -122 36 -70 56
-94 117 -146 48 -40 93 -68 129 -80 31 -10 78 -33 105 -50 91 -59 138 -73 244
-74 131 -1 258 52 366 153 106 100 170 207 212 358 21 75 19 250 -3 326 -56
194 -194 325 -377 360 -10 2 -41 15 -69 29 -60 29 -194 49 -259 40 -58 -9
-179 -42 -194 -53 -89 -70 -136 -109 -158 -135 -24 -26 -31 -29 -50 -20 -26
12 -105 47 -158 70 -19 8 -43 19 -52 24 -10 5 -23 9 -29 9 -6 0 -22 9 -36 20
-14 11 -34 20 -44 20 -11 0 -27 4 -37 10 -27 14 -171 80 -176 80 -8 0 -117 49
-157 71 -20 10 -42 19 -48 19 -7 0 -47 16 -89 36 -42 20 -115 52 -162 71 -47
19 -94 40 -105 47 -11 7 -42 20 -70 31 -27 10 -78 31 -113 47 -34 15 -65 28
-68 28 -5 0 -51 20 -179 80 -33 15 -91 40 -130 55 -38 16 -107 45 -153 67 -46
21 -86 38 -89 38 -3 0 -51 21 -107 46 -55 26 -110 50 -121 55 -164 69 -249
105 -290 124 -27 12 -70 32 -95 43 -25 11 -80 34 -122 51 -43 17 -115 48 -160
69 -46 21 -110 49 -143 62 -76 29 -78 31 -65 65 7 20 7 31 -1 41 -9 11 -8 20
5 39 20 31 20 32 -4 45 -17 9 -21 6 -32 -20 l-13 -31 -24 39 c-15 25 -37 44
-58 51 -29 11 -34 17 -31 39 3 29 11 33 117 54 103 21 94 44 -38 102 -69 29
-91 48 -91 77 0 16 3 17 28 3 35 -18 56 -18 72 1 10 12 7 44 -15 162 -15 82
-29 151 -31 155 -3 5 7 24 22 43 39 52 25 76 -71 120 -77 35 -82 40 -64 65 8
13 12 12 26 -7 16 -24 38 -30 48 -13 4 6 2 16 -3 23 -6 7 -12 25 -14 42 -2 20
-9 31 -23 33 -11 2 -36 19 -55 37 -19 18 -41 34 -49 37 -7 2 -19 19 -25 38 -9
26 -23 40 -66 62 -79 40 -386 186 -443 210 l-48 21 -40 -22 c-59 -34 -67 -14
-10 27 27 20 106 82 176 137 70 55 166 128 213 162 46 35 101 76 120 93 20 17
62 50 94 73 32 23 58 47 58 53 0 5 -47 34 -105 64 -58 29 -105 59 -105 67 0
22 22 15 133 -42 58 -30 111 -55 117 -55 6 0 153 109 328 243 467 358 492 378
492 387 0 4 -28 24 -62 43 -170 93 -164 89 -144 106 11 9 30 3 92 -30 44 -23
96 -53 117 -66 l38 -24 72 55 c40 31 241 185 449 343 348 266 375 289 360 304
-16 15 -123 83 -442 279 -74 46 -164 102 -200 124 -77 48 -67 42 -245 151 -77
47 -193 118 -257 158 -64 39 -244 151 -400 246 -156 96 -317 196 -358 222
-132 83 -338 209 -342 209 -1 -1 -48 -44 -103 -96z m-480 -934 c-3 -5 -11 -10
-16 -10 -6 0 -7 5 -4 10 3 6 11 10 16 10 6 0 7 -4 4 -10z m79 -44 c-3 -9 -10
-13 -16 -10 -5 3 -4 12 3 20 15 18 22 13 13 -10z m176 -64 c36 -19 82 -46 102
-59 21 -12 40 -23 43 -23 3 0 22 -11 43 -23 20 -13 66 -40 102 -59 102 -55
162 -89 202 -115 21 -12 40 -23 43 -23 3 0 67 -35 143 -78 129 -74 298 -170
457 -258 39 -21 88 -49 110 -61 22 -13 50 -29 63 -35 27 -14 28 -25 2 -33 -12
-4 -33 1 -53 13 -17 11 -61 35 -97 54 -100 54 -162 89 -195 108 -16 10 -51 29
-77 43 -25 14 -102 57 -171 96 -69 39 -128 71 -133 71 -4 0 -15 6 -23 14 -9 7
-52 33 -96 56 -44 24 -97 54 -117 67 -21 12 -40 23 -44 23 -3 0 -44 23 -91 50
-47 28 -87 50 -89 50 -2 0 -33 18 -69 40 -36 22 -68 40 -71 40 -3 0 -36 18
-74 41 -62 36 -68 43 -57 60 11 18 12 18 47 -3 19 -11 64 -36 100 -56z m-1095
-652 c-3 -5 -12 -10 -18 -10 -7 0 -6 4 3 10 19 12 23 12 15 0z m71 -57 c-10
-10 -19 5 -10 18 6 11 8 11 12 0 2 -7 1 -15 -2 -18z m301 -114 c142 -73 368
-188 503 -257 135 -69 347 -177 472 -241 199 -102 224 -117 203 -124 -21 -7
-79 19 -357 161 -183 93 -499 254 -703 357 -203 103 -376 193 -384 200 -11 11
-9 35 4 35 3 0 120 -59 262 -131z m-4957 -36 c46 -62 53 -73 46 -80 -3 -3 -38
-9 -78 -14 -40 -5 -93 -11 -118 -14 -34 -5 -57 -1 -93 15 -46 21 -48 22 -29
36 26 18 214 104 227 103 6 0 26 -21 45 -46z m7092 25 c-7 -7 -12 -8 -12 -2 0
14 12 26 19 19 2 -3 -1 -11 -7 -17z m-6908 -189 c24 -11 24 -13 10 -41 -17
-32 -22 -32 -104 5 l-45 20 55 12 c30 7 56 13 57 14 1 0 13 -4 27 -10z m6056
-479 c0 -5 -5 -10 -11 -10 -5 0 -7 5 -4 10 3 6 8 10 11 10 2 0 4 -4 4 -10z
m-6478 -182 c25 -29 55 -69 68 -88 13 -19 38 -51 57 -71 l34 -36 -30 5 c-25 3
-45 23 -104 101 -89 116 -104 141 -83 141 8 0 34 -24 58 -52z m203 -96 c-3 -3
-20 9 -38 27 l-32 34 38 -28 c21 -15 35 -30 32 -33z m2062 -1363 c19 -12 32
-23 29 -26 -8 -8 -86 30 -80 39 7 12 13 10 51 -13z m4577 -585 c7 -17 4 -17
-29 -2 -17 8 -22 14 -14 19 16 9 36 1 43 -17z m102 -5 c15 -30 15 -31 -1 -25
-9 3 -19 6 -21 6 -2 0 -4 11 -4 25 0 33 6 32 26 -6z m98 -61 c52 -50 55 -57
15 -35 -44 23 -65 42 -88 82 l-23 40 23 -20 c13 -11 46 -41 73 -67z m-245 11
c35 -12 36 -16 17 -79 -13 -45 -36 -60 -71 -46 -12 4 -12 10 3 36 16 30 16 32
-1 45 -15 11 -16 17 -7 34 12 24 16 25 59 10z m369 -44 c45 -27 82 -53 82 -57
0 -5 -12 -8 -27 -8 -20 1 -47 19 -93 62 -75 70 -73 70 38 3z m103 -19 c52 -25
67 -35 49 -35 -14 0 -50 15 -80 34 -70 44 -62 44 31 1z m-243 -44 c2 -8 -13
-12 -50 -12 -29 0 -63 -3 -75 -6 -20 -5 -23 -2 -23 20 0 15 5 36 10 46 10 18
13 18 72 -9 34 -15 64 -33 66 -39z m276 -21 c9 -14 -24 -22 -45 -11 -10 6 -19
13 -19 15 0 9 59 5 64 -4z m-510 -47 c-1 -16 -7 -42 -14 -59 l-12 -30 -19 49
c-24 59 -20 72 17 70 25 -1 29 -5 28 -30z m260 27 c4 -5 -11 -19 -31 -32 -21
-12 -68 -43 -106 -67 -37 -25 -70 -42 -73 -39 -8 7 16 119 28 135 12 14 174
17 182 3z m306 -22 c0 -5 -11 -3 -25 3 -18 8 -22 14 -13 19 13 8 38 -7 38 -22z
m100 -21 c0 -4 -9 -3 -19 4 -11 6 -17 18 -13 26 4 12 8 12 19 -4 7 -10 13 -22
13 -26z m150 -94 c0 -2 -24 11 -54 28 -35 20 -59 43 -70 65 -9 18 -16 36 -16
39 0 4 32 -24 70 -62 39 -37 70 -69 70 -70z m-440 102 c0 -14 -21 -26 -46 -26
-21 0 -17 16 9 28 30 15 37 14 37 -2z m-421 -81 c1 -5 -10 8 -23 30 -13 22
-22 44 -18 49 5 9 40 -56 41 -79z m546 54 c50 -24 49 -20 34 -89 -11 -51 -11
-51 -47 -48 -36 3 -38 5 -60 67 -12 36 -20 71 -18 78 8 19 40 16 91 -8z m150
-7 c-3 -3 -11 0 -18 7 -9 10 -8 11 6 5 10 -3 15 -9 12 -12z m-265 3 c0 -2 11
-34 25 -70 25 -66 25 -66 3 -63 -13 2 -32 22 -51 57 -29 52 -30 54 -12 67 19
14 35 18 35 9z m453 -25 c8 0 132 -80 126 -81 -2 0 -14 -2 -26 -5 -17 -3 -38
12 -85 58 -35 34 -54 54 -42 45 11 -9 23 -17 27 -17z m-896 -44 c14 -27 14
-28 -3 -21 -11 4 -29 10 -42 13 -17 3 -21 9 -16 21 3 9 9 25 12 35 5 19 5 19
19 0 8 -10 21 -32 30 -48z m353 59 c0 -6 -56 -35 -67 -35 -9 0 48 38 60 39 4
1 7 -1 7 -4z m49 -70 c12 -25 21 -47 21 -49 0 -3 -63 -6 -139 -8 -116 -2 -137
-1 -128 11 6 7 20 17 32 21 11 5 52 22 90 39 39 16 77 30 86 30 10 1 25 -17
38 -44z m589 36 c9 -6 36 -18 59 -27 23 -10 40 -21 37 -26 -8 -13 -15 -10 -74
27 -50 31 -65 49 -22 26z m-263 -24 c38 -13 75 -37 75 -47 0 -10 -132 -18
-143 -9 -5 3 -5 23 -1 43 5 29 10 36 23 31 9 -4 30 -12 46 -18z m122 -53 c-3
-3 -12 -4 -19 -1 -8 3 -5 6 6 6 11 1 17 -2 13 -5z m204 -14 c-8 -4 -21 -5 -30
-2 -12 5 -10 8 9 12 29 8 40 3 21 -10z m-230 -25 c2 -13 -198 -141 -207 -132
-3 2 3 34 12 70 18 74 15 73 126 72 38 0 68 -4 69 -10z m286 -2 c3 -7 -3 -9
-16 -6 -12 3 -21 10 -21 15 0 13 32 6 37 -9z m99 -21 c-9 -8 -26 10 -26 26 1
15 2 15 15 -2 8 -11 13 -21 11 -24z m94 -34 c40 -38 68 -68 63 -68 -20 0 -116
77 -136 109 -29 47 -12 37 73 -41z m-822 -10 c23 -40 40 -74 38 -75 -3 -4
-103 35 -163 63 -28 13 -55 24 -59 24 -4 0 -26 8 -48 19 -23 10 -52 23 -66 28
-19 8 9 11 117 12 l141 2 40 -73z m26 45 c4 -16 9 -37 12 -48 6 -20 6 -20 -9
0 -7 11 -22 32 -32 48 -17 26 -17 27 3 27 13 0 22 -9 26 -27z m62 5 c-3 -13
-6 -35 -6 -50 0 -43 -15 -33 -32 22 l-16 50 30 0 c27 0 30 -3 24 -22z m374 -3
c0 -2 -15 -12 -32 -20 l-33 -16 25 20 c24 20 40 26 40 16z m104 -25 c50 -21
55 -33 35 -102 -9 -33 -14 -38 -39 -38 -27 0 -30 4 -50 70 -29 96 -23 103 54
70z m151 0 c3 -5 2 -10 -4 -10 -5 0 -13 5 -16 10 -3 6 -2 10 4 10 5 0 13 -4
16 -10z m-237 -27 c16 -43 32 -95 32 -104 0 -5 -9 -9 -19 -9 -13 0 -30 18 -51
56 -18 30 -31 57 -29 58 9 7 45 25 50 26 4 0 11 -12 17 -27z m501 -50 c52 -31
52 -32 27 -39 -22 -5 -35 2 -80 42 -58 53 -73 77 -28 48 15 -10 51 -33 81 -51z
m55 8 c37 -17 53 -30 44 -33 -8 -3 -38 9 -67 27 -87 55 -82 57 23 6z m-616
-17 c13 -26 22 -48 20 -49 -5 -5 -268 -13 -268 -8 0 6 202 103 215 103 6 0 21
-21 33 -46z m332 8 c82 -41 78 -57 -15 -59 -81 -2 -80 -3 -69 56 8 37 13 37
84 3z m115 -52 c3 -5 -1 -10 -9 -10 -8 0 -18 5 -21 10 -3 6 1 10 9 10 8 0 18
-4 21 -10z m178 -7 c-7 -2 -19 -2 -25 0 -7 3 -2 5 12 5 14 0 19 -2 13 -5z m52
-14 c10 -14 1 -21 -19 -13 -9 3 -13 10 -10 15 7 12 21 11 29 -2z m105 -32 c0
-4 -9 -2 -19 5 -10 6 -17 18 -14 25 4 11 8 10 19 -4 7 -10 14 -21 14 -26z m70
-13 c25 -23 56 -52 70 -64 18 -15 9 -12 -30 9 -72 41 -73 41 -93 73 -34 53
-17 47 53 -18z m-445 28 c0 -7 -46 -41 -102 -76 -57 -36 -103 -62 -103 -60 0
3 7 36 16 74 l15 69 47 3 c92 6 127 3 127 -10z m-323 -70 l40 -72 -63 26 c-69
28 -197 80 -241 98 -16 6 -28 13 -28 16 0 3 57 6 126 5 l126 0 40 -73z m24 51
c3 -16 12 -45 20 -65 17 -47 9 -50 -12 -5 -8 17 -24 47 -35 65 l-21 32 21 0
c14 0 22 -8 27 -27z m53 0 c0 -16 -4 -36 -8 -47 -6 -15 -9 -11 -19 21 -16 52
-15 53 8 53 15 0 20 -6 19 -27z m499 -30 c9 -4 11 -14 7 -27 -3 -11 -9 -38
-12 -58 -5 -33 -9 -38 -33 -38 -26 0 -29 4 -44 71 -9 39 -13 75 -10 80 3 5 22
2 42 -7 20 -9 43 -18 50 -21z m-98 -55 l16 -66 -23 -5 c-20 -4 -28 4 -51 47
-15 28 -28 54 -30 58 -4 8 50 38 62 34 6 -1 17 -32 26 -68z m477 -14 c32 -22
34 -34 4 -34 -15 0 -111 84 -111 96 0 6 48 -22 107 -62z m-555 -4 c15 -27 24
-51 20 -53 -17 -10 -257 -8 -247 2 10 10 185 101 195 101 3 0 17 -23 32 -50z
m643 -1 c5 -6 2 -9 -9 -9 -16 0 -106 47 -106 56 0 6 104 -36 115 -47z m-342
19 c48 -21 76 -42 77 -60 0 -5 -34 -8 -76 -8 l-76 0 6 31 c3 17 6 38 6 45 0
18 2 18 63 -8z m123 -53 c19 -14 19 -14 -2 -15 -12 0 -24 7 -28 15 -7 19 5 19
30 0z m221 -31 c-3 -4 -14 -3 -24 0 -15 6 -15 8 -3 16 16 10 39 -4 27 -16z
m195 -53 c26 -24 46 -46 44 -48 -9 -9 -114 69 -125 93 -21 48 -21 47 81 -45z
m-107 58 c11 -17 -1 -21 -15 -4 -8 9 -8 15 -2 15 6 0 14 -5 17 -11z m-347 -8
c21 -2 13 -25 -16 -42 -174 -98 -185 -103 -178 -78 4 13 12 45 19 71 11 44 14
47 47 50 30 3 88 2 128 -1z m-312 -71 c18 -36 31 -66 29 -68 -1 -1 -47 16
-101 39 -54 22 -112 46 -129 52 -84 31 -84 36 1 39 43 2 99 3 124 3 l45 0 31
-65z m40 20 c22 -72 16 -79 -16 -21 -34 62 -37 74 -14 69 10 -2 22 -22 30 -48z
m40 34 c-3 -9 -6 -22 -6 -30 0 -8 -4 -14 -10 -14 -5 0 -10 14 -10 30 0 21 5
30 16 30 11 0 14 -5 10 -16z m444 -20 c45 -18 45 -18 28 -91 -9 -38 -17 -53
-29 -53 -13 0 -21 18 -33 71 -23 102 -26 97 34 73z m150 -10 c0 -2 -9 0 -20 6
-11 6 -20 13 -20 16 0 2 9 0 20 -6 11 -6 20 -13 20 -16z m-210 -26 c6 -24 15
-58 20 -75 8 -32 7 -33 -21 -33 -25 0 -32 7 -58 58 l-30 59 32 16 c45 22 45
22 57 -25z m442 -34 c50 -30 60 -44 31 -44 -10 1 -43 24 -73 52 -54 51 -51 50
42 -8z m105 -18 c4 -3 -1 -6 -11 -6 -16 0 -96 46 -96 55 0 5 98 -40 107 -49z
m-623 -6 l27 -50 -98 0 c-54 0 -108 -3 -120 -6 -46 -12 -20 12 60 58 45 26 87
47 93 47 6 1 23 -21 38 -49z m355 -20 c13 -19 12 -20 -40 -20 -30 0 -64 -3
-77 -6 -22 -6 -23 -5 -17 32 11 66 10 66 67 39 29 -13 59 -33 67 -45z m52 -5
c33 -14 33 -14 8 -15 -15 0 -32 7 -39 15 -16 19 -11 19 31 0z m217 -30 c-3 -3
-13 -2 -22 1 -14 5 -15 9 -4 15 13 8 36 -6 26 -16z m82 4 c0 -5 -4 -9 -10 -9
-5 0 -10 7 -10 16 0 8 5 12 10 9 6 -3 10 -10 10 -16z m113 -59 c26 -23 46 -44
44 -47 -2 -2 -28 12 -58 32 -29 19 -56 35 -60 35 -5 0 -29 45 -29 56 0 8 48
-28 103 -76z m-438 30 c0 -13 -192 -128 -199 -118 -1 1 4 31 12 65 15 70 15
70 117 69 55 -1 70 -4 70 -16z m55 16 c0 -9 -30 -14 -35 -6 -4 6 3 10 14 10
12 0 21 -2 21 -4z m-363 -71 c18 -36 31 -65 29 -65 -7 0 -201 80 -218 90 -10
6 -24 10 -31 10 -7 0 -22 7 -33 15 -17 13 -7 14 101 15 l120 0 32 -65z m37 26
c3 -22 9 -48 12 -58 3 -10 -8 5 -25 34 -36 61 -37 63 -12 63 14 0 20 -10 25
-39z m36 20 c0 -30 -17 -34 -22 -6 -4 17 -1 25 8 25 8 0 14 -9 14 -19z m385
-66 c4 -27 9 -58 11 -67 4 -14 -1 -18 -23 -18 -25 0 -32 7 -56 56 -16 31 -27
57 -25 58 80 53 83 52 93 -29z m72 39 c8 -21 -10 -107 -24 -111 -12 -4 -25 33
-38 109 l-7 38 32 -11 c17 -7 34 -18 37 -25z m119 21 c10 -8 14 -15 8 -15 -5
0 -19 7 -30 15 -10 8 -14 15 -8 15 5 0 19 -7 30 -15z m172 -34 c15 -10 47 -28
71 -41 39 -19 42 -24 27 -32 -14 -8 -25 -4 -49 19 -18 16 -45 39 -61 51 -35
27 -25 29 12 3z m-448 -61 c11 -22 20 -41 20 -44 0 -3 -52 -6 -115 -8 -63 -2
-115 0 -115 3 0 9 174 98 182 93 5 -3 17 -23 28 -44z m287 28 c20 -5 39 -20
48 -38 l15 -28 -70 -4 c-69 -3 -74 -1 -71 32 5 47 12 62 29 55 9 -4 32 -11 49
-17z m283 2 c29 -16 31 -19 13 -20 -12 0 -25 5 -28 11 -4 6 -17 14 -29 19 -12
5 -15 9 -6 9 8 0 31 -8 50 -19z m-141 -65 c2 -3 -10 -5 -27 -5 -21 0 -35 7
-42 20 -11 20 -10 20 26 5 21 -9 40 -18 43 -20z m166 4 c10 -14 1 -21 -19 -13
-9 3 -13 10 -10 15 7 12 21 11 29 -2z m79 -4 c3 -8 1 -15 -4 -15 -6 0 -10 7
-10 15 0 8 2 15 4 15 2 0 6 -7 10 -15z m116 -62 c39 -35 69 -63 67 -63 -12 0
-143 84 -154 98 -18 22 -17 45 1 35 8 -4 46 -36 86 -70z m-360 42 c0 -2 -9 -9
-20 -15 -12 -6 -20 -7 -20 -1 0 5 8 12 18 14 9 3 18 5 20 6 1 0 2 -1 2 -4z
m-387 -25 c9 -8 58 -110 53 -110 -5 0 -219 86 -251 101 l-30 14 50 5 c62 6
167 0 178 -10z m69 -25 c14 -66 4 -74 -25 -19 -26 52 -26 67 2 62 9 -2 19 -20
23 -43z m28 24 c0 -5 -4 -9 -10 -9 -5 0 -10 7 -10 16 0 8 5 12 10 9 6 -3 10
-10 10 -16z m227 5 c4 -12 -185 -120 -193 -111 -4 4 6 56 22 115 5 17 166 13
171 -4z m333 -20 c0 -2 -11 2 -25 8 -14 6 -25 15 -25 20 0 5 11 1 25 -8 14 -9
25 -18 25 -20z m-182 -56 c6 -40 10 -74 8 -75 -1 -1 -15 1 -32 6 -19 5 -37 21
-51 47 -13 21 -23 42 -23 46 0 7 67 47 81 48 3 0 10 -33 17 -72z m43 62 c22
-12 24 -36 7 -91 -14 -47 -28 -51 -28 -6 0 17 -4 49 -9 70 -9 39 -4 45 30 27z
m369 -78 c0 -8 -16 -1 -40 18 -51 40 -51 47 0 18 22 -13 40 -29 40 -36z m10
38 c8 -5 11 -10 5 -10 -5 0 -17 5 -25 10 -8 5 -10 10 -5 10 6 0 17 -5 25 -10z
m-515 -46 c15 -25 25 -48 22 -50 -2 -3 -53 -3 -113 -2 l-109 3 85 46 c47 26
86 47 87 48 0 0 13 -20 28 -45z m272 29 c34 -15 63 -45 63 -68 0 -3 -32 -5
-71 -5 l-71 0 7 37 c11 61 11 61 72 36z m129 -71 c-24 -2 -42 2 -47 10 -16 24
-9 25 39 9 l47 -16 -39 -3z m-337 -81 c17 -32 31 -61 31 -64 0 -3 -57 19 -127
49 -71 29 -135 54 -143 56 -8 1 21 5 65 8 155 12 138 17 174 -49z m42 32 c5
-15 9 -38 7 -52 -3 -24 -5 -22 -30 23 -33 58 -33 56 -8 56 13 0 24 -10 31 -27z
m256 11 c2 -7 -16 -14 -46 -18 -47 -6 -65 -18 -66 -41 0 -5 -19 -20 -43 -33
l-43 -24 4 23 c2 13 8 43 12 67 l8 43 85 -3 c52 -2 87 -7 89 -14z m46 9 c-7
-2 -19 -2 -25 0 -7 3 -2 5 12 5 14 0 19 -2 13 -5z m-168 -153 c-3 -5 -12 -10
-18 -10 -7 0 -6 4 3 10 19 12 23 12 15 0z"/>
</g>
</svg>
