<?xml version="1.0" standalone="no"?>
<!DOCTYPE svg PUBLIC "-//W3C//DTD SVG 20010904//EN"
 "http://www.w3.org/TR/2001/REC-SVG-20010904/DTD/svg10.dtd">
<svg version="1.0" 
     xmlns="http://www.w3.org/2000/svg"
     xmlns:xlink="http://www.w3.org/1999/xlink"
     xmlns:xhtml="http://www.w3.org/1999/xhtml"
     viewBox="0 0 468 183"
     preserveAspectRatio="xMidYMid meet">
<metadata>
Created by potrace 1.8, written by Peter Selinger 2001-2007
</metadata>
<xhtml:link href="/styles/svg-content.css" rel="stylesheet" type="text/css"/>
<g transform="translate(0,183) scale(0.061579,-0.061579)"
fill="#000000" stroke="none">
<path d="M198 2922 c-20 -24 -26 -48 -36 -148 -7 -65 -24 -211 -37 -324 -13
-113 -38 -326 -55 -475 -17 -148 -33 -288 -35 -310 -9 -70 -2 -74 206 -101
716 -93 984 -123 996 -111 7 7 17 57 23 112 16 144 16 145 46 145 24 0 26 -3
21 -32 -16 -90 -28 -231 -20 -238 4 -5 197 -31 428 -59 231 -29 471 -59 534
-67 63 -8 117 -11 122 -7 4 4 13 63 20 131 11 102 15 122 28 120 18 -4 19 -24
7 -169 l-8 -96 98 -12 c55 -6 137 -16 183 -22 82 -11 83 -12 53 -24 -16 -8
-54 -29 -84 -49 -29 -20 -59 -36 -66 -36 -7 0 -99 -43 -203 -95 -105 -52 -192
-95 -195 -95 -2 0 -4 16 -4 35 0 31 -3 35 -34 41 -19 3 -40 3 -46 -1 -6 -4
-16 -2 -23 3 -7 6 -52 15 -102 21 -132 16 -135 16 -135 -16 0 -19 -3 -24 -8
-15 -7 9 -21 1 -56 -32 l-46 -45 3 -198 2 -198 3 196 2 197 28 5 c15 3 35 9
45 12 15 7 17 -1 17 -86 -1 -79 -4 -100 -23 -130 -12 -20 -28 -35 -35 -33 -7
1 -8 0 -2 -3 14 -7 12 -33 -5 -67 -17 -32 -20 -49 -5 -26 8 12 10 11 10 -7 0
-12 -5 -25 -10 -28 -6 -4 -9 -14 -8 -23 2 -9 -4 -18 -12 -18 -8 -1 -22 -2 -30
-3 -40 -3 -42 -14 -24 -104 19 -96 8 -83 158 -191 67 -48 85 -56 122 -56 31 0
46 5 51 16 4 11 17 15 51 13 l46 -3 24 59 c13 33 29 66 34 73 6 7 35 12 74 12
34 0 66 5 69 10 3 6 40 10 81 10 42 0 83 4 93 9 9 5 55 13 101 16 47 4 94 12
104 18 11 5 109 11 218 13 189 4 301 18 346 45 29 16 391 55 651 70 44 3 45 3
85 -54 10 -13 42 -21 126 -33 98 -13 116 -19 132 -40 13 -15 30 -24 48 -24
l28 0 7 -118 c7 -111 28 -259 40 -270 11 -12 18 11 25 85 5 47 4 80 -1 84 -6
3 -13 54 -17 112 l-7 107 53 15 c29 9 61 13 71 10 18 -5 201 -26 236 -27 11 0
44 -5 73 -11 39 -8 56 -7 64 1 7 7 21 12 33 12 12 0 57 8 101 19 43 10 126 29
184 41 58 12 134 30 170 41 36 10 80 19 98 19 18 0 40 8 51 19 11 11 32 21 48
23 15 2 27 8 26 14 -1 7 17 17 41 23 23 6 50 19 60 30 24 26 14 55 -14 46 -12
-4 -27 -1 -35 5 -12 10 -9 20 20 66 19 30 35 59 35 64 0 5 -38 51 -84 102 -82
90 -84 93 -71 119 8 15 23 29 35 32 11 3 20 13 20 22 0 9 6 23 14 31 12 12 22
7 69 -31 30 -25 59 -45 65 -45 9 0 10 -29 5 -104 l-6 -103 34 -6 c19 -4 108
-16 199 -27 91 -12 209 -27 262 -35 54 -8 116 -15 138 -15 l39 0 4 98 3 97 2
-102 c2 -97 3 -103 25 -108 12 -3 87 -14 167 -25 80 -12 186 -27 235 -35 135
-22 124 -29 128 78 l3 92 2 -97 c1 -71 6 -98 15 -98 6 0 73 -9 147 -20 243
-37 354 -50 361 -42 16 16 27 798 12 813 -4 4 -75 22 -158 40 -82 17 -197 42
-253 54 -72 15 -105 19 -108 11 -2 -6 -5 -47 -7 -91 l-3 -80 -2 91 -2 91 -257
63 c-142 34 -262 63 -268 64 -6 0 -12 -40 -16 -94 l-5 -95 -2 98 c-1 53 -3 97
-5 97 -2 0 -148 29 -325 65 -176 36 -323 65 -326 65 -3 0 -6 -43 -6 -95 0 -73
-3 -95 -14 -95 -7 0 -48 -16 -91 -36 -42 -19 -78 -34 -80 -32 -1 2 -10 32 -19
67 -12 45 -13 67 -6 71 17 10 0 62 -21 67 -14 4 -79 118 -79 139 0 2 20 1 44
-2 58 -8 182 30 335 103 93 44 127 67 177 117 72 72 90 117 73 181 -16 59 -80
115 -164 145 -66 23 -82 25 -260 24 -168 0 -205 -3 -317 -27 -70 -15 -151 -36
-180 -46 -29 -10 -59 -16 -66 -14 -7 3 -18 0 -25 -5 -10 -8 -134 -62 -143 -62
-2 0 -4 26 -6 58 l-3 57 -37 -3 c-27 -3 -46 3 -64 17 -35 27 -53 26 -95 -5
l-34 -25 -3 35 c-4 47 -23 60 -90 61 -46 0 -82 -9 -181 -48 -68 -26 -125 -47
-126 -45 -1 2 -6 20 -11 41 -12 53 -28 51 -34 -3 -3 -25 -9 -50 -12 -56 -7
-10 -64 -35 -193 -85 -61 -23 -145 -84 -145 -104 0 -7 -11 -22 -25 -35 -14
-13 -25 -31 -25 -40 0 -21 -44 -63 -55 -53 -4 5 -5 2 -1 -5 6 -9 12 -10 29 0
12 7 28 11 35 10 6 -2 12 7 12 18 0 12 5 18 10 15 6 -3 10 4 10 18 0 15 16 42
41 68 44 46 44 45 -8 -40 -18 -30 -33 -58 -33 -63 0 -17 19 -7 37 21 35 56
106 131 123 131 10 0 20 7 23 15 7 17 85 70 92 63 3 -3 -8 -19 -24 -37 -19
-20 -27 -38 -24 -51 3 -11 -2 -31 -11 -45 -9 -14 -13 -25 -9 -25 17 1 70 58
82 88 8 18 18 35 23 38 6 4 6 -1 0 -12 -12 -23 3 -48 34 -58 19 -6 24 0 40 44
10 27 22 50 26 50 5 0 1 -16 -7 -36 -8 -20 -15 -39 -15 -42 0 -2 23 18 50 46
64 65 147 125 131 93 -7 -11 -16 -21 -21 -21 -14 0 -102 -69 -118 -91 -16 -23
0 -26 18 -4 7 9 27 26 44 38 l30 21 -16 -22 c-27 -40 -77 -70 -161 -97 -45
-15 -86 -31 -92 -36 -5 -5 -16 -9 -25 -9 -9 0 -64 -19 -121 -43 -57 -23 -130
-51 -161 -62 -37 -12 -53 -22 -45 -27 7 -5 -2 -8 -22 -8 l-34 0 5 -51 c3 -28
2 -45 -3 -38 -6 11 -9 10 -15 -4 -3 -9 0 -25 7 -34 21 -25 3 -13 -139 91 -68
50 -130 90 -138 88 -13 -3 -14 13 -8 116 6 112 5 120 -12 126 -16 5 -333 69
-784 160 -63 13 -120 21 -127 19 -11 -5 -17 -37 -29 -171 -5 -61 -9 -72 -23
-70 -9 2 -15 12 -15 21 9 107 15 237 11 237 -15 0 -954 196 -1030 215 -35 9
-45 -13 -58 -123 -14 -124 -16 -132 -40 -132 -21 0 -21 3 -13 98 4 53 8 115 9
136 0 39 -1 40 -40 49 -22 4 -272 55 -555 112 -283 58 -525 107 -537 110 -15
3 -28 -3 -45 -23z m4282 -527 c-7 -8 -9 -15 -4 -15 14 0 -19 -20 -33 -20 -21
0 -15 14 15 32 35 21 37 21 22 3z m-3107 -273 c-12 -114 -25 -231 -29 -259 -5
-48 -8 -53 -30 -53 -22 0 -24 3 -19 38 2 20 14 134 26 252 11 118 22 220 24
226 2 6 14 9 27 7 l24 -5 -23 -206z m3002 188 c-3 -5 -11 -10 -16 -10 -6 0 -7
5 -4 10 3 6 11 10 16 10 6 0 7 -4 4 -10z m-1859 -207 c-3 -21 -13 -114 -21
-208 -21 -244 -23 -255 -44 -255 -15 0 -16 7 -10 73 4 39 15 152 25 250 16
163 19 177 36 177 17 0 19 -5 14 -37z m1594 -64 c0 -3 -11 -4 -25 -1 -24 4
-24 5 -8 17 17 13 32 5 33 -16z m39 -81 c13 -38 0 -26 -17 15 -7 16 -8 26 -3
23 5 -3 14 -20 20 -38z m-665 -56 c-2 -31 -9 -126 -14 -210 -6 -109 -13 -158
-24 -174 -11 -15 -16 -17 -16 -8 0 23 29 349 36 407 8 71 24 57 18 -15z m525
33 c14 -13 9 -15 -41 -15 -37 0 -60 -5 -68 -15 -24 -29 -29 -15 -7 18 20 30
26 33 62 31 21 -2 46 -11 54 -19z m-332 -69 l91 -69 -47 -56 c-26 -31 -57 -72
-69 -91 -12 -19 -22 -29 -22 -22 0 8 -15 4 -45 -12 l-45 -26 0 23 c0 12 7 90
15 172 8 83 15 152 15 153 0 7 17 -4 107 -72z m172 36 c7 -14 6 -19 -3 -19 -6
0 -13 9 -13 19 -1 10 0 18 2 18 2 0 9 -8 14 -18z m329 -7 c14 -31 15 -48 3
-41 -12 8 -32 66 -22 66 4 0 13 -11 19 -25z m-192 -60 c-1 -5 7 -9 16 -9 10 1
15 -2 12 -7 -8 -14 -26 -11 -46 8 -17 15 -20 15 -28 3 -8 -13 -10 -12 -10 3 0
9 5 17 10 17 6 0 10 5 10 11 0 5 -4 8 -9 4 -6 -3 -9 3 -8 14 1 17 4 16 27 -7
14 -15 26 -31 26 -37z m-26 -118 c0 -5 -4 -5 -10 -2 -5 3 -10 14 -10 23 0 15
2 15 10 2 5 -8 10 -19 10 -23z m-220 -26 c0 -5 -7 -12 -16 -15 -14 -5 -15 -4
-4 9 14 17 20 19 20 6z m17 -43 c-3 -8 -6 -5 -6 6 -1 11 2 17 5 13 3 -3 4 -12
1 -19z m-17 -2 c0 -3 -4 -8 -10 -11 -5 -3 -10 -1 -10 4 0 6 5 11 10 11 6 0 10
-2 10 -4z m52 -31 c-6 -34 -12 -32 -12 6 0 16 4 28 9 25 4 -3 6 -17 3 -31z
m-192 -29 c0 -2 -8 -10 -17 -17 -16 -13 -17 -12 -4 4 13 16 21 21 21 13z m345
-36 c3 -5 1 -10 -4 -10 -6 0 -11 5 -11 10 0 6 2 10 4 10 3 0 8 -4 11 -10z
m-145 -60 c0 -5 -2 -10 -4 -10 -3 0 -8 5 -11 10 -3 6 -1 10 4 10 6 0 11 -4 11
-10z m100 1 c0 -5 -8 -11 -17 -14 -10 -2 -26 -8 -35 -12 -11 -4 -18 -3 -18 4
0 6 15 15 33 20 17 5 33 10 35 10 1 1 2 -3 2 -8z m1821 -167 c-1 -93 -4 -170
-5 -172 -2 -1 -20 11 -41 28 l-38 30 -1 130 -1 130 35 14 c19 8 39 14 44 12 6
-1 8 -73 7 -172z m81 -6 c-2 -113 -7 -187 -14 -193 -7 -7 -9 28 -4 120 3 72 6
158 6 193 0 34 3 62 8 62 4 0 6 -82 4 -182z m-2055 150 c-3 -8 -6 -5 -6 6 -1
11 2 17 5 13 3 -3 4 -12 1 -19z m49 -37 c0 -22 -4 -37 -9 -34 -4 3 -6 12 -2
22 4 11 3 13 -5 5 -6 -6 -14 -35 -17 -65 -7 -51 -8 -52 -13 -19 -6 35 2 66 28
108 8 12 15 22 16 22 0 0 1 -18 2 -39z m-57 2 c0 -5 -4 -17 -9 -28 -8 -18 -9
-17 -9 8 -1 15 4 27 9 27 6 0 10 -3 9 -7z m-176 -10 c-7 -2 -19 -2 -25 0 -7 3
-2 5 12 5 14 0 19 -2 13 -5z m117 -18 c-7 -8 -20 -15 -29 -15 -11 0 -8 5 9 14
33 19 35 19 20 1z m167 -29 c0 -8 -6 -12 -15 -9 -11 5 -11 7 0 14 7 5 13 9 14
9 0 0 1 -6 1 -14z m2620 -263 c-1 -54 -3 -12 -3 92 0 105 2 149 3 98 2 -51 2
-136 0 -190z m-2823 246 c-6 -11 -24 -2 -24 11 0 5 7 7 15 4 8 -4 12 -10 9
-15z m-77 -31 c-3 -7 -5 -2 -5 12 0 14 2 19 5 13 2 -7 2 -19 0 -25z m104 19
c-6 -8 -8 -17 -4 -20 3 -4 0 -13 -6 -21 -7 -8 -10 -20 -6 -26 3 -5 2 -10 -4
-10 -18 0 -21 17 -6 30 8 7 15 17 15 23 0 6 -11 0 -25 -13 -17 -16 -25 -19
-25 -9 1 8 15 24 33 36 39 26 43 27 28 10z m-195 -25 c6 -4 13 -15 17 -24 10
-29 28 -21 21 8 -5 19 -4 25 5 20 6 -4 11 -20 11 -36 0 -16 7 -30 16 -34 13
-5 14 -1 9 27 -5 21 -4 29 3 22 14 -15 24 -105 11 -105 -6 0 -7 5 -4 10 3 6
-1 10 -9 10 -13 0 -13 -3 0 -27 18 -36 18 -40 -7 -46 -13 -3 -18 -10 -14 -17
5 -9 10 -9 18 -1 28 28 34 2 7 -31 -14 -17 -15 -17 -40 7 -14 14 -29 25 -32
25 -5 0 4 -55 17 -97 10 -33 -2 -28 -20 7 -9 18 -20 28 -27 24 -7 -5 -9 -2 -6
7 3 8 0 19 -7 26 -10 9 -13 7 -11 -13 0 -13 4 -24 9 -24 4 0 7 -17 7 -37 l0
-38 -26 43 c-29 48 -39 47 -48 -3 -4 -19 -12 -35 -18 -35 -6 0 -8 10 -4 26 6
24 6 25 -9 10 -9 -9 -13 -21 -9 -27 4 -7 1 -10 -7 -7 -9 3 -13 18 -10 46 3 55
-13 53 -35 -3 -9 -25 -20 -45 -24 -45 -4 0 -15 -18 -24 -40 -9 -22 -18 -40
-20 -40 -2 0 -14 16 -26 35 -23 38 -21 91 4 82 8 -3 13 8 15 36 1 22 4 44 7
49 3 4 1 8 -4 8 -5 0 -15 -18 -22 -40 -12 -36 -25 -46 -53 -41 -5 1 -6 -3 -2
-9 3 -5 3 -15 -1 -21 -5 -8 -9 -8 -14 1 -5 8 -9 7 -13 -5 -4 -9 -3 -13 3 -10
26 16 6 -21 -27 -52 l-38 -34 -3 55 c-2 31 -8 56 -13 56 -6 0 -7 5 -4 10 6 10
-37 4 -57 -7 -19 -11 -5 -22 21 -17 28 6 29 5 37 -47 11 -71 11 -72 -3 -76 -7
-3 -10 3 -7 15 3 10 -4 29 -15 43 -16 20 -22 22 -33 11 -11 -11 -10 -12 5 -7
9 4 17 3 17 -3 0 -6 3 -19 6 -29 5 -14 4 -15 -4 -4 -11 15 -42 24 -42 12 0 -4
-16 -5 -35 -3 -46 5 -45 -14 1 -23 28 -5 39 -2 50 12 12 17 13 16 12 -9 -2
-17 -8 -27 -18 -26 -8 1 -38 0 -66 0 -48 -2 -51 -4 -51 -28 0 -14 2 -22 6 -17
3 6 29 -1 61 -16 37 -17 49 -26 37 -29 -25 -5 -69 7 -63 16 8 13 -42 8 -56 -5
-7 -8 -37 -13 -71 -13 -32 0 -67 -5 -78 -10 -33 -18 -137 6 -176 41 -19 16
-38 29 -43 29 -18 0 -10 -18 15 -34 14 -9 23 -21 20 -27 -4 -5 -1 -8 7 -7 7 2
12 -5 12 -15 -1 -10 1 -16 4 -13 5 6 42 -48 42 -60 0 -4 -20 10 -44 30 -24 20
-49 36 -55 36 -6 0 -11 5 -11 10 0 6 5 10 11 10 5 0 7 5 3 11 -5 8 -9 8 -14
-1 -6 -9 -13 -9 -29 -1 -17 10 -21 9 -21 -4 0 -9 4 -14 9 -11 10 7 22 -8 40
-49 13 -30 13 -30 -7 -10 -11 11 -20 22 -20 25 0 22 -4 28 -19 25 -10 -1 -26
6 -37 17 -22 23 -35 15 -14 -9 8 -10 22 -31 32 -46 l17 -28 -28 7 c-28 7 -86
48 -78 56 2 2 -5 4 -15 5 -28 2 -25 -8 12 -39 18 -15 27 -28 21 -28 -7 0 -13
5 -13 10 0 6 -4 10 -10 10 -6 0 -5 -10 2 -25 6 -13 14 -22 18 -20 4 3 10 -4
13 -16 5 -18 2 -18 -31 7 -95 71 -131 108 -120 121 10 12 7 16 -9 11 -5 -2 -7
-7 -5 -13 2 -5 -4 -3 -13 6 -12 12 -13 21 -6 40 7 17 10 19 10 7 1 -21 17 -24
24 -5 2 6 7 -7 11 -31 9 -49 28 -47 22 3 -3 22 0 34 7 32 6 -1 14 12 18 28 4
17 8 26 9 20 1 -5 3 -14 5 -20 1 -5 3 -22 3 -37 3 -45 22 -32 22 14 l0 43 20
-38 c11 -20 20 -45 20 -54 0 -10 5 -25 11 -33 8 -11 9 -1 6 37 -2 29 1 57 7
63 5 5 17 29 26 52 9 26 24 44 39 50 20 7 22 6 12 -6 -18 -21 -21 -64 -5 -70
14 -5 27 8 38 38 5 16 4 17 -9 6 -8 -7 -15 -20 -16 -29 0 -11 -2 -12 -6 -3 -6
16 25 64 37 57 6 -4 10 -1 10 5 0 7 7 5 16 -4 20 -21 23 -20 17 4 -3 11 0 26
6 33 6 8 8 17 4 20 -3 4 -1 7 5 7 7 0 12 -12 12 -27 0 -24 2 -23 31 18 35 49
57 73 44 49 -4 -8 -19 -29 -31 -47 -13 -17 -24 -34 -24 -37 0 -17 22 1 75 64
60 71 79 82 99 55 8 -10 15 -12 26 -5 12 8 12 10 -5 11 -20 0 -20 0 0 9 11 5
34 9 51 9 16 1 39 8 50 16 10 8 26 15 35 15 8 0 26 11 39 25 27 28 52 35 27 7
-10 -10 -17 -24 -17 -30 0 -7 -4 -12 -9 -12 -13 0 -22 -28 -11 -35 6 -4 14 5
19 18 5 14 23 34 39 46 27 19 30 19 27 4 -1 -10 -7 -17 -13 -16 -5 1 -16 -5
-24 -14 -11 -14 -11 -16 2 -8 8 5 25 9 38 10 24 0 43 21 36 39 -6 15 22 53 32
44 4 -4 1 -14 -6 -23 -16 -19 -3 -20 16 0 16 16 80 20 102 7 7 -5 14 -23 15
-40 1 -20 5 -28 12 -21 13 13 13 42 0 51 -6 4 -2 8 8 8 14 0 17 -5 12 -20 -8
-24 2 -26 26 -4 17 16 18 15 14 -15 -2 -17 0 -33 4 -35 4 -3 8 5 8 17 1 12 7
23 13 25 5 2 8 8 5 13 -4 5 19 6 53 3 l60 -7 7 71 c5 54 11 72 23 75 27 7 36
7 48 -1z m321 -14 c-3 -8 -6 -5 -6 6 -1 11 2 17 5 13 3 -3 4 -12 1 -19z m111
-11 c2 -9 -2 -17 -8 -17 -7 0 -10 7 -6 15 5 13 2 14 -15 5 -11 -6 -23 -18 -26
-26 -5 -13 -7 -13 -14 -2 -13 20 -11 24 14 36 30 15 51 11 55 -11z m-111 -29
c-3 -8 -6 -5 -6 6 -1 11 2 17 5 13 3 -3 4 -12 1 -19z m-30 -3 c-4 -8 -2 -17 3
-20 6 -4 10 -31 10 -62 0 -66 -10 -66 -14 0 -2 25 -6 49 -10 55 -6 10 2 42 11
42 3 0 3 -7 0 -15z m3250 -257 c-1 -51 -3 -12 -3 87 0 99 2 141 3 93 2 -48 2
-129 0 -180z m-3322 112 c4 -20 3 -22 -6 -10 -8 12 -9 9 -4 -13 4 -20 2 -27
-6 -22 -6 5 -9 19 -5 37 3 18 2 27 -4 23 -6 -3 -10 -1 -10 4 0 6 -9 11 -20 11
-12 0 -20 7 -21 18 0 9 -2 25 -4 35 -3 14 0 16 9 8 17 -14 29 -1 15 15 -9 11
-6 16 12 23 23 8 24 6 31 -48 4 -31 10 -67 13 -81z m-682 35 c-3 -9 -8 -14
-10 -11 -3 3 -2 9 2 15 9 16 15 13 8 -4z m785 -49 c-1 -14 -5 -23 -9 -20 -7 4
0 44 7 44 2 0 3 -11 2 -24z m-38 -21 c0 -2 -9 -3 -19 -2 -11 0 -18 5 -15 9 4
6 34 0 34 -7z m-231 -45 c0 -9 -4 -8 -9 5 -5 11 -9 27 -9 35 0 9 4 8 9 -5 5
-11 9 -27 9 -35z m51 18 c-1 -26 -3 -30 -10 -16 -6 9 -7 23 -4 32 9 25 14 19
14 -16z m-276 -93 c5 -22 4 -26 -4 -15 -5 8 -10 24 -10 34 0 26 6 18 14 -19z
m271 -15 l30 -35 -28 25 c-16 14 -33 34 -39 45 -11 21 -10 20 37 -35z m-81 -5
l17 -30 -20 24 c-12 13 -21 28 -21 34 0 12 0 11 24 -28z m-147 -17 c-3 -8 -6
-5 -6 6 -1 11 2 17 5 13 3 -3 4 -12 1 -19z m-1044 -17 c-3 -11 -11 -22 -19
-25 -11 -4 -11 0 2 19 20 30 24 31 17 6z m894 -43 c-3 -7 -5 -2 -5 12 0 14 2
19 5 13 2 -7 2 -19 0 -25z m-867 -7 c0 -4 -3 -11 -7 -14 -8 -9 -34 13 -28 24
6 9 35 1 35 -10z m-227 -85 c-4 -17 -3 -18 6 -6 8 12 11 7 11 -23 0 -25 4 -36
11 -31 6 3 9 17 6 31 -3 15 -1 21 5 15 5 -5 11 -16 12 -23 5 -25 25 -69 32
-69 3 0 4 12 1 26 l-4 25 26 -25 c14 -14 32 -39 38 -56 l11 -30 -71 50 c-40
28 -79 56 -88 63 -19 15 -32 47 -19 47 6 0 10 12 10 28 0 19 3 23 9 13 5 -7 6
-23 4 -35z m-36 12 c-3 -8 -6 -5 -6 6 -1 11 2 17 5 13 3 -3 4 -12 1 -19z m-15
-56 c-7 -2 -8 -9 -2 -20 5 -9 12 -26 16 -37 6 -18 8 -16 13 10 6 28 8 29 18
10 5 -11 13 -32 17 -47 7 -31 21 -36 30 -13 3 8 1 15 -3 15 -5 0 -12 8 -15 17
-6 15 -5 15 13 -1 11 -10 17 -24 14 -32 -3 -8 9 -22 33 -36 20 -12 32 -24 26
-26 -11 -3 -101 45 -139 76 -32 25 -54 81 -40 104 11 16 12 16 21 1 6 -11 5
-18 -2 -21z m938 13 c0 -8 -61 -37 -67 -32 -3 3 8 12 24 21 29 16 43 19 43 11z
m-1053 -60 c-6 -25 -14 -45 -18 -45 -4 0 -3 15 2 33 6 17 12 38 15 45 2 6 5
12 7 12 2 0 0 -20 -6 -45z m64 -6 c-10 -23 -10 -23 -10 7 -1 17 2 34 7 38 11
12 14 -18 3 -45z m-31 16 c0 -14 -4 -25 -9 -25 -4 0 -6 11 -3 25 2 14 6 25 8
25 2 0 4 -11 4 -25z m65 -55 c-3 -6 -2 -10 2 -10 5 0 14 -14 21 -32 l11 -31
-27 27 c-23 21 -28 33 -24 58 4 25 6 28 14 14 5 -9 6 -21 3 -26z m-86 -32 c0
-27 -2 -29 -8 -13 -5 11 -6 26 -4 33 8 21 13 13 12 -20z m33 7 c-2 -14 -6 -25
-8 -25 -2 0 -4 11 -4 25 0 14 4 25 9 25 4 0 6 -11 3 -25z m128 -39 c26 -28 29
-36 13 -27 -23 12 -53 49 -53 65 0 5 1 7 3 5 1 -2 18 -22 37 -43z m-110 -3 c0
-21 -3 -24 -9 -14 -5 8 -7 20 -4 28 8 21 13 15 13 -14z"/>
<path d="M3945 1940 c-3 -5 1 -10 10 -10 9 0 13 5 10 10 -3 6 -8 10 -10 10 -2
0 -7 -4 -10 -10z"/>
<path d="M3435 1312 c-10 -7 -18 -32 -10 -32 2 0 9 9 15 20 12 22 11 24 -5 12z"/>
<path d="M3460 1301 c0 -10 -4 -21 -9 -23 -4 -1 -11 -14 -15 -28 -6 -19 -5
-21 3 -10 9 13 11 13 11 -1 0 -9 7 -22 15 -29 12 -10 13 -7 5 20 -5 19 -5 41
0 55 6 15 6 27 0 30 -6 4 -10 -3 -10 -14z"/>
<path d="M3506 1208 c3 -12 14 -29 22 -38 14 -14 15 -13 8 5 -5 11 -11 28 -13
38 -3 9 -10 17 -15 17 -5 0 -6 -10 -2 -22z"/>
<path d="M3032 1097 c-12 -13 -19 -26 -16 -30 4 -3 16 5 26 19 26 33 18 41
-10 11z"/>
<path d="M3230 1044 c0 -58 2 -65 15 -54 8 7 13 15 10 19 -2 4 -5 27 -6 50 -5
69 -19 58 -19 -15z"/>
<path d="M2674 1068 c-6 -13 -7 -36 -4 -53 l6 -30 11 31 c8 23 8 35 0 43 -8 8
-8 11 1 11 7 0 12 5 12 10 0 18 -17 10 -26 -12z"/>
<path d="M2985 1050 c-3 -5 -1 -10 4 -10 6 0 11 5 11 10 0 6 -2 10 -4 10 -3 0
-8 -4 -11 -10z"/>
<path d="M2870 945 c7 -8 17 -15 22 -15 6 0 5 7 -2 15 -7 8 -17 15 -22 15 -6
0 -5 -7 2 -15z"/>
<path d="M3206 948 c3 -5 10 -6 15 -3 13 9 11 12 -6 12 -8 0 -12 -4 -9 -9z"/>
<path d="M2762 935 c-7 -8 -9 -15 -5 -15 13 -1 -30 -24 -50 -27 -10 -2 -30
-10 -45 -18 -23 -12 -24 -14 -7 -15 11 0 32 8 45 17 l25 16 -24 -26 c-30 -33
-22 -45 14 -21 23 15 75 83 75 99 0 10 -15 4 -28 -10z"/>
<path d="M2460 932 c0 -5 9 -17 20 -27 16 -15 18 -21 7 -34 -11 -14 -10 -14 5
-2 17 12 17 15 -3 42 -21 30 -29 35 -29 21z"/>
<path d="M2810 907 c0 -14 4 -28 9 -32 5 -3 8 6 7 20 -4 35 -16 44 -16 12z"/>
<path d="M2383 854 c-19 -20 -16 -38 3 -20 8 9 14 20 12 25 -2 5 -9 3 -15 -5z"/>
<path d="M2511 861 c-8 -5 -9 -11 -3 -15 5 -3 12 1 16 9 6 17 6 18 -13 6z"/>
<path d="M2583 837 c3 -23 87 -64 87 -42 0 17 -30 35 -59 35 -10 0 -22 6 -25
13 -3 6 -5 4 -3 -6z"/>
<path d="M2215 793 c4 -10 12 -34 17 -53 5 -19 14 -39 20 -45 13 -13 0 73 -16
97 -14 23 -30 23 -21 1z"/>
<path d="M3659 1171 c14 -25 20 -27 17 -4 -2 9 -8 19 -15 21 -10 3 -10 0 -2
-17z"/>
<path d="M3799 2013 c-13 -16 -12 -17 4 -4 9 7 17 15 17 17 0 8 -8 3 -21 -13z"/>
<path d="M1845 779 c-4 -6 -5 -12 -2 -15 2 -3 7 2 10 11 7 17 1 20 -8 4z"/>
</g>
</svg>
