<?xml version="1.0" standalone="no"?>
<!DOCTYPE svg PUBLIC "-//W3C//DTD SVG 20010904//EN"
 "http://www.w3.org/TR/2001/REC-SVG-20010904/DTD/svg10.dtd">
<svg version="1.0" xmlns="http://www.w3.org/2000/svg"
 width="400.000000pt" height="284.000000pt" viewBox="0 0 400.000000 284.000000"
 preserveAspectRatio="xMidYMid meet">
<metadata>
Created by potrace 1.10, written by Peter Selinger 2001-2011
</metadata>
<g transform="translate(0.000000,284.000000) scale(0.100000,-0.100000)"
fill="#000000" stroke="none">
<path d="M1699 2608 c-1 -73 -2 -137 -4 -143 -1 -5 -3 -109 -3 -231 l-2 -220
-52 -10 c-41 -7 -70 -5 -128 8 -90 21 -1301 293 -1346 303 l-32 6 -7 -103 c-4
-57 -5 -127 -3 -157 l3 -55 205 -47 c403 -91 1027 -232 1117 -252 57 -12 90
-24 88 -31 -2 -6 -75 -256 -161 -556 l-156 -545 1 -145 c2 -80 -2 -156 -7
-170 -14 -37 2 -70 33 -70 18 0 28 7 35 26 7 18 16 24 32 22 20 -3 25 5 40 51
10 30 20 56 23 59 11 11 85 -33 85 -51 0 -49 54 -89 118 -87 20 0 69 1 109 2
57 1 72 4 76 17 3 11 15 16 43 15 79 -2 74 3 54 -64 -18 -58 -17 -59 1 -65 13
-4 19 -16 19 -36 0 -23 6 -32 26 -40 15 -5 29 -8 31 -6 2 3 51 168 108 367 58
200 107 365 109 367 2 3 30 -1 61 -7 31 -6 60 -9 63 -5 4 4 10 124 13 268 6
256 6 264 37 366 17 57 33 105 35 107 2 2 333 -70 736 -161 402 -91 738 -165
747 -165 12 0 14 23 12 157 l-3 157 -35 8 c-19 4 -226 50 -460 103 -234 53
-543 122 -687 155 -200 45 -272 65 -300 85 -21 14 -44 25 -52 25 -12 0 -13 56
-10 372 l4 373 -295 67 c-162 37 -301 67 -307 68 -10 0 -13 -34 -14 -132z
m184 -31 c8 -2 11 -31 8 -88 -1 -46 -4 -85 -5 -87 -2 -1 -39 5 -83 15 l-79 16
0 92 1 91 73 -17 c41 -10 79 -20 85 -22z m97 -24 c47 -8 165 -35 216 -49 28
-8 60 -14 72 -14 19 0 22 -6 22 -40 0 -26 -4 -40 -13 -40 -15 0 -262 54 -319
70 -36 10 -38 13 -38 51 0 35 2 40 18 34 9 -4 28 -9 42 -12z m25 -103 c50 -9
124 -27 191 -46 28 -8 60 -14 72 -14 19 0 22 -6 22 -40 0 -26 -5 -40 -13 -40
-7 0 -66 13 -132 29 -66 16 -145 34 -177 41 -44 9 -55 15 -53 28 2 9 4 28 4
41 1 20 5 22 24 16 12 -4 40 -10 62 -15z m-137 -65 c21 -5 22 -10 22 -96 0
-81 -2 -90 -17 -86 -10 3 -49 13 -88 22 l-70 16 0 62 c0 34 4 67 8 74 4 6 4
18 1 26 -6 16 -5 16 144 -18z m96 -24 c17 -5 67 -17 111 -26 44 -9 102 -23
129 -31 26 -8 57 -14 67 -14 15 0 19 -7 19 -40 0 -22 -3 -40 -6 -40 -6 0 -130
28 -279 64 l-90 21 -3 38 c-3 40 2 43 52 28z m46 -108 c25 -3 50 -8 55 -13 6
-4 36 -11 68 -15 31 -4 60 -11 63 -16 3 -5 22 -9 43 -9 42 0 52 -14 41 -61
l-5 -26 -182 41 -183 41 0 42 c0 42 0 42 28 32 15 -6 47 -13 72 -16z m-1593
-18 c116 -27 106 -15 99 -113 -3 -48 -5 -88 -6 -88 0 -2 -131 25 -150 31 -12
4 -15 23 -15 95 0 49 1 90 2 90 1 0 32 -7 70 -15z m1393 -33 l75 -18 -2 -83
c-1 -45 -4 -85 -7 -88 -3 -4 -41 2 -84 11 l-78 18 2 72 c2 97 3 106 12 106 4
-1 41 -9 82 -18z m-1160 -20 l65 -17 -4 -85 c-2 -47 -5 -87 -6 -88 -2 -2 -39
4 -83 13 l-79 17 1 89 c1 102 -5 99 106 71z m1352 -27 c40 -9 97 -20 127 -26
29 -5 62 -14 72 -19 10 -6 31 -10 48 -10 29 0 31 -2 31 -40 0 -28 -4 -40 -14
-40 -16 0 -258 54 -318 70 -36 10 -38 13 -38 51 0 22 4 38 9 35 5 -4 42 -13
83 -21z m-1152 -19 l55 -12 3 -93 c3 -85 1 -92 -15 -87 -23 6 -144 36 -147 36
-2 0 -3 41 -2 90 l1 91 25 -7 c14 -4 50 -12 80 -18z m183 -41 l77 -17 0 -89
c0 -65 -3 -89 -12 -89 -7 0 -47 8 -88 18 l-75 17 0 37 c1 20 4 40 7 44 4 4 3
15 -2 25 -7 12 -6 20 1 24 6 4 8 18 4 32 -3 14 -2 23 2 20 4 -3 43 -12 86 -22z
m982 -41 c33 -8 83 -19 110 -23 28 -5 63 -14 78 -20 16 -6 39 -11 53 -11 21 0
24 -4 24 -40 0 -25 -5 -40 -12 -40 -12 0 -314 66 -345 76 -8 2 -13 20 -13 45
0 38 2 41 23 35 12 -4 49 -14 82 -22z m-790 -3 l80 -17 3 -84 c2 -46 -1 -86
-5 -90 -4 -4 -44 1 -88 11 l-80 19 0 90 c0 50 2 90 5 89 3 0 41 -8 85 -18z
m-773 -25 c56 -13 138 -31 181 -41 l77 -16 0 -40 c0 -43 0 -43 -44 -30 -17 5
-67 17 -111 26 -44 9 -103 23 -131 31 -28 8 -58 14 -67 14 -13 0 -17 9 -17 40
0 22 2 40 4 40 2 0 51 -11 108 -24z m1057 -123 c-1 -46 -5 -86 -9 -88 -4 -3
-43 3 -87 12 l-79 16 1 92 0 91 88 -20 88 -20 -2 -83z m505 54 c72 -16 93 -43
25 -32 -71 12 -122 30 -127 43 -3 9 3 11 20 7 12 -3 50 -11 82 -18z m-1089
-37 c98 -22 179 -40 181 -40 2 0 4 -18 4 -41 0 -40 -1 -41 -27 -34 -16 4 -46
11 -68 15 -47 9 -119 26 -191 46 -28 8 -60 14 -72 14 -19 0 -22 6 -22 40 0 22
4 40 9 40 4 0 88 -18 186 -40z m652 -48 c13 -8 5 -61 -9 -62 -5 0 -12 0 -18 0
-5 0 -10 16 -10 35 0 35 12 43 37 27z m-368 -16 c31 -7 92 -21 136 -31 164
-35 155 -31 155 -76 0 -35 -2 -40 -17 -34 -10 4 -29 9 -43 12 -47 8 -165 35
-216 49 -28 8 -60 14 -72 14 -19 0 -22 6 -22 40 0 45 0 45 79 26z m478 -61
c-1 -25 -3 -31 -10 -20 -7 13 -2 55 8 55 2 0 3 -16 2 -35z m200 -9 c3 -3 2
-18 -2 -33 -7 -28 -7 -28 -18 -5 -11 24 -36 29 -55 10 -14 -14 -16 -1 -6 27 5
13 15 16 42 11 19 -3 37 -7 39 -10z m72 -12 c24 -5 31 -12 31 -30 0 -12 -4
-26 -10 -29 -5 -3 -10 1 -10 10 0 24 -28 29 -52 9 -20 -18 -21 -18 -15 -1 4
10 7 25 7 33 0 16 5 17 49 8z m547 -13 c5 -6 28 -12 52 -15 23 -3 57 -10 75
-15 18 -6 53 -13 79 -16 26 -4 50 -10 53 -16 4 -5 24 -9 46 -9 l39 0 0 -46 c0
-33 -4 -45 -12 -41 -7 2 -91 21 -185 42 l-173 38 0 44 c0 43 7 52 26 34z
m-428 -16 c15 -4 21 -12 18 -22 -3 -8 -6 -19 -6 -24 0 -5 -4 -9 -10 -9 -5 0
-10 6 -10 14 0 19 -30 29 -46 15 -9 -7 -14 -8 -14 -1 0 24 14 42 29 38 9 -2
26 -7 39 -11z m-391 -21 c-3 -3 -12 -4 -19 -1 -8 3 -5 6 6 6 11 1 17 -2 13 -5z
m726 -38 c23 -6 27 -11 27 -41 0 -28 -4 -35 -20 -35 -11 0 -20 4 -20 9 0 5
-10 11 -22 13 -18 2 -24 11 -26 36 -3 29 -1 33 15 29 10 -3 30 -8 46 -11z
m547 -27 c30 -5 64 -13 75 -18 25 -11 117 -31 173 -38 43 -5 43 -6 41 -42 -2
-20 -4 -39 -5 -42 -2 -3 -85 13 -186 35 l-183 41 -3 44 c-3 39 -1 43 15 36 10
-4 43 -12 73 -16z m-335 -24 c18 -4 20 -12 20 -94 0 -76 -2 -90 -15 -86 -8 2
-48 11 -87 20 l-73 17 0 66 c0 37 3 76 6 88 5 20 7 21 67 7 34 -7 71 -15 82
-18z m146 -32 l76 -17 -2 -83 c-1 -46 -5 -86 -8 -90 -3 -3 -41 3 -84 14 l-78
19 -3 87 c-2 66 0 87 10 87 7 0 47 -8 89 -17z m534 -23 c3 -5 19 -10 34 -10
16 0 51 -6 77 -14 67 -20 141 -37 187 -43 36 -5 37 -6 37 -47 l0 -42 -185 41
-185 40 0 42 c0 31 4 43 14 43 8 0 18 -4 21 -10z m-350 -20 c28 -5 59 -12 70
-15 17 -4 20 -12 20 -67 -1 -35 -4 -69 -9 -76 -4 -7 -5 -20 -2 -29 5 -11 2
-14 -10 -9 -9 4 -47 13 -85 22 l-69 16 0 89 c0 81 2 90 18 85 9 -3 40 -10 67
-16z m206 -46 l76 -17 -1 -89 -1 -89 -25 5 c-14 4 -51 11 -82 18 l-58 12 0 88
c0 48 3 88 7 88 4 0 42 -7 84 -16z m194 -44 c28 -6 57 -13 65 -15 12 -4 15
-23 15 -93 l0 -88 -75 16 c-41 8 -80 19 -86 23 -7 4 -11 27 -9 54 2 27 3 65 4
86 1 32 4 37 19 33 9 -3 40 -10 67 -16z m208 -46 l74 -16 -2 -84 c-1 -47 -4
-86 -6 -89 -3 -2 -40 4 -84 14 l-80 17 -3 87 c-3 100 -10 95 101 71z m-1299
-332 c-4 -18 -11 -32 -15 -32 -9 0 -2 44 8 63 10 16 13 0 7 -31z m-1 -64 c-5
-7 -8 -48 -8 -91 l0 -78 -30 7 c-16 3 -32 8 -34 10 -2 2 6 40 19 84 19 65 26
80 43 80 14 0 17 -4 10 -12z"/>
</g>
</svg>
