<?xml version="1.0" standalone="no"?>
<!DOCTYPE svg PUBLIC "-//W3C//DTD SVG 20010904//EN"
 "http://www.w3.org/TR/2001/REC-SVG-20010904/DTD/svg10.dtd">
<svg version="1.0" xmlns="http://www.w3.org/2000/svg"
 width="3087.000000pt" height="1287.000000pt" viewBox="0 0 3087.000000 1287.000000"
 preserveAspectRatio="xMidYMid meet">
<metadata>
Created by potrace 1.10, written by Peter Selinger 2001-2011
</metadata>
<g transform="translate(0.000000,1287.000000) scale(0.100000,-0.100000)"
fill="#000000" stroke="none">
<path d="M4535 12609 c-317 -41 -652 -157 -921 -320 -282 -170 -550 -430 -736
-714 -206 -314 -333 -678 -367 -1053 -5 -57 -12 -106 -15 -109 -3 -3 -497 1
-1098 10 -1042 14 -1094 14 -1118 -3 -16 -11 -25 -27 -25 -45 0 -18 9 -34 25
-46 23 -16 88 -18 930 -28 498 -6 991 -14 1096 -17 l191 -6 7 -97 c42 -587
271 -1097 676 -1501 401 -402 897 -627 1487 -675 l83 -7 2 -2825 3 -2826 25
-18 c24 -17 159 -17 3345 6 1826 13 3587 24 3913 25 l592 0 0 -533 c0 -411 3
-537 13 -550 15 -20 3377 -1147 3422 -1147 17 0 36 5 43 12 9 9 12 272 12
1120 l0 1108 6168 0 c5981 0 6169 1 6186 18 15 18 16 293 16 3940 l0 3922
1110 0 c1097 0 1110 0 1130 20 25 25 26 62 2 83 -17 16 -188 17 -2248 20
l-2229 2 -3 1109 c-1 799 -5 1113 -13 1123 -6 7 -26 13 -43 13 -46 0 -3418
-1126 -3433 -1147 -10 -13 -13 -141 -13 -560 l0 -543 -2741 0 -2740 0 -2243
1125 c-1488 746 -2253 1125 -2273 1125 -16 0 -37 -8 -46 -18 -16 -17 -17 -110
-17 -1125 l0 -1107 -2782 2 -2783 3 -2 45 c-41 744 -416 1405 -1028 1814 -301
202 -625 323 -988 371 -129 16 -453 19 -572 4z m486 -119 c759 -77 1419 -534
1754 -1215 251 -509 293 -1110 114 -1648 -245 -742 -875 -1302 -1638 -1457
-155 -31 -265 -41 -446 -41 -350 0 -651 71 -965 227 -237 118 -414 248 -601
441 -324 336 -530 759 -594 1223 -19 135 -21 414 -5 545 81 657 433 1224 985
1583 405 264 919 390 1396 342z m21109 -2180 c0 -1188 -3 -2160 -7 -2159 -5 0
-737 244 -1628 542 l-1620 542 0 1080 0 1079 1615 537 c888 296 1621 538 1628
538 9 1 12 -437 12 -2159z m-11170 1080 c1177 -589 2140 -1073 2140 -1078 0
-8 -4264 -2142 -4280 -2142 -7 0 -10 723 -10 2145 0 1180 2 2145 5 2145 3 0
968 -482 2145 -1070z m5066 -1140 l2724 0 0 -538 c0 -465 2 -540 15 -559 12
-17 370 -140 1719 -588 937 -311 1710 -565 1717 -565 7 0 21 7 31 17 17 15 18
63 18 1125 l0 1108 1060 0 1060 0 0 -3882 0 -3881 -917 6 c-504 4 -3260 7
-6125 7 l-5208 0 0 1107 c0 1015 -1 1108 -17 1125 -9 10 -23 18 -32 18 -9 0
-779 -254 -1711 -565 -1266 -422 -1699 -570 -1712 -586 -17 -20 -18 -62 -18
-570 l0 -549 -867 0 c-478 0 -2103 -9 -3613 -20 -1510 -11 -2865 -20 -3012
-20 l-268 0 0 2780 c0 2641 1 2780 18 2780 9 0 67 5 127 10 383 35 744 160
1060 368 437 286 766 712 930 1204 64 192 115 463 115 610 l0 58 2785 0 2785
0 0 -1105 c0 -1092 0 -1105 20 -1125 11 -11 30 -20 41 -20 12 0 1035 508 2273
1129 1238 621 2257 1128 2264 1125 8 -2 1240 -4 2738 -4z m-4026 -7810 c0
-1188 -3 -2160 -8 -2160 -4 0 -734 242 -1622 538 l-1615 539 -3 1077 -2 1076
22 10 c28 12 3210 1079 3221 1079 4 1 7 -971 7 -2159z"/>
<path d="M3757 11243 c-4 -3 -7 -16 -7 -27 0 -12 178 -264 395 -561 217 -297
395 -543 395 -546 0 -3 -175 -212 -390 -463 -214 -251 -390 -464 -390 -472 0
-12 118 -14 902 -12 l902 3 88 230 c48 127 87 233 88 238 0 4 -7 7 -15 7 -8 0
-24 -19 -36 -42 -51 -100 -168 -191 -309 -242 -152 -55 -192 -58 -770 -63
-294 -2 -562 -3 -594 -1 l-60 3 383 448 c313 367 382 453 377 470 -4 12 -161
234 -351 492 l-345 470 443 3 c676 4 859 -19 1048 -133 65 -40 151 -128 176
-179 10 -22 24 -36 35 -36 10 0 18 1 18 3 0 2 -40 95 -88 207 l-88 205 -900 3
c-495 1 -904 -1 -907 -5z"/>
<path d="M24870 11005 c-18 -22 -1 -50 31 -50 20 0 24 5 24 30 0 23 -5 31 -21
33 -11 2 -27 -4 -34 -13z"/>
<path d="M23813 10980 c-60 -27 -86 -49 -43 -35 46 15 50 -4 50 -216 l0 -199
-32 -14 c-32 -14 -29 -14 62 -15 79 0 91 2 70 12 -14 6 -27 13 -30 15 -3 2 -7
111 -10 242 l-5 238 -62 -28z"/>
<path d="M24310 10991 c0 -6 8 -11 19 -11 38 0 42 -19 39 -240 l-3 -213 -35
-13 c-31 -12 -14 -13 140 -11 141 2 181 6 206 19 92 50 94 174 4 214 l-38 17
31 21 c79 53 61 164 -33 204 -45 19 -330 31 -330 13z m288 -41 c41 -25 56 -58
48 -105 -10 -53 -53 -76 -136 -73 l-65 3 -3 84 c-2 46 -1 90 2 98 9 22 114 17
154 -7z m-4 -224 c43 -18 66 -51 66 -96 0 -72 -48 -103 -151 -98 l-64 3 -3
103 -3 102 61 0 c33 0 76 -6 94 -14z"/>
<path d="M25101 10923 c-7 -18 -31 -49 -52 -68 -22 -19 -39 -37 -39 -40 0 -3
11 -5 25 -5 l25 0 0 -133 c0 -104 3 -137 16 -155 21 -30 73 -30 102 1 23 24
32 51 10 29 -17 -17 -55 -15 -62 4 -3 9 -6 69 -6 135 l0 119 41 0 c52 0 49 24
-4 28 l-36 3 -3 57 -3 57 -14 -32z"/>
<path d="M24858 10823 c-21 -8 -38 -19 -38 -25 0 -5 5 -6 10 -3 6 4 17 1 25
-5 12 -10 15 -39 15 -129 0 -121 -2 -131 -35 -149 -16 -9 -3 -11 65 -11 81 0
84 1 58 15 l-28 15 0 154 c0 174 2 169 -72 138z"/>
<path d="M24070 10670 l0 -30 95 0 95 0 0 30 0 30 -95 0 -95 0 0 -30z"/>
<path d="M23805 10030 c-93 -218 -116 -260 -143 -260 -7 0 -12 -4 -12 -10 0
-6 32 -10 77 -10 77 0 82 3 41 25 -26 13 -26 28 4 98 l20 47 95 0 94 0 19 -42
c35 -81 36 -96 4 -110 -28 -12 -28 -13 24 -16 29 -2 74 -2 100 0 46 3 46 4 20
15 -33 15 -49 47 -154 300 -43 106 -82 193 -85 193 -3 0 -50 -103 -104 -230z
m129 7 c20 -48 36 -89 36 -92 0 -3 -36 -5 -80 -5 -48 0 -80 4 -80 10 0 21 75
189 82 182 3 -4 22 -46 42 -95z"/>
<path d="M24927 10246 c-72 -27 -115 -65 -148 -132 -29 -58 -31 -70 -27 -136
3 -47 12 -88 26 -115 71 -137 260 -166 370 -56 59 59 53 76 -7 20 -57 -53
-102 -66 -169 -48 -98 26 -137 89 -137 222 0 71 5 93 25 134 37 71 68 90 145
90 77 0 107 -19 147 -91 l28 -49 0 41 c0 23 -3 62 -6 88 -7 46 -7 46 -25 27
-17 -18 -22 -19 -52 -6 -53 22 -127 27 -170 11z"/>
<path d="M24200 10241 c0 -6 8 -11 19 -11 38 0 42 -19 39 -240 l-3 -213 -35
-13 c-31 -11 -20 -13 106 -13 154 -1 210 10 273 53 56 39 83 96 89 182 4 65 1
80 -22 129 -29 58 -69 94 -126 114 -49 17 -340 28 -340 12z m315 -51 c73 -45
113 -168 86 -268 -15 -55 -73 -119 -120 -133 -20 -6 -61 -9 -91 -7 l-55 3 -3
212 -2 212 22 4 c46 10 128 -2 163 -23z"/>
<path d="M14329 11411 c-50 -54 -86 -150 -153 -417 -73 -293 -133 -579 -206
-987 -69 -390 -99 -521 -135 -603 -32 -73 -61 -104 -94 -104 -42 0 -54 13 -30
33 39 34 1 95 -48 76 -18 -6 -23 -16 -23 -43 0 -48 46 -86 103 -86 116 0 178
115 272 505 74 304 132 586 200 975 20 113 52 279 71 369 55 255 85 317 141
292 l26 -12 -21 -15 c-49 -34 -6 -103 47 -75 42 23 22 93 -34 117 -54 22 -75
17 -116 -25z"/>
<path d="M14740 3125 c-18 -22 -1 -50 31 -50 20 0 24 5 24 30 0 23 -5 31 -21
33 -11 2 -27 -4 -34 -13z"/>
<path d="M13693 3100 c-60 -27 -86 -49 -43 -35 46 15 50 -4 50 -216 l0 -199
-32 -14 c-32 -14 -29 -14 62 -15 79 0 91 2 70 12 -14 6 -27 13 -30 15 -3 2 -7
111 -10 242 l-5 238 -62 -28z"/>
<path d="M14180 3111 c0 -6 8 -11 19 -11 38 0 42 -19 39 -240 l-3 -213 -35
-13 c-31 -12 -14 -13 140 -11 141 2 181 6 206 19 92 50 94 174 4 214 l-38 17
31 21 c79 53 61 164 -33 204 -45 19 -330 31 -330 13z m288 -41 c41 -25 56 -58
48 -105 -10 -53 -53 -76 -136 -73 l-65 3 -3 84 c-2 46 -1 90 2 98 9 22 114 17
154 -7z m-4 -224 c43 -18 66 -51 66 -96 0 -72 -48 -103 -151 -98 l-64 3 -3
103 -3 102 61 0 c33 0 76 -6 94 -14z"/>
<path d="M14971 3043 c-7 -18 -31 -49 -52 -68 -22 -19 -39 -37 -39 -40 0 -3
11 -5 25 -5 l25 0 0 -133 c0 -104 3 -137 16 -155 21 -30 73 -30 102 1 23 24
32 51 10 29 -17 -17 -55 -15 -62 4 -3 9 -6 69 -6 135 l0 119 41 0 c52 0 49 24
-4 28 l-36 3 -3 57 -3 57 -14 -32z"/>
<path d="M14728 2943 c-21 -8 -38 -19 -38 -25 0 -5 5 -6 10 -3 6 4 17 1 25 -5
12 -10 15 -39 15 -129 0 -121 -2 -131 -35 -149 -16 -9 -3 -11 65 -11 81 0 84
1 58 15 l-28 15 0 154 c0 174 2 169 -72 138z"/>
<path d="M13940 2790 l0 -30 95 0 95 0 0 30 0 30 -95 0 -95 0 0 -30z"/>
<path d="M14225 2150 c-93 -218 -116 -260 -143 -260 -7 0 -12 -4 -12 -10 0 -6
32 -10 77 -10 77 0 82 3 41 25 -26 13 -26 28 4 98 l20 47 95 0 94 0 19 -42
c35 -81 36 -96 4 -110 -28 -12 -28 -13 24 -16 29 -2 74 -2 100 0 46 3 46 4 20
15 -33 15 -49 47 -154 300 -43 106 -82 193 -85 193 -3 0 -50 -103 -104 -230z
m129 7 c20 -48 36 -89 36 -92 0 -3 -36 -5 -80 -5 -48 0 -80 4 -80 10 0 21 75
189 82 182 3 -4 22 -46 42 -95z"/>
<path d="M14807 2366 c-72 -27 -115 -65 -148 -132 -29 -58 -31 -70 -27 -136 3
-47 12 -88 26 -115 71 -137 260 -166 370 -56 59 59 53 76 -7 20 -57 -53 -102
-66 -169 -48 -98 26 -137 89 -137 222 0 71 5 93 25 134 37 71 68 90 145 90 77
0 107 -19 147 -91 l28 -49 0 41 c0 23 -3 62 -6 88 -7 46 -7 46 -25 27 -17 -18
-22 -19 -52 -6 -53 22 -127 27 -170 11z"/>
<path d="M13540 2361 c0 -6 8 -11 19 -11 38 0 42 -19 39 -240 l-3 -213 -35
-13 c-31 -11 -20 -13 106 -13 154 -1 210 10 273 53 56 39 83 96 89 182 4 65 1
80 -22 129 -29 58 -69 94 -126 114 -49 17 -340 28 -340 12z m315 -51 c73 -45
113 -168 86 -268 -15 -55 -73 -119 -120 -133 -20 -6 -61 -9 -91 -7 l-55 3 -3
212 -2 212 22 4 c46 10 128 -2 163 -23z"/>
</g>
</svg>
