<?xml version="1.0" standalone="no"?>
<!DOCTYPE svg PUBLIC "-//W3C//DTD SVG 20010904//EN"
 "http://www.w3.org/TR/2001/REC-SVG-20010904/DTD/svg10.dtd">
<svg version="1.0" xmlns="http://www.w3.org/2000/svg"
 width="343.000000pt" height="251.000000pt" viewBox="0 0 343.000000 251.000000"
 preserveAspectRatio="xMidYMid meet">
<metadata>
Created by potrace 1.10, written by Peter Selinger 2001-2011
</metadata>
<g transform="translate(0.000000,251.000000) scale(0.100000,-0.100000)"
fill="#000000" stroke="none">
<path d="M1410 2503 c-8 -3 -24 -13 -35 -23 -11 -10 -32 -20 -46 -24 -15 -3
-43 -26 -64 -52 -37 -45 -38 -46 -84 -39 -25 4 -80 15 -121 26 -105 26 -124
25 -152 -11 -102 -133 -130 -160 -164 -160 -24 0 -34 -5 -34 -15 0 -8 -4 -15
-9 -15 -5 0 -50 -40 -100 -90 -54 -53 -100 -90 -112 -90 -11 0 -18 -4 -15 -8
3 -5 -10 -24 -29 -42 -19 -19 -35 -37 -35 -41 0 -4 -21 -43 -48 -86 -26 -43
-54 -91 -62 -108 -8 -16 -19 -33 -25 -37 -5 -4 -6 -8 -2 -8 5 0 0 -12 -11 -27
-23 -33 -62 -117 -62 -133 0 -7 -6 -26 -14 -43 -20 -44 -29 -145 -29 -327 -1
-163 9 -218 64 -362 l21 -57 -27 -27 c-15 -15 -66 -61 -114 -102 -47 -41 -90
-78 -94 -82 -5 -4 1 -28 12 -53 12 -25 21 -48 21 -51 0 -3 34 -68 75 -143 41
-76 89 -168 107 -205 17 -38 37 -68 45 -68 23 0 66 33 155 119 81 77 87 86 81
115 -3 17 -14 42 -23 56 -40 59 -27 61 32 5 71 -68 174 -150 209 -165 13 -6
38 -18 54 -28 38 -23 125 -40 245 -48 79 -5 98 -3 108 9 23 27 -22 47 -105 47
-40 0 -94 7 -120 16 -70 23 -192 82 -233 113 -67 49 -150 124 -176 158 l-26
34 25 32 c29 38 55 67 108 124 49 52 60 81 53 135 -6 44 -24 72 -57 90 -21 11
-54 -17 -81 -70 -24 -47 -107 -130 -137 -137 -25 -6 -29 -2 -54 52 -58 127
-105 247 -105 271 0 10 -6 24 -13 31 -9 9 -12 59 -12 184 1 147 4 184 24 257
12 47 25 95 28 108 3 12 9 22 14 22 4 0 7 8 7 18 -1 20 20 69 61 137 16 28 48
85 71 129 49 95 109 175 131 176 9 0 50 33 91 73 41 41 97 89 124 107 45 31
56 34 139 37 112 5 127 -3 102 -50 -16 -30 -17 -39 -6 -75 17 -58 48 -84 107
-90 59 -5 113 19 186 84 51 46 52 47 129 44 43 -1 53 3 100 42 75 64 98 78
127 78 39 0 412 -125 464 -155 25 -15 81 -61 124 -104 93 -91 155 -141 174
-141 8 0 60 11 114 24 54 14 119 28 144 31 59 8 206 50 300 84 107 40 143 51
168 51 23 0 150 47 166 61 22 20 -59 7 -158 -26 -59 -19 -118 -35 -131 -35
-13 0 -36 -5 -52 -11 -185 -73 -321 -107 -494 -125 -53 -5 -68 -3 -81 10 -9 9
-21 16 -27 16 -6 0 -11 4 -11 8 0 5 -21 20 -47 35 -27 14 -64 42 -83 62 -51
54 -150 115 -224 140 -157 52 -305 96 -388 116 -111 27 -120 40 -68 89 46 43
39 74 -27 118 -31 22 -54 26 -83 15z"/>
<path d="M1210 1871 c-66 -7 -52 -24 18 -20 26 1 63 -1 82 -5 69 -15 170 -59
200 -89 17 -16 32 -28 34 -26 8 10 16 60 8 55 -4 -2 -21 6 -37 20 -16 13 -40
27 -54 30 -14 4 -55 15 -90 25 -35 10 -73 18 -85 17 -11 -1 -46 -4 -76 -7z"/>
<path d="M1040 1860 c-8 -5 -24 -10 -35 -10 -11 0 -33 -7 -49 -15 -15 -8 -42
-15 -60 -15 -33 0 -79 -26 -100 -56 -22 -31 -37 -120 -26 -149 6 -15 10 -30
10 -34 0 -4 -39 -25 -87 -47 -49 -21 -109 -52 -135 -69 -26 -16 -62 -39 -80
-50 -36 -22 -48 -53 -26 -66 7 -5 81 -9 165 -9 139 0 152 -2 158 -19 7 -24 -1
-89 -14 -104 -17 -22 -14 -109 6 -162 15 -40 24 -50 41 -49 17 0 24 -8 32 -35
5 -20 10 -43 10 -52 0 -9 23 -47 50 -85 28 -38 50 -72 50 -75 0 -4 20 -20 45
-36 25 -15 45 -31 45 -34 0 -4 20 -13 43 -20 26 -7 48 -21 53 -33 12 -26 34
-32 35 -9 0 16 1 16 9 -2 7 -16 9 -16 9 -4 1 18 21 29 50 29 10 0 38 10 62 23
24 13 71 34 104 47 71 28 123 70 147 117 17 34 60 162 72 216 6 24 11 27 45
27 27 0 41 5 45 16 11 28 -17 137 -41 164 -27 29 -28 34 -7 54 15 15 47 20
105 16 61 -3 179 70 206 129 6 14 14 58 18 97 11 107 -8 133 -155 212 -34 19
-66 26 -132 30 -62 3 -88 1 -88 -7 0 -6 17 -11 41 -11 45 0 129 -18 143 -31 6
-5 18 -9 28 -9 23 0 85 -39 117 -74 30 -32 33 -96 7 -171 -22 -66 -32 -76 -91
-105 -58 -28 -122 -31 -233 -11 -77 13 -93 11 -73 -13 10 -12 8 -16 -7 -20
-29 -10 -33 -42 -10 -63 39 -34 58 -92 58 -179 0 -52 -5 -87 -13 -99 -13 -17
-18 -16 -90 20 -43 21 -77 42 -77 46 0 4 -7 15 -16 23 -14 15 -13 17 11 26 14
5 30 10 35 10 14 0 28 67 32 150 l3 74 -45 8 c-25 4 -83 5 -130 0 -47 -4 -110
-6 -140 -4 -30 1 -107 5 -170 7 -63 3 -137 9 -163 15 -26 5 -73 10 -103 10
-39 0 -53 3 -48 11 5 9 92 10 333 4 449 -11 441 -11 441 0 0 6 -29 12 -64 15
-80 6 -93 17 -29 25 49 6 123 33 123 45 0 3 16 12 35 19 19 7 42 19 50 27 17
17 19 96 5 129 -8 16 -9 11 -8 -20 4 -96 2 -99 -49 -114 -27 -7 -79 -24 -118
-37 -101 -34 -182 -45 -289 -40 -52 2 -96 1 -98 -3 -2 -4 -40 -5 -84 -3 l-82
4 -6 30 c-3 17 -6 45 -6 62 0 17 -6 40 -14 51 -19 28 -30 84 -18 98 5 7 12 23
15 37 8 35 48 47 180 55 78 6 107 11 107 20 0 8 -8 15 -17 18 -12 2 -7 7 16
13 54 15 51 34 -6 34 -26 0 -55 -5 -63 -10z m-243 -406 c-2 -3 -40 -4 -83 -2
l-79 3 75 37 75 37 9 -35 c4 -19 6 -37 3 -40z m361 -126 c69 1 72 0 72 -23 0
-25 -17 -35 -61 -35 -39 0 -69 16 -69 37 0 13 -10 15 -62 11 -35 -3 -81 -14
-102 -24 -44 -21 -69 -54 -48 -61 22 -8 13 -23 -14 -23 -26 0 -27 1 -21 51 10
79 14 82 132 74 55 -4 133 -7 173 -7z m196 3 c7 -11 -38 -31 -69 -31 -27 0
-28 1 -19 24 7 17 78 23 88 7z m318 -98 c9 -16 19 -47 23 -70 6 -37 4 -42 -15
-48 -31 -10 -50 13 -61 71 -8 41 -7 51 8 62 23 17 27 16 45 -15z m-464 -33 c4
-43 24 -67 63 -75 16 -4 29 -10 29 -14 0 -9 -38 -41 -50 -41 -6 0 -10 -4 -10
-10 0 -15 -33 -12 -68 6 -26 12 -32 22 -32 47 l-1 32 -19 -36 c-23 -43 -110
-109 -144 -109 -14 0 -38 -13 -56 -31 -17 -17 -32 -30 -34 -28 -10 12 -46 171
-46 202 0 29 4 37 18 37 14 0 20 -12 28 -52 7 -41 14 -54 29 -57 11 -2 22 -7
25 -12 3 -5 22 -11 43 -14 33 -6 41 -2 77 32 25 25 45 56 54 87 16 52 40 77
71 73 15 -1 21 -11 23 -37z m-401 -107 c-3 -10 -5 -2 -5 17 0 19 2 27 5 18 2
-10 2 -26 0 -35z m690 -110 c45 -49 49 -58 34 -68 -5 -3 -22 13 -38 34 -22 32
-33 39 -50 34 -23 -5 -28 3 -17 31 10 26 26 19 71 -31z m-237 -39 c-53 -25
-115 -38 -131 -28 -5 3 -6 11 -3 19 4 8 10 12 15 9 5 -3 9 -1 9 5 0 5 26 12
58 14 31 2 68 4 82 5 17 1 7 -7 -30 -24z m229 -30 c23 -38 21 -70 -3 -61 -8 3
-32 -15 -57 -44 -24 -27 -50 -49 -56 -49 -16 0 -17 26 -2 35 6 4 8 23 6 42 -6
39 9 51 41 34 30 -16 51 12 28 37 -9 10 -16 29 -16 41 0 18 3 20 19 12 10 -6
28 -27 40 -47z m-505 24 c-4 -7 -11 -28 -15 -48 l-7 -35 -1 41 c-1 40 4 54 21
54 5 0 6 -5 2 -12z m54 -22 c-10 -7 -27 -33 -38 -57 -20 -45 -26 -33 -14 29 6
29 18 39 54 41 12 0 12 -2 -2 -13z m196 -20 c97 19 101 17 26 -12 -36 -14 -78
-24 -95 -22 -19 1 -29 -2 -28 -9 2 -7 5 -28 7 -47 5 -39 25 -83 26 -55 0 8 -5
20 -12 27 -9 9 -9 12 -1 12 7 0 15 -5 18 -11 4 -6 13 -8 21 -5 8 3 14 1 14 -5
0 -19 -31 -41 -50 -36 -11 3 -20 0 -20 -6 -1 -30 -20 22 -20 53 0 32 -1 33
-17 17 -15 -14 -15 -20 -3 -42 14 -26 7 -46 -11 -28 -18 18 -14 74 8 92 28 23
36 50 18 67 -26 27 -16 37 16 16 29 -18 35 -18 103 -6z m-184 -97 c0 -18 -4
-28 -10 -24 -5 3 -10 20 -10 36 0 18 4 28 10 24 6 -3 10 -20 10 -36z m237 -14
c-2 -19 -11 -43 -22 -55 -27 -29 -40 -25 -16 6 12 15 21 40 21 55 0 16 4 29
10 29 5 0 8 -16 7 -35z"/>
<path d="M1181 1801 c-23 -15 1 -19 109 -21 129 -2 126 -2 114 10 -14 14 -204
23 -223 11z"/>
<path d="M1578 1783 c6 -2 18 -2 25 0 6 3 1 5 -13 5 -14 0 -19 -2 -12 -5z"/>
<path d="M3295 1123 c-33 -8 -87 -18 -120 -23 -33 -5 -89 -16 -125 -25 -36 -9
-83 -20 -105 -25 -22 -4 -73 -20 -113 -34 -41 -14 -90 -26 -110 -26 -21 -1
-62 -9 -92 -20 -36 -12 -58 -15 -65 -9 -5 5 -14 42 -20 81 -5 39 -15 73 -22
75 -6 2 -20 -6 -31 -17 -13 -15 -27 -20 -40 -16 -23 8 -88 -59 -147 -151 -21
-35 -48 -66 -59 -69 -12 -4 -24 -11 -27 -16 -7 -11 -86 -12 -209 -3 l-95 7
-26 -29 c-15 -17 -29 -48 -33 -73 -4 -24 -14 -59 -23 -77 -22 -48 -13 -59 56
-67 35 -4 59 -11 56 -17 -4 -5 11 -9 34 -9 23 0 41 5 41 10 0 6 11 10 25 10
26 0 27 -11 9 -68 -2 -7 1 -10 6 -7 6 3 10 -2 10 -12 0 -11 6 -25 13 -32 9
-11 7 -10 -10 0 -13 8 -23 17 -23 21 0 5 -8 8 -17 7 -11 0 -13 -3 -5 -6 6 -2
12 -9 12 -14 0 -6 -4 -8 -9 -5 -5 4 -5 -9 -1 -31 5 -20 14 -39 20 -43 19 -12
2 -47 -39 -80 -22 -16 -41 -30 -44 -30 -3 0 -28 -14 -55 -31 -61 -38 -187 -80
-357 -121 -104 -25 -153 -32 -245 -32 -63 -1 -122 1 -130 4 -11 4 -16 -5 -18
-34 l-3 -38 63 7 c35 4 72 11 84 15 12 5 72 16 135 24 171 24 332 62 431 101
15 6 16 2 11 -28 -12 -77 69 -120 116 -61 12 15 21 35 21 46 0 26 21 64 86
155 76 106 83 113 116 113 35 0 66 30 122 120 24 38 49 66 65 71 22 8 91 95
91 115 0 3 9 17 20 31 24 31 27 68 5 60 -26 -10 -26 10 0 41 16 19 44 35 82
46 32 10 83 25 113 35 30 10 84 24 120 31 36 6 85 18 110 26 88 28 229 64 249
64 11 0 22 4 25 9 3 5 18 11 33 14 16 2 54 12 85 21 32 8 64 13 73 10 10 -4
15 0 15 10 0 20 -49 20 -135 -1z"/>
</g>
</svg>
