<?xml version="1.0" standalone="no"?>
<!DOCTYPE svg PUBLIC "-//W3C//DTD SVG 20010904//EN"
 "http://www.w3.org/TR/2001/REC-SVG-20010904/DTD/svg10.dtd">
<svg version="1.0" xmlns="http://www.w3.org/2000/svg"
 width="3008.000000pt" height="1984.000000pt" viewBox="0 0 3008.000000 1984.000000"
 preserveAspectRatio="xMidYMid meet">
<metadata>
Created by potrace 1.10, written by Peter Selinger 2001-2011
</metadata>
<g transform="translate(0.000000,1984.000000) scale(0.100000,-0.100000)"
fill="#000000" stroke="none">
<path d="M14945 19245 c-93 -19 -184 -34 -201 -35 -32 0 -44 -11 -138 -127
-23 -27 -47 -74 -86 -168 -27 -64 -30 -103 -28 -408 1 -177 2 -364 2 -414 1
-77 -1 -93 -14 -93 -8 0 -80 -36 -159 -79 -154 -84 -166 -87 -190 -34 -6 13
-18 26 -26 29 -9 4 -22 21 -29 39 -44 104 -234 129 -253 33 -3 -17 -15 -31
-32 -38 -14 -5 -44 -23 -66 -40 -22 -16 -47 -29 -56 -30 -25 0 -44 -27 -30
-43 6 -8 8 -17 4 -20 -13 -14 26 -42 121 -86 l99 -47 -159 -83 c-88 -47 -256
-134 -374 -196 -118 -61 -273 -143 -345 -182 -356 -192 -458 -245 -483 -248
-15 -1 -45 6 -67 18 -22 11 -40 18 -41 16 0 -2 -16 4 -35 13 -76 39 -384 178
-393 178 -9 0 -106 44 -191 88 -38 20 -66 26 -128 28 -73 2 -83 0 -160 -38
-45 -23 -131 -69 -192 -103 -60 -34 -126 -69 -145 -79 -19 -10 -57 -30 -85
-44 -164 -88 -231 -121 -239 -121 -5 0 -12 -3 -15 -8 -5 -8 -128 -78 -213
-121 -33 -16 -47 -12 -123 33 -32 19 -72 38 -88 41 -17 3 -45 11 -62 19 -39
17 -135 29 -135 16 0 -5 10 -11 22 -13 12 -2 23 -9 26 -17 3 -9 0 -11 -9 -6
-8 4 1 -6 20 -22 30 -25 32 -32 22 -50 -6 -12 -11 -38 -11 -59 0 -31 2 -35 15
-24 17 14 20 40 5 40 -17 0 -11 28 8 39 14 8 15 14 6 28 -9 15 -9 23 1 37 12
15 18 16 48 7 l33 -11 0 -74 c-1 -41 -4 -72 -8 -69 -16 9 -7 -20 10 -33 13
-10 4 -10 -40 2 -76 19 -112 25 -183 30 -107 8 -102 4 -110 89 -4 43 -13 79
-21 86 -8 6 -14 8 -14 4 0 -4 -6 -2 -14 4 -8 7 -25 14 -37 16 -42 8 -224 -61
-272 -103 -9 -8 -19 -13 -22 -10 -3 3 -14 36 -24 74 -11 38 -35 123 -54 189
-19 66 -37 129 -40 140 -8 32 -105 363 -128 440 -24 80 -55 123 -90 123 -19 0
-28 -10 -46 -52 -48 -112 -82 -205 -87 -241 -4 -20 -17 -81 -31 -134 -14 -57
-27 -144 -31 -213 -4 -65 -10 -118 -14 -118 -6 0 -27 -373 -36 -635 -2 -55 -6
-125 -8 -155 -3 -30 -8 -131 -11 -225 -3 -93 -8 -210 -10 -260 -2 -49 -7 -146
-10 -215 -6 -146 -10 -213 -31 -610 -16 -296 -21 -668 -10 -790 3 -36 8 -110
11 -165 5 -96 8 -117 21 -167 3 -13 7 -30 8 -38 11 -59 66 -233 77 -240 7 -5
36 -79 44 -111 5 -26 136 -278 146 -285 10 -6 100 -134 135 -190 29 -49 65
-84 84 -84 10 0 77 25 151 56 314 131 446 187 473 200 16 8 34 14 40 14 6 0
65 23 131 51 66 28 154 64 195 81 67 27 160 66 245 103 221 97 340 145 356
145 29 0 201 -80 222 -103 20 -23 22 -101 7 -327 -10 -154 -25 -445 -36 -675
-3 -84 -2 -150 4 -165 10 -27 51 -48 417 -214 l160 -73 -1 -221 c-1 -170 -4
-225 -15 -238 -7 -9 -36 -26 -65 -39 -28 -12 -53 -29 -56 -36 -3 -8 -6 -65 -7
-128 -3 -149 -9 -211 -20 -225 -5 -6 -45 -29 -88 -51 -43 -22 -80 -42 -83 -45
-3 -3 -61 -34 -130 -69 -69 -35 -142 -75 -162 -88 -21 -13 -38 -21 -38 -18 0
3 -18 -6 -39 -19 -21 -14 -61 -36 -87 -50 -27 -13 -80 -40 -117 -60 l-68 -35
-57 26 c-106 50 -304 139 -342 155 -14 5 -47 20 -75 33 -27 12 -93 42 -145 65
-117 52 -196 88 -235 107 -16 9 -88 41 -160 73 -71 32 -166 74 -210 95 -44 20
-99 45 -122 56 -24 10 -62 28 -86 39 -24 11 -49 20 -56 20 -7 0 -40 13 -74 29
-34 16 -100 45 -147 66 -47 21 -155 69 -240 108 -85 39 -184 84 -220 100 -36
16 -78 35 -95 43 -71 32 -304 138 -355 161 -30 13 -77 35 -105 48 -27 12 -84
39 -125 58 -41 19 -95 44 -120 55 -25 11 -84 38 -132 60 -49 23 -88 39 -88 37
0 -2 -28 10 -62 27 -35 17 -85 39 -113 50 -27 11 -55 23 -60 28 -6 5 -37 18
-70 30 -76 27 -33 8 -515 227 -30 13 -77 35 -105 48 -27 13 -117 54 -200 90
-82 37 -166 76 -185 85 -19 10 -75 35 -125 55 -49 20 -126 54 -170 75 -44 21
-123 57 -175 80 -52 23 -120 53 -150 67 -65 31 -157 73 -220 101 -25 11 -85
39 -134 61 -49 23 -95 41 -104 41 -8 0 -35 11 -61 24 -62 32 -384 179 -446
204 -28 11 -86 37 -130 57 -44 20 -105 48 -135 62 -30 14 -83 38 -116 54 -34
16 -66 29 -72 29 -6 0 -34 -14 -63 -30 -28 -17 -73 -42 -100 -55 l-49 -25 11
27 c6 16 23 55 39 88 82 170 146 309 181 389 22 48 53 113 68 145 16 31 38 76
49 101 61 137 145 318 158 337 8 12 14 33 14 46 0 26 -42 68 -68 69 -24 1
-224 -109 -245 -135 -10 -12 -16 -16 -12 -9 8 15 0 15 -26 1 -11 -5 -16 -15
-13 -21 4 -7 3 -8 -4 -4 -7 4 -20 2 -29 -4 -17 -11 -17 -11 0 -6 27 8 20 -2
-13 -19 -37 -19 -49 -19 -24 0 10 9 0 6 -23 -6 -24 -11 -40 -25 -37 -30 3 -5
-3 -6 -12 -2 -11 4 -15 2 -11 -4 4 -6 0 -14 -9 -17 -10 -4 -13 -2 -9 7 4 6 -1
3 -9 -7 -9 -11 -16 -14 -16 -7 0 7 -5 9 -10 6 -6 -4 -7 -11 -4 -17 4 -7 2 -8
-4 -4 -15 9 -55 -18 -44 -29 4 -4 -3 -2 -15 4 -19 9 -22 9 -17 -3 3 -8 0 -17
-7 -22 -8 -4 -10 -3 -5 4 5 8 2 10 -8 6 -9 -3 -13 -10 -10 -15 3 -5 -3 -6 -12
-2 -13 5 -15 3 -9 -7 5 -9 4 -11 -3 -6 -17 10 -54 -12 -45 -27 4 -7 -2 -5 -12
3 -17 14 -18 13 -12 -2 4 -13 2 -15 -10 -11 -12 5 -14 3 -8 -7 5 -8 4 -11 -3
-6 -16 9 -101 -36 -102 -54 0 -13 -1 -13 -10 0 -9 13 -14 7 -11 -12 0 -4 -7
-4 -16 -1 -11 4 -14 3 -9 -5 5 -8 1 -10 -10 -5 -12 4 -15 3 -10 -5 5 -8 1 -10
-10 -5 -11 4 -15 2 -11 -4 4 -6 -1 -10 -11 -9 -9 0 -16 -4 -15 -10 1 -6 -8
-10 -20 -10 -12 1 -21 -4 -20 -11 2 -8 -4 -10 -14 -6 -12 5 -14 3 -8 -7 5 -8
4 -11 -3 -7 -15 10 -43 -3 -35 -16 4 -6 0 -8 -11 -4 -9 4 -14 3 -11 -2 3 -5 1
-12 -5 -16 -5 -3 -10 -1 -10 5 0 8 -6 8 -20 0 -11 -6 -18 -15 -15 -20 3 -6 0
-7 -8 -4 -8 3 -18 1 -21 -5 -4 -6 -14 -7 -23 -4 -11 4 -14 3 -9 -5 4 -8 2 -10
-8 -6 -18 7 -79 -24 -71 -36 4 -6 -1 -7 -11 -3 -12 4 -15 3 -10 -5 5 -8 1 -10
-10 -5 -12 4 -15 3 -10 -5 5 -8 1 -10 -10 -5 -13 5 -15 3 -9 -7 5 -9 4 -11 -3
-6 -16 10 -74 -22 -66 -36 5 -7 3 -8 -5 -4 -7 5 -19 0 -27 -10 -9 -11 -13 -13
-9 -6 5 10 1 10 -19 1 -14 -7 -23 -16 -19 -22 3 -6 1 -7 -5 -3 -16 10 -54 -12
-46 -26 5 -7 2 -8 -5 -4 -7 5 -19 0 -27 -10 -9 -11 -13 -13 -9 -6 5 10 1 10
-19 1 -14 -7 -23 -16 -19 -22 3 -6 1 -7 -5 -3 -15 9 -54 -12 -47 -24 4 -6 -1
-7 -11 -3 -13 5 -15 3 -9 -7 5 -8 4 -11 -3 -6 -13 8 -63 -14 -56 -25 3 -5 -3
-6 -12 -2 -12 4 -15 3 -10 -5 4 -8 2 -10 -8 -6 -8 3 -19 -3 -25 -15 -7 -13
-17 -18 -28 -14 -12 5 -14 3 -8 -7 5 -9 4 -11 -3 -6 -16 9 -113 -44 -105 -57
3 -6 1 -7 -5 -4 -14 9 -43 -3 -36 -14 3 -5 -3 -6 -12 -2 -13 5 -15 3 -9 -8 7
-11 5 -11 -10 1 -17 13 -18 13 -13 -1 4 -11 0 -15 -15 -15 -12 1 -22 -4 -22
-11 0 -6 -4 -15 -9 -20 -5 -5 -6 -2 -1 6 5 9 3 12 -6 9 -8 -3 -13 -10 -12 -16
2 -7 -4 -9 -14 -5 -11 4 -14 3 -9 -5 5 -8 1 -10 -10 -5 -13 5 -15 3 -9 -8 7
-11 5 -11 -10 1 -17 14 -18 13 -12 -2 4 -13 2 -15 -10 -11 -12 5 -14 3 -8 -7
5 -7 4 -11 -1 -8 -15 9 -56 -11 -48 -23 4 -7 3 -9 -4 -6 -12 8 -44 -2 -38 -12
3 -4 -10 -14 -27 -24 l-32 -17 24 20 c28 24 20 26 -14 4 -14 -9 -22 -21 -18
-27 3 -5 1 -7 -5 -4 -13 9 -44 -2 -37 -13 2 -4 -8 -12 -23 -19 -25 -11 -26
-10 -8 4 11 8 16 15 10 15 -16 -1 -44 -27 -37 -34 4 -4 -1 -4 -11 0 -13 5 -17
4 -13 -3 4 -6 -1 -10 -11 -9 -9 0 -16 -4 -15 -10 1 -7 -5 -10 -15 -8 -9 2 -24
-2 -33 -9 -17 -13 -43 -56 -44 -72 0 -16 -48 -109 -59 -117 -6 -4 -11 -11 -11
-15 -1 -4 -18 -41 -38 -80 -21 -40 -35 -73 -31 -73 3 0 -4 -13 -15 -29 -12
-16 -21 -32 -21 -35 0 -10 -66 -151 -116 -248 -24 -48 -44 -90 -44 -93 1 -20
-1 -25 -11 -25 -7 0 -32 -10 -56 -22 -34 -17 -41 -25 -31 -33 7 -5 14 -17 15
-25 1 -8 6 -30 12 -48 5 -18 6 -30 1 -27 -12 8 -48 -65 -45 -92 1 -12 -2 -20
-6 -18 -7 5 -51 -60 -55 -82 -1 -7 -16 -38 -33 -69 -17 -32 -31 -63 -31 -70 0
-12 -58 -46 -255 -149 -49 -25 -94 -50 -98 -54 -10 -10 -12 -278 -3 -308 6
-19 32 -35 131 -78 17 -7 104 -47 194 -89 90 -42 175 -76 188 -76 12 0 23 -3
23 -7 0 -5 21 -17 48 -27 26 -11 84 -37 130 -58 46 -21 86 -38 89 -38 3 0 24
-9 47 -19 23 -11 82 -38 131 -59 50 -22 131 -59 180 -82 50 -23 185 -85 300
-137 116 -53 257 -117 313 -144 57 -27 106 -49 108 -49 3 0 44 -18 92 -41 72
-34 256 -117 387 -174 17 -7 55 -25 86 -39 31 -15 80 -33 108 -42 29 -8 82
-30 119 -48 92 -45 151 -73 332 -154 85 -38 184 -83 220 -100 36 -17 142 -65
235 -107 94 -42 179 -82 190 -89 11 -7 47 -23 80 -35 87 -34 110 -44 318 -140
200 -93 509 -231 516 -231 8 0 45 -16 191 -83 177 -80 381 -172 420 -187 25
-10 63 -27 85 -38 22 -11 56 -27 75 -35 19 -9 84 -38 144 -66 59 -28 114 -51
120 -51 7 0 16 -4 21 -9 6 -5 80 -41 165 -79 85 -38 190 -86 232 -106 42 -20
79 -36 81 -36 3 0 56 -24 118 -54 63 -29 152 -70 199 -91 47 -21 96 -45 110
-54 13 -9 25 -15 27 -13 7 6 62 -12 121 -39 35 -16 65 -29 67 -29 5 0 85 -37
230 -105 55 -26 127 -58 160 -72 61 -26 160 -71 270 -123 140 -66 257 -120
261 -120 4 0 78 -34 226 -104 42 -20 81 -36 86 -36 5 0 78 -32 163 -71 331
-153 501 -229 511 -229 8 0 297 -129 616 -276 45 -21 82 -42 82 -47 0 -4 -22
-18 -50 -30 l-50 -22 -1 -90 c0 -49 -2 -101 -5 -113 -6 -34 27 -75 83 -99 26
-12 79 -36 116 -52 38 -17 70 -31 73 -31 2 0 31 -13 65 -30 83 -40 254 -114
310 -134 55 -20 76 -42 74 -76 -1 -14 -2 -44 -3 -68 -2 -40 -5 -44 -44 -63
-24 -11 -74 -38 -113 -59 -38 -22 -95 -52 -125 -66 -30 -14 -57 -30 -60 -34
-3 -4 -30 -20 -60 -34 -30 -15 -66 -33 -80 -41 -14 -8 -43 -23 -65 -33 -50
-23 -244 -126 -306 -162 -25 -15 -81 -44 -125 -65 -43 -21 -81 -41 -84 -45 -3
-4 -31 -21 -63 -36 -241 -120 -274 -137 -362 -183 -38 -21 -81 -44 -95 -51
-14 -7 -32 -17 -40 -22 -8 -4 -31 -16 -50 -26 -19 -9 -38 -21 -42 -27 -4 -5
-8 -7 -8 -2 0 4 -12 0 -27 -10 -32 -21 -107 -61 -183 -98 -30 -15 -62 -31 -70
-36 -8 -5 -35 -18 -60 -30 -24 -11 -47 -23 -50 -27 -10 -13 -70 -43 -70 -35 0
4 -4 4 -8 -2 -7 -10 -25 -20 -152 -88 -41 -21 -81 -44 -87 -49 -7 -6 -13 -8
-13 -5 0 4 -15 -4 -33 -16 -19 -12 -78 -44 -133 -72 -54 -27 -101 -53 -104
-57 -3 -4 -30 -19 -60 -33 -30 -14 -84 -42 -120 -61 -106 -59 -214 -114 -223
-114 -4 0 -65 -31 -135 -69 -70 -38 -139 -73 -154 -76 -16 -4 -28 -10 -28 -14
0 -8 -46 -33 -68 -37 -8 -1 -21 -9 -30 -17 -10 -9 -44 -29 -77 -46 -127 -64
-162 -83 -230 -120 -38 -21 -99 -54 -135 -73 -36 -19 -90 -49 -120 -65 -30
-17 -95 -52 -145 -78 -49 -27 -126 -68 -170 -92 -44 -24 -107 -57 -140 -73
-74 -37 -145 -76 -206 -113 -25 -15 -54 -27 -64 -27 -9 0 -56 -21 -104 -47
-47 -26 -129 -70 -182 -98 -52 -27 -113 -60 -135 -71 -21 -12 -43 -23 -49 -24
-5 -1 -21 -10 -35 -20 -14 -10 -47 -29 -75 -42 -27 -14 -93 -49 -145 -78 -52
-29 -178 -96 -280 -150 -102 -54 -223 -119 -270 -144 -47 -26 -110 -58 -140
-72 -30 -13 -62 -29 -70 -34 -8 -6 -29 -17 -47 -25 -30 -14 -35 -13 -170 49
-76 34 -154 70 -173 78 -19 9 -168 77 -330 151 -430 197 -430 197 -439 197 -5
0 -20 9 -34 20 l-25 20 -30 -97 c-17 -54 -47 -156 -68 -228 -21 -71 -41 -132
-44 -135 -6 -4 -28 -75 -110 -345 -25 -81 -104 -350 -133 -455 l-24 -85 -79
-42 c-44 -23 -104 -54 -134 -68 -30 -14 -57 -30 -60 -34 -3 -5 -27 -19 -55
-31 -27 -12 -84 -38 -126 -58 l-77 -35 -1 -124 c-3 -195 -6 -188 108 -240 53
-24 132 -62 176 -82 44 -21 118 -55 165 -75 47 -20 93 -42 103 -47 10 -6 85
-39 165 -75 81 -36 150 -70 154 -77 3 -6 2 -20 -4 -30 -6 -11 -8 -46 -6 -77 6
-81 40 -124 115 -146 31 -9 94 -32 140 -50 91 -37 122 -35 124 9 6 106 8 130
12 133 2 3 33 -9 68 -25 35 -16 118 -54 184 -84 66 -30 140 -64 165 -75 25
-11 94 -43 153 -71 60 -28 111 -51 113 -51 3 0 57 -25 120 -56 98 -47 115 -59
112 -77 -2 -17 7 -27 47 -46 52 -26 115 -88 119 -118 4 -28 51 -55 105 -61 62
-6 91 1 128 31 15 13 33 22 38 22 6 -1 41 -16 79 -33 38 -18 70 -32 72 -32 2
0 41 -17 86 -39 249 -116 327 -151 337 -151 12 0 143 -57 266 -115 169 -80
308 -138 345 -142 25 -3 50 4 87 24 29 15 96 51 150 79 54 28 134 71 178 96
44 24 100 52 125 62 24 9 92 44 150 76 58 31 161 87 230 122 69 36 143 76 165
89 22 12 108 57 190 99 83 42 272 142 420 222 265 142 515 275 545 288 63 28
156 76 275 141 77 41 178 94 225 117 47 23 112 57 145 75 33 18 119 64 190
101 148 78 246 131 290 156 17 10 77 42 135 73 58 30 175 93 261 140 87 46
172 91 190 98 67 27 380 189 709 366 184 99 378 203 430 230 52 28 175 93 273
146 97 52 177 93 177 91 0 -2 28 13 63 32 61 34 96 51 187 93 25 11 83 41 130
66 47 26 130 70 185 99 155 83 309 167 320 176 6 4 57 32 115 63 58 30 151 79
207 110 56 31 146 78 201 106 107 53 215 110 322 170 63 36 180 94 230 115 21
9 527 279 595 318 49 28 203 109 350 184 107 54 164 89 172 105 19 35 17 236
-2 272 -14 27 -14 28 8 22 12 -4 31 -9 42 -12 11 -2 47 -18 80 -33 33 -16 159
-74 280 -129 121 -54 261 -118 310 -141 54 -25 103 -42 123 -42 18 1 71 22
118 46 l86 45 24 -28 c13 -16 24 -35 24 -42 0 -7 3 -10 6 -6 4 3 20 -1 36 -9
24 -13 56 -14 176 -10 81 4 175 11 210 17 72 11 78 10 182 -39 138 -63 205
-94 455 -207 33 -15 103 -47 155 -72 52 -25 111 -51 130 -58 19 -7 63 -27 98
-44 34 -17 66 -31 71 -31 5 0 66 -27 136 -60 70 -33 132 -60 140 -60 7 0 53
-18 102 -41 48 -22 102 -46 118 -54 17 -7 64 -29 105 -48 41 -19 104 -47 140
-62 36 -15 70 -30 75 -35 6 -4 69 -33 140 -65 72 -32 177 -80 233 -106 57 -27
106 -49 108 -49 2 0 32 -13 66 -30 34 -16 65 -30 70 -30 5 0 59 -24 121 -53
62 -29 166 -77 232 -106 66 -30 150 -69 188 -87 37 -18 69 -34 72 -34 3 0 35
-14 72 -31 127 -58 175 -79 185 -79 9 0 226 -96 443 -195 39 -18 124 -56 190
-84 188 -83 315 -141 550 -251 50 -23 110 -50 135 -60 25 -10 83 -36 130 -58
206 -96 396 -184 405 -186 6 -1 33 -13 60 -26 114 -52 133 -60 148 -60 9 0 55
-18 102 -40 47 -22 88 -40 90 -40 2 0 46 -20 97 -44 131 -61 192 -89 368 -168
85 -39 160 -73 165 -77 6 -4 28 -15 50 -23 22 -9 78 -34 125 -56 47 -21 141
-64 210 -95 292 -129 417 -185 590 -264 30 -13 64 -29 75 -33 11 -5 50 -23 87
-39 37 -17 76 -31 88 -31 11 0 20 -4 20 -10 0 -5 5 -10 11 -10 10 0 84 -32
249 -108 36 -16 117 -53 180 -82 63 -29 142 -65 175 -80 33 -15 71 -31 85 -35
14 -4 66 -27 115 -50 133 -63 226 -105 230 -105 2 0 51 -23 110 -50 58 -28
215 -100 348 -160 133 -60 260 -117 282 -128 80 -39 203 -92 212 -92 11 0 196
-77 286 -119 180 -85 199 -91 237 -74 48 20 71 32 95 46 58 36 257 138 300
155 28 11 86 40 130 65 44 24 130 70 190 102 61 32 134 71 163 87 59 33 55 38
52 -65 -2 -78 18 -111 63 -102 18 4 46 15 62 24 37 21 130 57 170 66 76 17
135 155 85 200 -10 9 -19 20 -18 24 1 3 -2 14 -6 24 -13 29 0 45 61 76 32 16
83 42 113 58 30 17 134 72 230 124 96 51 216 115 265 141 50 27 106 56 125 64
19 9 76 36 127 61 89 44 113 48 113 17 0 -8 5 -12 10 -9 6 3 10 2 10 -2 0 -20
61 -43 114 -43 71 0 103 15 118 56 11 31 69 79 135 113 31 16 48 48 34 65 -6
7 -7 17 -3 21 4 5 2 5 -4 2 -6 -4 -16 4 -22 18 -10 21 -8 25 9 30 11 4 50 24
87 44 37 21 145 79 240 131 95 51 177 100 181 109 5 9 11 68 15 131 6 112 -1
176 -20 174 -10 -1 -67 23 -149 61 -162 76 -228 105 -239 105 -7 0 -21 9 -31
20 -10 11 -16 20 -13 20 4 0 -1 21 -9 48 -8 26 -27 99 -43 162 -44 181 -115
449 -139 528 -5 17 -8 32 -6 32 3 0 0 12 -6 28 -6 15 -12 34 -14 42 -22 107
-64 248 -80 269 -8 12 -7 13 4 6 11 -6 12 -5 5 6 -4 8 -9 19 -11 24 -33 147
-50 191 -76 203 -15 7 -27 17 -27 23 0 16 -31 10 -57 -11 -23 -18 -23 -20 -6
-20 10 0 24 5 31 12 18 18 25 3 10 -21 -11 -18 -9 -37 14 -128 16 -59 32 -109
37 -112 4 -3 20 -53 35 -111 14 -58 33 -130 41 -160 9 -30 17 -64 20 -75 2
-11 11 -45 19 -75 29 -101 176 -668 176 -676 0 -2 9 -4 20 -4 14 0 22 -11 31
-42 6 -24 15 -51 20 -61 5 -10 7 -23 3 -28 -3 -6 -2 -21 4 -32 5 -12 15 -42
22 -67 7 -25 18 -60 24 -79 10 -31 9 -35 -19 -57 -17 -13 -36 -24 -43 -24 -7
0 -28 -11 -46 -25 -18 -14 -38 -25 -44 -25 -7 0 -12 -4 -12 -10 0 -5 -9 -10
-19 -10 -11 0 -21 -3 -23 -7 -4 -11 -290 -153 -305 -153 -8 0 -13 13 -13 30 0
17 -5 30 -11 30 -7 0 -9 9 -6 21 12 46 -2 50 -67 16 -34 -18 -75 -42 -91 -53
-33 -23 -66 -38 -77 -36 -5 1 -8 -3 -8 -8 0 -6 -7 -10 -15 -10 -8 0 -15 -4
-15 -10 0 -5 -9 -10 -20 -10 -11 0 -20 -4 -20 -10 0 -5 -9 -10 -19 -10 -11 0
-23 -4 -26 -10 -3 -5 -23 -17 -43 -27 -20 -9 -39 -20 -42 -23 -3 -3 -24 -14
-47 -25 -24 -11 -43 -23 -43 -27 0 -5 -9 -8 -19 -8 -11 0 -26 -6 -33 -13 -7
-7 -39 -25 -70 -40 -32 -16 -60 -32 -63 -38 -4 -5 -15 -9 -26 -9 -10 0 -19 -4
-19 -10 0 -5 -7 -10 -15 -10 -8 0 -15 -4 -15 -10 0 -5 -3 -9 -7 -8 -9 1 -46
-13 -53 -21 -3 -4 -32 -20 -65 -36 -33 -16 -61 -33 -63 -37 -2 -4 -12 -8 -22
-8 -9 0 -22 -6 -28 -13 -6 -7 -27 -19 -47 -27 -19 -7 -35 -17 -35 -22 0 -4
-13 -8 -30 -8 -16 0 -30 -4 -30 -8 0 -5 -16 -14 -35 -22 -19 -8 -35 -17 -35
-22 0 -4 -7 -8 -15 -8 -8 0 -15 -5 -15 -11 0 -5 -4 -8 -9 -4 -9 5 -80 -29 -91
-44 -3 -4 -27 -13 -53 -21 -26 -7 -52 -21 -57 -31 -11 -20 -2 -109 11 -109 5
0 9 -9 9 -20 0 -11 -6 -20 -12 -20 -7 0 -38 -15 -68 -32 -30 -18 -61 -33 -69
-34 -8 -2 -17 -7 -20 -12 -3 -5 -26 -19 -51 -30 -25 -12 -54 -27 -65 -34 -11
-7 -31 -20 -45 -29 -14 -9 -41 -22 -62 -28 -20 -7 -39 -18 -42 -26 -3 -8 -15
-15 -26 -15 -11 0 -20 -4 -20 -10 0 -15 -29 -12 -46 4 -8 8 -11 22 -8 30 3 9
0 23 -7 32 -7 9 -12 31 -11 50 2 19 -2 34 -8 34 -5 0 -10 14 -10 30 0 17 -4
30 -9 30 -5 0 -9 10 -10 23 -1 41 -13 97 -22 103 -5 3 -9 18 -9 34 0 16 -5 32
-11 36 -6 3 -9 15 -6 25 3 11 -1 26 -9 34 -9 9 -12 23 -8 38 3 14 1 28 -5 31
-6 4 -11 18 -11 31 0 13 -4 27 -10 30 -5 3 -10 19 -10 36 0 16 -4 29 -10 29
-5 0 -10 18 -10 40 0 22 -5 40 -11 40 -6 0 -8 8 -5 18 4 10 -1 32 -9 50 -9 17
-19 50 -24 74 -4 24 -13 42 -19 41 -8 -2 -9 4 -4 20 10 26 4 60 -8 52 -5 -3
-6 8 -4 24 3 16 0 32 -6 36 -5 3 -10 17 -10 30 0 13 -5 27 -11 31 -6 4 -9 19
-5 36 4 20 1 30 -10 35 -11 4 -13 13 -9 33 4 17 1 31 -9 39 -7 6 -12 20 -9 30
3 10 0 22 -6 25 -6 4 -11 21 -11 37 0 17 -7 38 -16 46 -11 12 -12 18 -4 23 13
8 4 50 -10 50 -5 0 -7 7 -4 15 3 8 -1 21 -9 29 -8 9 -12 25 -10 40 3 16 1 26
-6 26 -6 0 -11 15 -11 34 0 19 -5 36 -11 38 -9 3 -9 12 -2 33 10 30 37 49 153
107 36 17 66 35 68 40 2 4 8 8 14 8 5 0 36 16 69 35 33 19 71 38 84 41 14 3
25 10 25 15 0 5 6 9 14 9 8 0 16 3 18 8 2 4 30 20 63 37 33 16 77 39 97 52 21
13 42 23 48 23 5 0 34 16 64 35 30 19 62 35 71 35 8 0 15 3 15 8 0 4 20 16 45
27 25 11 45 23 45 28 0 4 9 7 20 7 11 0 20 5 20 10 0 6 5 10 10 10 6 0 46 20
88 44 42 24 89 46 105 50 15 4 27 11 27 16 0 6 7 10 15 10 17 0 46 15 84 43
13 9 32 17 42 17 11 0 19 4 19 10 0 5 3 9 8 8 11 -4 92 35 92 44 0 5 17 16 38
25 20 8 48 21 62 27 14 6 39 21 56 33 17 13 38 23 47 23 8 0 17 4 19 9 2 5 39
27 83 49 107 52 169 85 175 94 3 4 21 14 40 23 19 8 42 19 50 25 8 5 42 21 75
37 33 15 62 31 63 35 2 4 9 8 17 8 7 0 18 7 25 15 7 8 20 15 29 15 10 0 27 9
39 20 12 11 28 20 36 20 8 0 17 4 21 9 6 11 63 41 77 41 5 0 21 11 36 25 31
29 20 33 -23 7 -16 -10 -75 -43 -130 -72 -55 -29 -131 -71 -170 -91 -38 -21
-99 -52 -135 -70 -36 -18 -67 -35 -70 -39 -3 -4 -27 -17 -55 -29 -27 -12 -52
-26 -55 -30 -3 -5 -34 -23 -70 -40 -36 -17 -92 -46 -125 -64 -33 -18 -109 -59
-170 -91 -60 -32 -116 -63 -122 -68 -9 -7 -28 -3 -60 14 -27 14 -66 31 -88 38
-22 7 -51 19 -65 26 -14 7 -56 28 -95 45 -87 39 -152 68 -230 104 -33 15 -78
35 -100 45 -46 20 -112 50 -320 146 -82 38 -152 69 -155 70 -3 0 -41 18 -85
38 -134 63 -196 91 -280 128 -102 45 -347 156 -447 202 -42 19 -89 38 -105 42
-15 4 -64 23 -108 44 -44 20 -147 68 -230 105 -183 83 -249 114 -340 156 -38
18 -76 34 -82 35 -7 1 -34 14 -60 29 -27 15 -93 45 -148 66 -55 22 -127 53
-160 69 -164 78 -321 149 -330 149 -3 0 -31 14 -63 30 -31 16 -104 51 -162 76
-58 26 -127 57 -155 70 -119 57 -184 85 -194 85 -7 0 -83 32 -169 71 -86 39
-168 75 -181 80 -26 10 -164 72 -276 124 -38 18 -90 42 -115 53 -25 11 -83 38
-130 60 -102 48 -301 138 -350 159 -19 8 -57 25 -85 38 -27 14 -77 36 -110 51
-33 14 -98 45 -145 67 -47 23 -89 40 -94 38 -5 -1 -12 2 -15 7 -3 6 -46 26
-96 46 -86 35 -156 67 -237 107 -20 11 -45 19 -54 19 -9 0 -44 13 -78 29 -34
16 -142 65 -241 110 -99 45 -201 93 -227 107 -27 14 -48 23 -48 20 0 -3 -28 9
-63 27 -35 17 -81 40 -103 49 -21 10 -87 40 -147 67 -59 28 -110 50 -112 50
-3 1 -32 14 -65 31 -33 16 -65 30 -71 30 -11 0 -73 27 -194 85 -27 14 -85 40
-128 60 l-78 35 7 113 c5 86 11 114 23 122 34 22 350 188 416 219 39 18 75 39
82 47 7 9 13 55 14 116 2 119 -5 134 -91 175 -31 16 -60 28 -64 28 -20 0 -117
53 -109 60 11 11 382 203 513 265 30 15 70 35 87 45 18 11 61 34 95 52 35 17
200 106 368 196 168 91 386 206 485 257 99 51 285 149 413 219 128 69 238 126
244 126 6 0 43 18 82 39 39 21 109 59 156 84 150 79 244 129 285 152 22 12
146 78 275 145 129 68 258 135 285 150 28 15 88 48 135 72 209 110 287 152
310 167 14 9 63 35 110 57 187 91 473 241 514 269 11 8 26 15 32 15 7 0 147
72 311 161 432 233 439 237 538 289 50 26 124 66 165 89 41 22 158 82 260 131
102 50 193 96 203 101 23 13 118 63 232 124 128 68 727 390 805 432 154 85
396 208 530 271 25 12 86 43 135 70 91 48 205 110 325 174 36 20 70 46 77 59
7 15 13 73 13 139 2 113 -4 150 -21 150 -5 0 -9 6 -9 14 0 8 -12 17 -27 21
-16 3 -56 20 -91 36 -34 16 -65 29 -68 29 -5 0 -117 50 -163 73 -13 7 -29 30
-37 52 -8 22 -21 59 -30 82 -8 23 -27 86 -43 140 -16 54 -50 166 -76 248 -25
83 -48 157 -50 165 -2 8 -17 58 -33 110 -16 52 -39 129 -51 170 -12 41 -32 95
-44 120 -12 25 -20 49 -19 54 2 4 -3 14 -9 22 -6 8 -9 14 -6 14 4 0 -3 21 -14
48 -22 51 -56 93 -73 90 -6 0 -24 4 -41 11 -16 7 -36 14 -43 15 -8 1 -17 8
-22 15 -4 8 -14 11 -21 9 -8 -3 -22 4 -31 15 -10 11 -18 15 -18 8 0 -8 -11 -4
-30 9 -16 12 -35 18 -40 15 -6 -4 -9 -1 -8 6 2 7 -18 17 -46 25 -27 7 -52 17
-55 22 -5 8 -40 23 -61 27 -14 3 -126 61 -131 69 -4 5 -14 6 -24 3 -9 -4 -14
-3 -10 3 3 6 2 10 -4 10 -5 0 -48 18 -95 40 -47 22 -90 40 -95 40 -6 0 -11 5
-11 11 0 6 -9 8 -20 4 -13 -4 -20 -2 -18 5 2 7 -15 18 -37 26 -22 8 -47 17
-55 21 -8 3 -21 5 -29 4 -7 -1 -10 2 -6 8 3 6 -1 11 -9 11 -8 0 -31 9 -50 21
-20 12 -36 18 -36 15 0 -3 -15 3 -32 13 -18 10 -73 35 -123 55 -49 21 -121 53
-160 71 -38 18 -87 36 -107 39 -21 4 -38 11 -38 16 0 6 -7 10 -15 10 -9 0 -18
6 -21 13 -2 7 -14 14 -26 14 -12 1 -44 14 -71 28 -36 18 -46 21 -36 9 13 -16
12 -16 -8 -5 -13 6 -23 16 -23 21 0 6 -7 10 -16 10 -8 0 -35 11 -60 25 -24 13
-44 22 -44 18 0 -3 -8 1 -17 9 -10 8 -34 21 -53 28 -19 8 -42 21 -50 28 -9 10
-15 11 -18 3 -2 -7 -9 -6 -19 4 -8 8 -19 13 -24 10 -5 -4 -9 -2 -9 2 0 11 -60
36 -79 34 -7 -1 -10 2 -7 7 3 5 -10 13 -29 16 -19 4 -35 11 -35 17 0 6 -4 8
-9 5 -5 -3 -14 1 -21 9 -7 8 -16 12 -21 9 -5 -3 -9 -1 -9 5 0 6 -19 15 -42 22
-24 6 -54 19 -68 29 -24 16 -101 46 -108 41 -2 -1 -9 4 -15 12 -10 13 -55 29
-73 27 -3 -1 -11 5 -17 14 -7 8 -21 16 -32 18 -11 2 -23 8 -27 13 -4 6 -13 10
-20 11 -7 0 -27 8 -45 17 -18 9 -41 17 -53 17 -11 0 -20 5 -20 10 0 6 -6 10
-14 10 -8 0 -31 9 -50 21 -19 11 -41 17 -47 13 -7 -4 -10 -3 -6 2 3 5 -6 14
-19 21 -14 6 -21 7 -18 1 4 -6 -5 -3 -18 6 -14 9 -27 14 -30 11 -13 -13 20
-145 93 -378 17 -54 32 -106 34 -115 2 -9 4 -19 6 -22 1 -3 3 -9 4 -15 1 -5 4
-17 7 -25 9 -23 37 -108 60 -185 12 -38 25 -72 29 -75 6 -4 49 -142 64 -203 2
-9 6 -21 9 -25 3 -5 7 -20 10 -34 2 -14 14 -55 27 -91 12 -37 20 -69 17 -73
-3 -3 -20 2 -36 10 -17 9 -59 27 -94 40 -102 39 -212 86 -222 96 -5 5 -39 -8
-80 -30 -39 -21 -118 -64 -176 -95 -58 -32 -161 -87 -230 -122 -69 -36 -129
-69 -135 -73 -5 -4 -62 -34 -125 -66 -63 -33 -121 -65 -128 -71 -7 -7 -25 -16
-40 -19 -35 -7 -53 -15 -137 -64 -38 -22 -90 -50 -115 -61 -65 -31 -70 -34
-243 -127 -28 -15 -51 -22 -56 -16 -5 5 -12 47 -15 94 -4 47 -11 128 -16 180
-12 114 -56 570 -71 730 -5 63 -19 205 -29 315 -11 110 -22 237 -25 282 -3 45
-8 92 -10 104 -2 12 -7 54 -10 93 -3 39 -13 134 -20 211 -14 127 -26 257 -40
420 -3 33 -17 179 -30 325 -14 146 -32 337 -40 425 -9 88 -18 178 -20 199 -3
22 -12 121 -20 220 -9 100 -24 264 -35 366 -10 102 -22 221 -26 265 -11 135
-12 143 -33 375 -12 124 -23 236 -26 250 -2 14 -7 63 -10 110 -7 100 -14 183
-20 225 -2 17 -9 86 -15 155 -7 73 -18 134 -26 148 -8 12 -54 41 -102 64 -48
22 -108 52 -135 65 -42 21 -48 21 -54 7 -5 -14 2 -184 12 -259 2 -16 6 -64 10
-105 3 -41 8 -95 10 -120 8 -77 14 -132 21 -205 3 -38 8 -78 9 -87 2 -9 7 -59
10 -110 4 -51 8 -104 10 -118 1 -14 5 -59 9 -100 4 -41 9 -88 11 -105 5 -49
19 -207 31 -349 3 -44 8 -89 10 -100 2 -12 6 -52 9 -91 3 -38 7 -88 10 -110 3
-22 7 -69 10 -105 3 -36 10 -99 15 -140 5 -41 12 -109 15 -150 3 -41 7 -95 10
-120 2 -25 9 -99 15 -165 6 -66 13 -133 15 -150 2 -16 7 -68 10 -115 6 -86 11
-137 20 -200 2 -19 7 -71 10 -115 3 -44 8 -98 10 -120 2 -22 7 -71 10 -110 4
-38 8 -83 10 -100 2 -16 7 -61 11 -100 4 -38 8 -81 9 -95 1 -14 6 -65 9 -115
4 -49 9 -101 11 -115 2 -14 7 -56 10 -95 3 -38 8 -87 11 -108 3 -21 7 -71 9
-112 2 -41 5 -78 8 -82 2 -4 5 -30 6 -58 2 -27 4 -63 6 -80 4 -40 12 -126 30
-315 9 -85 18 -175 20 -200 3 -25 9 -99 15 -165 13 -153 20 -222 25 -260 8
-61 18 -171 19 -213 1 -41 -2 -45 -39 -67 -136 -78 -168 -95 -174 -95 -5 0
-15 -8 -24 -18 -12 -13 -17 -41 -18 -110 -1 -54 -6 -95 -13 -100 -17 -14 -163
-92 -172 -92 -4 0 -4 33 0 73 6 72 6 73 -23 95 l-30 22 -83 -48 c-46 -27 -126
-71 -178 -97 -52 -27 -187 -99 -300 -159 -113 -61 -218 -116 -235 -121 -24 -9
-310 -162 -560 -300 -22 -12 -94 -50 -160 -85 -66 -35 -124 -66 -130 -71 -11
-8 -232 -119 -237 -119 -2 0 -1 62 0 138 l4 137 -32 28 c-17 16 -37 26 -44 24
-6 -3 -20 1 -31 9 -10 8 -29 14 -42 14 -26 0 -37 5 -287 121 -92 44 -170 79
-171 79 -2 0 -16 5 -31 10 -28 11 -27 11 52 56 81 47 128 73 272 152 87 48 95
58 95 131 0 71 17 482 33 799 9 178 13 338 10 355 -7 34 -37 77 -54 77 -5 0
-67 27 -137 60 -70 33 -131 60 -136 60 -5 0 -34 14 -65 31 -55 31 -55 32 -35
51 25 22 28 73 6 95 -9 8 -14 20 -12 27 4 11 76 74 257 224 58 47 111 93 119
100 8 8 82 71 165 140 83 70 153 130 154 134 2 4 8 8 14 8 11 0 300 239 306
253 2 4 9 7 16 7 7 0 64 44 127 98 63 53 137 115 164 137 28 21 52 42 55 45 3
3 25 21 50 40 119 92 125 104 110 216 -16 120 -20 146 -24 153 -3 4 -7 24 -10
46 -11 67 -90 418 -132 585 -14 52 -45 174 -69 270 -60 232 -131 446 -159 472
-47 45 -138 64 -187 38 -25 -14 -53 -37 -159 -131 -63 -56 -93 -79 -175 -136
-52 -36 -231 -185 -277 -231 -49 -49 -90 -84 -249 -213 -82 -67 -149 -126
-149 -131 0 -4 -5 -8 -11 -8 -6 0 -23 -12 -38 -27 -14 -16 -73 -66 -131 -113
-57 -47 -133 -109 -167 -137 l-62 -53 -106 47 -107 47 6 80 c7 83 34 686 40
856 3 100 -5 137 -43 179 -11 13 -21 30 -21 38 0 7 -6 13 -14 13 -7 0 -33 15
-57 34 -57 43 -128 78 -320 159 -86 36 -300 134 -477 216 -176 83 -325 151
-330 151 -20 0 -505 221 -510 232 -2 5 -8 8 -14 8 -5 0 -103 45 -216 101 -246
120 -361 166 -436 175 l-55 7 -68 -60 c-37 -33 -104 -81 -148 -106 -74 -42
-237 -117 -255 -117 -4 0 -9 89 -10 198 -1 108 -4 229 -5 267 -2 39 -6 167 -9
285 -3 118 -8 225 -11 238 -3 12 -7 32 -10 43 -13 62 -55 147 -92 188 -50 56
-83 69 -268 106 -130 27 -159 29 -400 31 l-260 3 -170 -34z m744 -751 c36 -7
85 -14 108 -14 l41 0 0 -382 c1 -211 0 -396 0 -413 -1 -16 -2 -85 -2 -152 -1
-104 -3 -120 -16 -113 -74 38 -570 260 -584 260 -6 0 -119 49 -251 109 -184
83 -239 112 -237 125 2 9 -1 16 -6 16 -6 0 -6 19 -1 47 5 26 7 54 4 62 -3 8
-8 89 -11 180 -3 91 -10 173 -15 183 -8 15 0 20 58 38 38 12 102 25 143 30 41
6 99 15 127 21 74 15 349 28 472 22 56 -2 133 -11 170 -19z m6601 -49 c0 -1
-6 -7 -13 -13 -10 -8 -13 -6 -14 8 -1 13 3 17 13 13 8 -3 14 -6 14 -8z m-7653
-490 c0 -8 -4 -12 -9 -9 -5 3 -6 10 -3 15 9 13 12 11 12 -6z m-5300 -242 c-3
-10 -5 -4 -5 12 0 17 2 24 5 18 2 -7 2 -21 0 -30z m-2 -145 c-5 -4 -3 -10 7
-13 9 -4 20 -19 23 -35 3 -15 17 -38 31 -50 14 -14 24 -35 24 -52 0 -23 4 -28
25 -28 l25 0 -1 -124 c-1 -75 4 -132 11 -145 6 -12 8 -26 5 -31 -3 -6 -1 -10
6 -10 7 0 10 -3 6 -6 -3 -3 -2 -17 4 -31 5 -13 11 -38 14 -56 3 -18 17 -60 30
-94 14 -34 25 -66 25 -71 0 -5 13 -22 29 -38 25 -25 29 -35 25 -69 -2 -22 -6
-105 -9 -185 -2 -80 -8 -214 -14 -299 -8 -129 -7 -159 5 -182 20 -40 17 -81
-9 -116 -21 -29 -25 -31 -47 -20 -14 7 -34 30 -47 52 -12 22 -26 46 -32 52
-11 12 -27 49 -30 66 0 4 -9 17 -20 28 -30 33 -83 138 -75 151 4 7 3 8 -4 4
-7 -4 -13 -1 -14 6 -3 29 -4 34 -17 56 -7 13 -10 26 -7 30 3 3 -1 14 -11 24
-20 22 -21 119 -6 373 6 102 6 204 1 255 -5 47 -10 157 -11 245 -2 154 -1 161
21 183 15 15 22 34 22 60 0 20 3 62 7 92 7 52 8 53 13 20 3 -19 1 -38 -5 -42z
m2325 -350 c0 -5 10 -8 23 -8 18 0 19 -2 7 -11 -12 -9 -11 -10 8 -6 21 5 21 4
8 -21 -8 -15 -18 -40 -22 -57 l-7 -30 -7 30 c-7 28 -8 29 -9 5 0 -15 -6 -31
-12 -37 -9 -9 -7 -10 10 -6 24 6 26 -4 7 -29 -19 -26 -36 -22 -36 9 0 35 -6
27 -14 -19 -6 -32 -4 -38 11 -39 14 0 13 -2 -4 -9 -27 -11 -29 -23 -8 -44 18
-18 19 -30 2 -23 -8 3 -14 -4 -15 -16 -1 -26 -35 -54 -41 -36 -2 7 4 18 13 24
9 7 16 16 16 20 0 4 -6 2 -14 -4 -11 -9 -15 -9 -19 1 -3 7 -6 -6 -6 -29 -1
-36 2 -41 17 -36 16 6 16 5 1 -13 -9 -10 -19 -38 -22 -61 -3 -23 -17 -57 -31
-76 -14 -19 -26 -39 -26 -46 0 -6 -4 -19 -9 -29 -29 -51 -62 -142 -56 -151 3
-6 2 -11 -2 -11 -5 0 -13 -26 -20 -57 -6 -32 -12 -65 -14 -73 -3 -9 2 -14 10
-12 12 3 12 0 2 -12 -7 -8 -10 -19 -7 -24 3 -6 -1 -15 -9 -22 -10 -9 -15 -9
-15 -1 0 6 4 11 9 11 5 0 7 9 4 20 -6 23 -16 25 -35 8 -15 -15 -51 -20 -42 -7
3 5 -2 9 -11 9 -9 0 -13 5 -9 11 4 7 1 10 -7 7 -8 -3 -27 1 -42 9 -15 8 -33
11 -40 8 -7 -4 -1 3 13 14 14 11 20 21 13 21 -6 0 -15 -4 -18 -10 -3 -5 -17
-9 -30 -8 -13 1 -21 6 -18 12 4 5 -3 7 -16 3 -19 -5 -20 -3 -9 10 12 15 11 15
-11 4 -19 -11 -22 -11 -16 0 6 9 3 11 -9 6 -9 -4 -15 -3 -12 2 7 11 -22 23
-35 15 -5 -3 -9 0 -9 6 0 7 -7 9 -16 6 -10 -4 -13 -2 -8 6 5 8 2 9 -9 5 -10
-4 -16 -2 -14 6 1 7 -8 12 -20 11 -15 0 -23 5 -23 15 0 14 -2 14 -10 1 -7 -12
-10 -12 -10 -1 0 8 -6 11 -16 7 -8 -3 -13 -2 -10 3 7 11 -22 23 -36 14 -6 -3
-8 -1 -5 4 8 12 -20 26 -34 17 -5 -3 -9 0 -9 6 0 7 -7 9 -16 6 -10 -4 -13 -2
-8 6 5 8 2 9 -10 5 -11 -5 -15 -3 -10 5 5 8 2 9 -10 5 -9 -4 -15 -3 -12 2 7
11 -22 23 -35 15 -5 -3 -9 -1 -9 5 0 6 -7 7 -17 4 -10 -4 -14 -2 -10 4 8 13
-20 26 -35 16 -7 -4 -8 -1 -3 7 6 10 4 12 -11 6 -10 -4 -15 -4 -11 0 4 4 -1
12 -10 19 -19 14 -30 95 -13 95 6 0 8 4 5 10 -4 6 1 7 11 3 13 -5 15 -3 9 7
-5 8 -4 11 3 7 12 -8 44 2 38 12 -2 3 8 7 22 8 15 0 28 6 30 12 2 6 13 16 24
22 15 8 19 8 14 0 -5 -8 0 -8 18 0 14 7 23 16 20 20 -3 5 2 6 10 3 9 -4 26 6
42 23 15 15 24 22 20 15 -6 -10 -2 -10 18 -1 14 7 23 16 20 20 -3 5 3 6 12 2
12 -4 15 -3 10 5 -5 8 -1 10 10 5 12 -4 15 -3 10 5 -4 7 -2 10 6 7 8 -3 22 2
33 11 11 8 14 12 6 8 -9 -5 -12 -3 -7 5 4 6 13 11 19 10 25 -3 38 1 32 11 -4
6 1 7 11 3 12 -4 15 -3 10 5 -5 8 -1 10 10 5 12 -4 15 -3 10 5 -4 8 -2 10 8 6
8 -3 24 4 35 15 12 12 21 18 21 14 0 -4 7 2 16 13 8 10 13 13 9 7 -4 -9 -1
-11 9 -7 9 3 13 10 10 15 -3 5 3 6 12 2 13 -5 15 -3 9 7 -5 8 -4 11 3 7 15
-10 43 3 35 16 -4 6 -1 7 7 2 8 -5 18 -1 27 11 8 10 16 18 18 17 12 -7 26 -2
20 7 -4 6 1 7 11 3 12 -4 15 -3 10 5 -5 8 -1 10 10 5 13 -5 15 -3 9 7 -5 9 -4
11 3 6 13 -8 72 23 72 37 0 4 5 5 10 2 6 -4 16 -2 23 3 7 5 20 8 30 7 9 -2 15
1 12 5 -7 12 70 51 80 42 5 -4 5 -1 1 6 -4 6 -2 12 4 12 6 0 9 4 6 8 -3 5 10
4 29 -2 19 -6 35 -14 35 -18z m105 -48 c18 -8 18 -9 2 -9 -10 -1 -16 -5 -13
-10 4 -5 -4 -6 -16 -3 -21 6 -21 7 -4 10 15 3 16 6 5 13 -18 11 -1 10 26 -1z
m-15 -50 c0 -5 -7 -7 -15 -4 -8 4 -15 8 -15 10 0 2 7 4 15 4 8 0 15 -4 15 -10z
m35 0 c3 -6 -1 -7 -9 -4 -18 7 -21 14 -7 14 6 0 13 -4 16 -10z m-1819 -245
c-9 -14 -18 -48 -19 -75 -2 -39 -6 -50 -19 -50 -14 0 -16 8 -11 54 4 34 2 56
-6 60 -26 17 -5 32 48 35 23 1 23 0 7 -24z m-76 5 c0 -5 -5 -10 -11 -10 -5 0
-7 5 -4 10 3 6 8 10 11 10 2 0 4 -4 4 -10z m80 -150 l25 -8 -25 -1 c-14 -1
-36 -4 -50 -8 -22 -6 -24 -5 -11 10 15 18 23 19 61 7z m-95 -236 c11 -1 45 -7
75 -14 80 -17 338 -24 356 -9 10 8 14 8 14 0 0 -6 -4 -11 -9 -11 -11 0 -22
-38 -12 -44 6 -4 5 -130 -3 -221 -3 -27 -6 -108 -7 -180 -1 -73 -6 -133 -12
-136 -5 -4 -6 -12 -1 -20 12 -20 14 -38 3 -45 -5 -3 -9 -88 -9 -190 0 -123 -4
-184 -11 -184 -6 0 -7 -5 -2 -12 11 -19 13 -42 3 -48 -4 -3 -10 -95 -13 -206
-2 -111 -6 -205 -8 -210 -3 -5 -4 -60 -4 -121 0 -62 -4 -113 -8 -113 -5 0 -6
-8 -4 -17 3 -10 8 -35 12 -55 4 -30 3 -37 -8 -32 -8 3 -14 -2 -14 -11 0 -8 5
-15 11 -15 6 0 6 -3 1 -9 -6 -6 -45 -11 -89 -13 l-78 -3 -143 420 c-99 292
-142 431 -140 455 2 19 6 58 10 85 3 28 6 104 6 169 0 68 4 125 10 132 7 9 7
24 0 48 -5 22 -6 36 0 36 5 0 9 71 9 165 0 96 4 165 9 165 6 0 11 54 13 120 2
75 -1 120 -7 120 -5 0 -3 4 5 10 8 5 17 6 20 2 3 -4 14 -8 25 -8z m1487 -216
c-7 -7 -12 -8 -12 -2 0 14 12 26 19 19 2 -3 -1 -11 -7 -17z m8847 -128 c5 -3
18 -23 30 -45 11 -22 39 -65 61 -95 22 -30 48 -68 57 -85 22 -36 351 -374 414
-424 l46 -37 -26 -12 c-14 -7 -43 -28 -65 -47 -21 -19 -42 -32 -47 -29 -5 3
-9 -1 -10 -8 0 -7 -14 -24 -30 -38 -17 -14 -42 -37 -57 -51 -15 -14 -33 -24
-40 -21 -8 2 -10 -2 -5 -14 4 -11 3 -15 -4 -11 -6 4 -13 0 -17 -8 -3 -8 -13
-15 -23 -15 -21 -1 -63 -33 -63 -49 0 -6 -8 -11 -17 -11 -15 0 -16 -2 -3 -10
13 -9 13 -10 0 -10 -14 0 -28 -10 -103 -75 -16 -14 -33 -22 -38 -19 -5 3 -6
-2 -3 -10 4 -10 1 -16 -9 -16 -9 0 -24 -11 -35 -25 -11 -14 -23 -25 -28 -25
-4 0 -35 -21 -68 -47 -82 -64 -81 -63 -124 -103 -80 -74 -170 -150 -179 -150
-4 0 -30 -23 -56 -50 -27 -28 -52 -50 -57 -50 -4 0 -19 -11 -34 -25 -15 -14
-34 -25 -42 -25 -7 0 -14 -7 -14 -15 0 -8 -5 -15 -11 -15 -5 0 -8 -4 -5 -9 3
-5 -4 -12 -17 -15 -27 -7 -119 -90 -110 -99 3 -4 -1 -7 -10 -7 -10 0 -17 -5
-17 -11 0 -6 -7 -8 -15 -5 -10 3 -18 -1 -22 -12 -4 -9 -15 -24 -25 -33 -10 -9
-15 -18 -12 -22 3 -3 1 -8 -5 -11 -6 -4 -8 30 -5 101 52 1200 51 1149 24 1156
-16 4 -20 14 -20 50 0 64 11 112 21 95 7 -10 9 -10 9 0 0 6 5 12 10 12 6 0 34
23 62 50 28 28 58 50 66 50 9 0 12 3 9 6 -7 8 72 74 89 74 5 0 38 27 72 61 34
33 62 57 62 53 0 -4 14 8 31 25 17 18 32 31 35 29 2 -3 38 29 80 69 42 40 79
71 82 68 3 -3 11 4 19 15 8 11 21 20 29 20 8 0 13 4 9 10 -3 5 7 16 22 24 16
7 37 24 48 36 l20 22 28 -63 c15 -35 32 -66 36 -69z m-8779 110 c0 -5 -2 -10
-4 -10 -3 0 -8 5 -11 10 -3 6 -1 10 4 10 6 0 11 -4 11 -10z m420 -284 l36 2
-2 -87 c-1 -47 -3 -130 -5 -183 l-3 -97 -32 -17 c-31 -17 -34 -17 -80 4 l-49
21 0 53 c0 29 3 107 7 173 8 132 17 151 67 137 14 -4 42 -6 61 -6z m3940
-1026 c0 -5 -8 -10 -17 -10 -15 0 -16 2 -3 10 19 12 20 12 20 0z m-62 -32
c-16 -24 -43 -38 -36 -18 2 6 7 10 11 8 5 -2 13 5 18 15 6 9 13 17 16 17 3 0
-1 -10 -9 -22z m-39 -37 c13 -12 13 -15 -2 -26 -9 -6 -14 -15 -10 -18 5 -6
-19 -11 -39 -9 -3 1 -9 -5 -12 -14 -3 -8 -2 -12 4 -9 6 4 10 -7 10 -25 0 -21
-4 -29 -12 -24 -8 5 -9 2 -5 -10 7 -17 -26 -76 -45 -84 -4 -2 -8 -13 -8 -25 0
-16 -3 -18 -9 -8 -7 10 -10 10 -16 1 -4 -7 -1 -16 6 -21 10 -6 10 -9 2 -9 -7
0 -10 -7 -6 -17 4 -11 3 -14 -5 -9 -8 5 -11 1 -10 -11 4 -51 -3 -123 -13 -123
-6 0 -9 19 -8 50 2 27 0 53 -4 56 -4 4 -7 0 -7 -8 0 -9 -6 -18 -14 -21 -14 -6
-13 -66 2 -76 10 -8 9 -27 -1 -38 -5 -4 -8 -3 -7 2 5 21 -1 29 -9 16 -6 -9
-15 -11 -27 -6 -11 5 -22 7 -26 7 -5 -1 -8 6 -9 16 0 9 -3 12 -5 5 -4 -9 -11
-9 -30 -1 -18 9 -21 14 -12 21 9 6 8 7 -5 3 -20 -6 -69 13 -61 25 3 5 -2 6
-10 3 -9 -3 -16 -1 -16 5 0 6 -3 10 -7 9 -12 -4 -73 24 -69 31 2 3 -10 7 -27
7 -17 1 -33 6 -35 13 -2 6 -10 11 -18 11 -18 0 -18 18 1 36 8 9 15 13 15 10 0
-3 18 4 40 15 22 12 40 25 40 31 0 5 4 7 9 3 5 -3 12 -1 16 5 3 5 14 10 24 10
10 0 29 10 43 23 14 12 31 23 39 25 8 2 17 9 21 15 4 7 8 9 8 4 0 -6 22 4 90
42 43 23 61 31 75 31 9 0 14 4 11 9 -3 5 1 11 9 15 8 3 17 1 20 -4 4 -6 12
-10 18 -10 7 0 6 4 -3 10 -13 8 -13 11 -1 22 11 11 13 11 6 -1 -7 -11 -4 -13
11 -6 10 5 32 8 48 8 22 0 25 2 12 9 -19 11 -22 29 -4 26 7 -2 19 -9 27 -17z
m-12 -77 c-3 -3 -12 -4 -19 -1 -8 3 -5 6 6 6 11 1 17 -2 13 -5z m-3080 -176
c1 -13 -1 -74 -4 -135 l-5 -113 -27 19 c-14 10 -50 31 -79 45 -46 23 -53 31
-48 49 3 12 6 36 6 54 0 29 5 34 71 67 40 20 75 36 78 36 4 0 7 -10 8 -22z
m-7987 -13 c0 -2 -13 -11 -30 -20 -38 -19 -40 -11 -2 9 31 17 32 18 32 11z
m-70 -39 c0 -2 -7 -7 -16 -10 -8 -3 -12 -2 -9 4 6 10 25 14 25 6z m-60 -31 c0
-6 -76 -45 -87 -45 -4 1 12 12 37 25 50 27 50 27 50 20z m6901 -35 c60 -27 62
-29 30 -30 -18 0 -50 -10 -70 -22 -20 -13 -38 -22 -41 -21 -3 2 -20 -10 -39
-25 -19 -15 -51 -37 -71 -49 l-36 -22 -28 23 -29 22 62 40 c33 21 61 42 61 47
0 4 -20 7 -46 7 -32 0 -56 -7 -82 -25 -44 -30 -47 -30 -72 -5 -21 21 -40 19
-40 -5 0 -13 42 -49 239 -210 47 -38 92 -76 101 -85 28 -28 157 -130 165 -130
8 0 149 -114 200 -161 17 -16 82 -70 145 -121 92 -75 120 -92 142 -90 19 2 29
10 32 25 3 12 10 135 16 272 6 138 13 287 17 333 l6 83 39 20 39 20 -6 -78
c-8 -113 -35 -680 -35 -737 l0 -48 -58 4 -57 4 -292 237 c-160 130 -294 237
-298 237 -4 0 -44 31 -90 68 l-83 69 -64 -8 c-35 -4 -128 -12 -208 -18 -80 -6
-164 -14 -187 -17 l-43 -5 0 45 c0 29 5 48 15 53 11 6 15 34 17 117 2 84 6
111 18 117 36 20 177 81 194 84 10 3 21 7 24 10 3 3 83 5 177 5 170 0 173 0
236 -30z m884 -90 c17 -10 60 -34 98 -53 51 -27 67 -32 67 -20 0 11 17 5 68
-23 37 -21 82 -45 100 -53 51 -24 44 -54 -39 -157 -40 -49 -77 -90 -83 -92 -6
-2 -62 -67 -125 -146 -62 -79 -133 -165 -157 -192 l-44 -49 0 52 c0 50 2 54
101 177 55 69 118 143 140 163 22 21 50 54 62 73 11 19 45 62 74 94 32 36 50
63 44 69 -12 12 -264 -12 -273 -27 -4 -6 -6 -17 -3 -23 6 -18 -5 -16 -69 12
-46 20 -56 29 -56 49 0 26 21 36 83 36 20 0 37 3 37 8 0 4 -25 20 -55 36 -46
24 -55 33 -55 56 0 14 3 30 7 33 8 9 40 0 78 -23z m3255 -10 c-6 -11 -13 -20
-16 -20 -2 0 0 9 6 20 6 11 13 20 16 20 2 0 0 -9 -6 -20z m-3510 -152 c0 -32
-1 -33 -48 -36 -26 -1 -170 -14 -320 -27 l-274 -25 -30 21 c-16 12 -26 25 -21
29 7 6 273 33 588 59 55 4 101 9 103 10 1 0 2 -14 2 -31z m4095 12 c44 -5 98
-18 120 -29 22 -11 35 -20 29 -21 -7 0 -10 -20 -8 -56 2 -45 -1 -58 -16 -72
-24 -20 -26 -37 -5 -28 9 3 15 0 15 -10 0 -12 -6 -15 -22 -9 -95 28 -174 38
-313 37 -82 -1 -145 2 -140 6 6 4 10 45 10 92 0 76 2 86 20 92 31 10 221 9
310 -2z m-5792 -37 c-3 -6 -10 -10 -18 -7 -9 4 -11 -2 -8 -20 3 -16 10 -23 17
-19 6 3 6 0 -1 -8 -14 -14 -18 -59 -5 -59 11 0 10 -44 -2 -52 -6 -4 -5 -12 2
-21 10 -12 10 -16 -1 -20 -11 -4 -13 -21 -10 -73 3 -48 0 -70 -9 -76 -10 -6
-10 -10 2 -18 13 -8 12 -10 -3 -10 -10 0 -16 -4 -13 -9 8 -12 -119 -23 -221
-19 l-83 3 32 50 c18 28 69 107 115 177 46 69 81 132 78 140 -3 8 13 21 43 34
51 23 92 26 85 7z m9052 -151 c-10 -10 -11 3 -5 78 l5 75 3 -74 c2 -40 0 -76
-3 -79z m-2872 -259 c-2 -54 -6 -138 -8 -188 -3 -111 -1 -102 -25 -108 -20 -5
-20 -2 -15 86 18 328 16 307 35 307 17 0 18 -8 13 -97z m-684 35 c58 -17 108
-22 206 -24 158 -2 155 -1 155 -15 0 -5 -6 -7 -12 -3 -10 6 -10 5 -1 -7 14
-17 15 -178 1 -195 -5 -7 -8 -39 -6 -72 3 -86 -6 -94 -104 -90 -43 2 -78 -1
-78 -5 0 -4 -9 -3 -20 3 -11 6 -20 7 -20 3 0 -8 -193 2 -236 12 -17 4 -20 13
-22 62 -1 31 4 63 10 71 9 10 8 16 -3 23 -9 6 -10 12 -4 17 6 4 11 41 12 82 1
41 5 89 8 107 3 17 1 34 -5 38 -5 3 -10 10 -10 15 0 11 31 5 129 -22z m1829
-201 c58 -54 65 -122 16 -168 -52 -48 -130 -23 -171 55 -26 50 2 118 57 139
26 10 73 -2 98 -26z m-3068 -112 c193 -18 513 -55 519 -61 2 -2 10 1 18 7 9 8
13 8 13 1 0 -7 7 -9 17 -5 9 4 14 2 10 -3 -3 -5 11 -8 34 -6 30 3 44 0 53 -13
7 -10 18 -15 24 -11 18 11 14 -5 -5 -27 -13 -15 -14 -18 -3 -12 12 7 13 6 4
-6 -8 -9 -11 -113 -12 -319 0 -168 -4 -543 -8 -835 -3 -291 -7 -663 -8 -825 0
-165 -5 -302 -10 -310 -8 -13 -7 -13 7 -2 18 15 17 6 -3 -153 -5 -41 -4 -62 4
-67 7 -5 7 -8 1 -8 -6 0 -11 -9 -11 -20 0 -12 5 -19 13 -16 7 3 15 0 19 -6 4
-6 3 -8 -4 -4 -6 3 -13 2 -16 -3 -3 -5 -15 -7 -26 -4 -11 3 -17 9 -14 14 3 5
1 9 -5 9 -5 0 -13 -5 -16 -10 -4 -6 -11 -8 -16 -5 -5 4 -9 1 -9 -5 0 -6 -8 -9
-17 -6 -10 3 -49 7 -88 10 -347 27 -485 36 -578 36 -66 0 -133 6 -172 16 -57
14 -64 19 -60 38 2 11 6 154 10 316 5 279 19 631 30 785 21 291 36 637 45
1030 7 253 14 470 16 483 4 19 9 22 37 18 18 -3 111 -13 207 -21z m725 -133
c-3 -3 -11 0 -18 7 -9 10 -8 11 6 5 10 -3 15 -9 12 -12z m-13156 -105 c-2 -1
-13 -9 -24 -17 -19 -14 -19 -14 -6 3 7 9 18 17 24 17 6 0 8 -1 6 -3z m23436
-107 c22 -11 34 -20 27 -20 -7 0 -10 -4 -7 -10 3 -5 2 -10 -4 -10 -5 0 -16 -3
-24 -6 -10 -3 -18 5 -26 27 -16 47 -19 46 34 19z m-22033 -67 c-6 -2 -9 -10
-5 -16 3 -7 3 -9 -2 -5 -4 4 -14 3 -20 -2 -7 -6 -20 -7 -30 -4 -15 6 -13 9 11
20 16 7 36 12 44 12 10 0 11 -1 2 -5z m11725 -115 c-2 -13 -4 -3 -4 22 0 25 2
35 4 23 2 -13 2 -33 0 -45z m10811 -38 c46 -22 87 -40 91 -40 4 0 53 -20 107
-46 54 -25 113 -51 129 -59 17 -7 59 -27 95 -43 36 -17 90 -41 120 -55 30 -14
132 -60 225 -102 94 -42 183 -82 199 -89 l30 -12 -42 -22 -42 -21 -77 33
c-145 63 -579 263 -654 302 -26 13 -52 24 -58 24 -6 0 -55 21 -109 46 -53 25
-114 53 -134 61 -38 15 -51 33 -24 33 7 0 19 7 26 15 18 21 25 20 118 -25z
m-10811 -122 c-2 -13 -4 -3 -4 22 0 25 2 35 4 23 2 -13 2 -33 0 -45z m-12213
27 c3 -8 13 -15 23 -15 11 -1 5 -8 -17 -19 -113 -60 -176 -94 -185 -101 -5 -4
-66 -37 -135 -73 -69 -36 -204 -108 -300 -160 -171 -93 -176 -95 -204 -80 -15
8 -24 18 -20 23 5 4 63 36 129 71 66 34 148 77 183 96 34 18 90 48 125 66 197
104 297 158 337 181 53 30 56 31 64 11z m12203 -347 c-2 -13 -4 -3 -4 22 0 25
2 35 4 23 2 -13 2 -33 0 -45z m-13535 -50 c-7 -7 -12 -8 -12 -2 0 14 12 26 19
19 2 -3 -1 -11 -7 -17z m-171 -371 c-10 -9 -11 -8 -5 6 3 10 9 15 12 12 3 -3
0 -11 -7 -18z m10100 -1160 c-10 -9 -11 -8 -5 6 3 10 9 15 12 12 3 -3 0 -11
-7 -18z m6727 -174 c-10 -2 -26 -2 -35 0 -10 3 -2 5 17 5 19 0 27 -2 18 -5z
m-301 -39 c-3 -3 -12 -4 -19 -1 -8 3 -5 6 6 6 11 1 17 -2 13 -5z m-102 -13
c-27 -11 -99 -22 -91 -14 6 6 69 20 96 21 9 1 6 -3 -5 -7z m-6790 -11 c-3 -5
-16 -15 -28 -21 l-22 -12 20 21 c21 22 41 30 30 12z m6603 -17 c-10 -2 -28 -2
-40 0 -13 2 -5 4 17 4 22 1 32 -1 23 -4z m-85 -10 c-13 -2 -35 -2 -50 0 -16 2
-5 4 22 4 28 0 40 -2 28 -4z m-255 -20 c-10 -2 -28 -2 -40 0 -13 2 -5 4 17 4
22 1 32 -1 23 -4z m-6378 -7 c0 -3 -4 -8 -10 -11 -5 -3 -10 -1 -10 4 0 6 5 11
10 11 6 0 10 -2 10 -4z m6238 -3 c-15 -2 -42 -2 -60 0 -18 2 -6 4 27 4 33 0
48 -2 33 -4z m-168 -12 c-36 -3 -70 -9 -77 -14 -6 -4 -110 -10 -230 -13 -120
-3 -225 -5 -233 -6 -68 -5 -780 4 -780 10 0 4 224 8 498 9 273 1 551 6 617 11
66 5 154 9 195 9 l75 0 -65 -6z m-6325 -131 c3 -5 23 -14 43 -20 21 -5 47 -18
59 -29 11 -11 23 -18 25 -15 3 2 51 -16 108 -42 103 -45 181 -63 345 -78 33
-3 117 -16 187 -28 l126 -21 -5 -131 c-3 -72 -8 -134 -12 -138 -3 -4 -4 -48
-1 -97 l5 -91 39 -20 c27 -13 42 -16 47 -9 11 18 17 -13 24 -113 6 -90 -47
-1254 -58 -1264 -7 -7 -166 15 -195 27 -18 7 -22 6 -16 -3 5 -10 4 -10 -6 -1
-7 6 -18 9 -24 7 -7 -3 -95 9 -196 26 -101 16 -186 30 -190 30 -3 0 -7 11 -8
26 -1 14 -6 33 -12 43 -5 10 -12 73 -16 140 l-7 121 -156 2 -156 2 148 3 c190
4 189 23 -1 23 l-137 0 -1 230 c-1 203 -3 232 -18 249 -16 18 -17 38 -7 288 6
147 16 409 23 581 8 242 14 312 24 312 7 0 16 -4 19 -10z m1002 -412 c-3 -7
-5 -2 -5 12 0 14 2 19 5 13 2 -7 2 -19 0 -25z m-7 -104 c0 -25 -4 -43 -8 -40
-7 4 -4 86 4 86 2 0 4 -21 4 -46z m290 -1356 c0 -10 4 -18 8 -18 5 0 17 -18
27 -40 10 -22 22 -40 27 -40 4 0 8 -6 8 -14 0 -8 24 -44 53 -79 63 -79 146
-189 170 -227 24 -38 33 -120 16 -151 -7 -13 -12 -27 -11 -31 3 -12 -66 -21
-101 -13 -17 4 -77 8 -133 9 -64 1 -106 6 -116 13 -8 7 -18 10 -21 7 -11 -11
-12 65 -2 256 4 80 8 180 9 223 1 53 5 76 12 73 7 -3 10 3 7 15 -3 10 -2 31 1
45 7 25 8 26 26 9 11 -10 20 -26 20 -37z m6341 -98 c6 0 7 -4 4 -10 -6 -9 22
-15 53 -11 6 1 12 -4 12 -12 0 -7 7 -14 15 -14 8 0 15 5 15 10 0 6 11 -2 25
-17 14 -15 30 -24 35 -21 6 3 10 1 10 -4 0 -6 7 -11 15 -11 7 0 19 -8 24 -17
6 -10 11 -12 11 -5 0 6 4 12 8 12 15 0 52 -36 53 -51 0 -10 2 -11 6 -1 6 14
43 17 43 2 0 -5 22 -17 50 -27 l49 -17 -26 -28 c-14 -15 -31 -25 -36 -21 -6 3
-7 1 -4 -4 4 -6 -3 -19 -15 -29 -32 -29 -176 -211 -220 -279 -46 -70 -185
-345 -216 -425 -36 -95 -89 -273 -95 -320 -18 -148 -25 -180 -38 -180 -6 0 -6
6 1 19 15 29 12 38 -6 15 -15 -18 -15 -18 -9 3 5 18 3 22 -9 17 -9 -3 -16 -1
-16 5 0 7 -12 11 -27 9 -18 -2 -27 1 -26 10 4 15 -2 15 -28 2 -15 -8 -19 -8
-17 2 2 7 -3 12 -9 11 -7 -2 -13 1 -13 6 0 5 -12 11 -27 13 -18 2 -27 8 -25
17 3 12 1 12 -13 1 -13 -11 -16 -11 -13 0 2 7 -8 16 -21 19 -13 4 -28 15 -32
26 -6 17 -8 17 -8 3 -1 -22 -8 -23 -28 -3 -8 8 -18 13 -23 10 -4 -3 -11 2 -14
11 -3 8 -11 12 -17 8 -7 -4 -18 0 -24 10 -16 21 -42 11 -48 -17 -2 -12 -5 -3
-6 20 0 23 6 70 14 105 8 35 17 80 20 101 8 45 93 307 105 322 5 6 11 22 13
36 3 14 19 51 37 82 18 32 30 57 27 57 -3 0 12 30 34 67 21 37 39 75 39 83 0
8 9 26 20 40 11 14 39 54 62 90 80 127 229 284 261 276 10 -2 14 0 10 7 -4 7
0 8 11 4 10 -4 22 -7 27 -7z m702 -727 c4 -7 19 -13 32 -13 14 0 25 -4 25 -10
0 -5 10 -10 22 -10 12 0 29 -7 39 -16 9 -8 24 -16 32 -18 8 -1 25 -9 38 -17
13 -9 32 -15 42 -13 10 1 17 -4 17 -13 0 -9 6 -13 15 -9 8 3 15 0 16 -7 0 -9
2 -9 6 1 7 19 20 14 26 -10 4 -12 9 -19 13 -15 4 3 15 2 25 -3 12 -7 19 -6 23
3 3 6 4 -1 1 -18 -2 -16 -2 -24 1 -17 3 6 10 10 15 6 5 -3 9 3 9 12 0 10 2 15
5 12 7 -7 -21 -155 -49 -257 -37 -136 -140 -339 -218 -431 -101 -118 -158
-165 -158 -129 0 6 5 7 12 3 6 -4 8 -3 5 3 -4 6 -22 9 -42 6 -21 -2 -35 1 -35
7 0 6 -5 8 -10 5 -6 -4 -18 -1 -27 7 -9 7 -18 12 -20 11 -9 -7 -23 -2 -18 7 3
6 0 10 -8 10 -8 0 -35 11 -61 25 -25 13 -46 22 -46 18 0 -3 -8 1 -17 9 -15 12
-37 24 -63 33 -40 14 -60 28 -60 42 0 15 -2 16 -10 3 -9 -13 -12 -12 -21 4 -9
15 -13 16 -20 5 -4 -7 -11 -10 -15 -6 -4 4 4 17 17 30 67 65 229 271 229 292
0 3 18 42 41 88 41 82 109 271 109 301 0 9 6 16 13 16 9 0 9 2 -1 9 -11 7 -10
9 3 15 9 3 13 11 10 16 -4 6 -2 17 5 25 13 15 40 9 53 -12z m-2947 -418 c87
-14 177 -28 199 -30 22 -3 58 -7 80 -10 22 -2 77 -9 122 -16 l82 -12 -3 -81
c-2 -45 -7 -128 -11 -186 -3 -58 -6 -127 -6 -155 0 -27 -3 -56 -5 -64 -2 -7
-7 -84 -10 -170 -3 -86 -7 -165 -11 -175 -3 -10 -7 -103 -9 -205 -5 -225 -7
-263 -16 -277 -4 -6 -3 -36 2 -66 4 -30 5 -71 1 -89 -4 -19 -7 -42 -5 -51 1
-10 -4 -15 -15 -13 -9 1 -26 -2 -39 -6 -16 -6 -21 -6 -16 2 4 8 1 8 -12 1 -21
-10 -124 -8 -308 6 -75 5 -134 5 -162 -1 -32 -8 -51 -7 -75 3 l-32 14 7 235
c4 130 10 310 12 400 3 90 11 266 18 390 16 257 24 428 25 519 1 44 5 62 14
62 7 0 85 -11 173 -25z m-5700 -127 c4 -7 3 -8 -4 -4 -7 4 -12 3 -12 -2 0 -5
-10 -12 -22 -15 -22 -6 -22 -6 2 13 30 23 27 23 36 8z m-86 -48 c0 -5 -2 -10
-4 -10 -3 0 -8 5 -11 10 -3 6 -1 10 4 10 6 0 11 -4 11 -10z m2975 -1548 c-3
-3 -11 0 -18 7 -9 10 -8 11 6 5 10 -3 15 -9 12 -12z m-36 -13 c-15 -9 -32 -2
-24 11 3 5 13 6 21 3 12 -4 13 -8 3 -14z m81 1 c13 -9 13 -11 0 -20 -11 -7 -7
-8 16 -4 29 5 119 -28 294 -108 25 -12 97 -45 160 -73 104 -47 115 -54 115
-78 1 -15 -3 -27 -7 -27 -10 0 -169 71 -305 136 -51 24 -94 44 -97 44 -15 0
-156 73 -156 81 0 6 -3 8 -7 6 -5 -2 -24 1 -43 9 -26 9 -30 13 -13 13 12 1 25
6 28 11 4 7 -3 9 -22 5 -23 -4 -24 -4 -8 4 26 12 27 12 45 1z m3254 -677 c-1
-16 -3 -31 -3 -34 -1 -4 -26 -17 -56 -30 l-54 -24 -3 -115 -3 -115 -83 -9 -84
-8 -32 31 c-18 17 -39 31 -48 31 -19 0 -68 44 -68 62 0 12 40 34 270 149 65
32 162 84 165 89 1 0 0 -12 -1 -27z m-13064 -1363 c0 -5 7 -10 15 -10 8 0 15
-3 15 -8 0 -7 51 -27 98 -39 12 -3 22 -9 22 -14 0 -5 9 -9 20 -9 11 0 20 -4
20 -9 0 -5 13 -12 30 -16 16 -4 32 -11 35 -16 4 -5 15 -9 26 -9 10 0 19 -4 19
-10 0 -5 7 -10 14 -10 8 0 36 -11 62 -25 26 -14 53 -25 60 -25 8 0 14 -4 14
-9 0 -5 10 -11 23 -14 46 -12 97 -32 97 -39 0 -5 7 -8 15 -8 8 0 15 -4 15 -9
0 -5 16 -12 35 -15 19 -4 35 -11 35 -16 0 -6 12 -10 26 -10 14 0 23 -4 19 -10
-3 -5 -1 -10 6 -10 19 0 89 -33 89 -42 0 -4 14 -8 30 -8 17 0 30 -4 30 -10 0
-5 9 -10 19 -10 11 0 22 -4 26 -9 3 -5 19 -12 35 -16 17 -4 30 -11 30 -16 0
-5 9 -9 20 -9 11 0 20 -4 20 -9 0 -5 15 -13 32 -17 18 -3 40 -15 50 -26 12
-14 18 -16 22 -6 5 10 7 10 12 1 3 -7 12 -13 20 -13 8 0 14 -4 14 -9 0 -4 27
-14 60 -21 33 -7 60 -17 60 -21 0 -5 11 -9 25 -9 14 0 25 -4 25 -10 0 -5 16
-12 35 -16 19 -3 35 -10 35 -15 0 -5 6 -9 13 -9 8 0 36 -11 63 -25 27 -14 55
-25 62 -25 6 0 12 -4 12 -10 0 -5 9 -10 20 -10 11 0 20 -4 20 -10 0 -5 18 -13
40 -16 22 -4 40 -10 40 -15 0 -5 9 -9 20 -9 11 0 20 -3 20 -8 0 -4 15 -13 33
-21 54 -22 141 -62 169 -77 14 -8 33 -14 42 -14 9 0 16 -3 16 -8 0 -6 17 -15
75 -37 11 -5 26 -7 33 -6 6 1 12 -3 12 -9 0 -5 7 -10 15 -10 8 0 15 -4 15 -10
0 -5 8 -10 18 -10 9 0 26 -7 36 -15 11 -8 30 -15 43 -15 13 0 23 -4 23 -10 0
-5 9 -10 20 -10 11 0 20 -3 20 -8 0 -7 37 -25 78 -37 12 -3 22 -11 22 -16 0
-5 11 -9 24 -9 14 0 27 -4 31 -9 3 -5 19 -12 35 -16 17 -4 30 -11 30 -16 0 -5
9 -9 20 -9 11 0 20 -3 20 -8 0 -9 45 -28 90 -37 19 -4 37 -11 40 -14 7 -10 93
-49 124 -57 14 -3 26 -10 26 -15 0 -5 9 -9 20 -9 11 0 20 -4 20 -10 0 -5 7
-10 15 -10 10 0 15 -10 15 -31 0 -28 -2 -30 -17 -18 -10 7 -15 9 -11 5 4 -5 2
-16 -5 -24 -9 -13 -9 -14 1 -8 13 8 15 -6 6 -41 -4 -13 -10 -21 -14 -18 -4 2
-15 -4 -24 -14 -15 -16 -15 -19 -1 -24 8 -4 15 -17 14 -29 0 -22 -1 -22 -9 -3
-5 11 -9 14 -9 6 -1 -7 -7 -11 -14 -8 -9 3 -12 -4 -11 -24 1 -16 -2 -29 -6
-29 -12 0 -3 -44 10 -48 12 -4 3 -22 -11 -22 -6 0 -7 4 -4 10 3 5 1 10 -4 10
-15 0 -14 -13 1 -28 10 -10 10 -15 -2 -22 -10 -7 -11 -10 -2 -10 6 0 12 -4 12
-10 0 -5 -5 -10 -11 -10 -13 0 -42 -28 -46 -44 -1 -6 -11 -36 -21 -66 -19 -54
-20 -76 -1 -65 5 4 9 1 9 -4 0 -6 -7 -11 -15 -11 -17 0 -30 -43 -19 -62 13
-20 13 -38 2 -38 -6 0 -7 7 -4 16 5 14 4 15 -9 4 -8 -7 -13 -15 -10 -19 2 -4
-5 -15 -16 -24 -26 -23 -26 -41 1 -27 18 10 20 8 20 -19 0 -30 -24 -49 -36
-29 -5 7 -12 -5 -19 -28 -7 -21 -8 -43 -3 -48 11 -14 10 -56 -2 -56 -5 0 -10
6 -10 13 0 6 -10 -8 -21 -32 -17 -40 -18 -46 -4 -53 20 -12 19 -38 -1 -38 -8
0 -13 -4 -9 -9 3 -5 0 -13 -6 -17 -8 -4 -9 -3 -5 4 4 7 3 12 -2 12 -14 0 -25
-34 -13 -38 6 -2 11 -8 11 -13 0 -6 -5 -7 -10 -4 -6 3 -15 -6 -20 -22 -6 -15
-14 -36 -20 -45 -14 -25 8 -35 25 -12 9 13 14 14 15 6 0 -7 -6 -20 -14 -28 -8
-7 -12 -22 -9 -33 3 -10 -1 -22 -8 -27 -9 -5 -10 -2 -5 12 6 17 5 17 -15 -2
-23 -23 -38 -91 -18 -78 8 5 10 -3 5 -27 -4 -19 -7 -42 -7 -51 0 -10 -5 -21
-11 -24 -6 -4 -8 -2 -4 4 3 6 3 13 -2 16 -13 8 -49 -83 -47 -119 1 -19 -3 -33
-8 -32 -6 1 -17 -20 -25 -48 -8 -27 -23 -61 -33 -74 -10 -13 -16 -28 -12 -34
3 -6 1 -7 -5 -3 -6 4 -9 13 -5 21 3 9 -1 15 -11 15 -9 0 -16 5 -16 11 0 6 -8
8 -19 4 -10 -3 -24 1 -31 10 -7 8 -19 15 -27 15 -8 0 -11 5 -7 12 4 7 4 10 0
6 -5 -4 -19 -3 -32 2 -18 7 -26 5 -34 -8 -10 -15 -11 -15 -6 0 5 19 -17 42
-56 57 -22 8 -29 7 -38 -7 -11 -16 -11 -16 -6 0 7 25 -22 52 -40 37 -8 -6 -11
-16 -7 -23 3 -6 2 -7 -3 -3 -5 5 -10 13 -10 18 -1 5 -2 13 -3 18 0 5 -17 15
-35 22 -19 7 -33 15 -31 18 2 3 -12 6 -31 6 -30 0 -32 -2 -17 -12 24 -18 13
-22 -17 -6 -14 7 -21 13 -16 13 5 0 3 7 -4 15 -7 8 -20 15 -29 15 -13 0 -16 7
-13 35 2 19 8 35 13 35 5 0 9 14 9 30 0 20 -5 30 -15 30 -18 0 -20 17 -3 22
16 6 -55 48 -81 48 -11 0 -30 9 -41 20 -23 23 -34 26 -25 8 4 -7 1 -6 -7 3 -7
9 -21 15 -30 13 -10 -1 -20 2 -24 7 -3 5 -10 9 -15 9 -6 0 -7 -5 -4 -10 3 -6
1 -10 -5 -10 -6 0 -10 7 -8 16 3 16 -50 55 -64 48 -3 -2 -13 2 -21 10 -8 8
-17 12 -21 9 -3 -4 -6 -1 -6 5 0 7 -9 12 -20 12 -12 0 -33 6 -48 14 -15 8 -36
16 -47 18 -11 1 -22 5 -25 9 -11 12 -79 39 -98 39 -12 0 -24 5 -27 10 -3 6
-12 10 -18 9 -9 0 -9 -2 1 -6 20 -8 14 -22 -9 -16 -12 4 -18 11 -15 20 4 9 -1
17 -14 20 -11 3 -17 9 -14 14 3 5 -3 6 -12 2 -10 -4 -15 -2 -12 3 4 5 -7 10
-23 10 -16 1 -26 -2 -23 -7 3 -5 0 -9 -6 -9 -7 0 -10 6 -7 14 3 8 -3 22 -14
32 -10 9 -19 14 -19 9 0 -4 -7 -2 -15 5 -8 7 -22 10 -30 6 -9 -3 -13 -2 -10 4
3 6 -2 10 -11 10 -9 0 -32 11 -51 26 -18 14 -33 23 -33 20 0 -2 -13 -1 -29 4
-19 5 -33 4 -40 -3 -8 -8 -14 -8 -24 2 -10 10 -9 11 6 6 10 -4 17 -2 17 4 0
19 -29 24 -48 10 -15 -12 -16 -12 -4 2 11 14 8 18 -20 29 -18 8 -45 22 -59 32
-15 10 -35 19 -45 21 -11 1 -24 6 -31 10 -6 4 -15 2 -19 -4 -4 -8 -3 -9 4 -5
7 4 12 2 12 -3 0 -21 -29 -11 -32 10 -3 22 -8 26 -67 53 -42 20 -47 20 -31 1
9 -10 9 -15 1 -15 -6 0 -11 4 -11 9 0 5 -10 7 -22 3 -14 -3 -19 -2 -14 7 4 6
12 9 17 6 5 -4 9 -2 9 4 0 10 -38 27 -52 23 -5 -1 -8 4 -8 10 0 10 -2 10 -8 0
-7 -9 -13 -8 -27 8 -10 11 -26 20 -37 20 -10 0 -18 7 -18 16 0 10 -6 14 -15
11 -8 -4 -17 -2 -21 4 -3 6 -12 8 -20 5 -8 -3 -14 -1 -14 4 0 12 -73 50 -95
50 -18 0 -39 -46 -29 -62 4 -7 2 -8 -4 -4 -7 4 -12 1 -12 -7 0 -31 -26 -39
-72 -23 -24 8 -39 15 -34 16 5 0 6 3 3 7 -4 3 -13 -2 -21 -12 -12 -16 -16 -17
-43 -5 -17 8 -29 19 -26 26 5 15 -36 44 -66 47 -11 1 -23 7 -26 15 -3 8 -12
12 -19 9 -8 -3 -16 -2 -18 4 -2 5 -14 11 -28 14 -24 4 -24 4 -5 -11 19 -15 19
-15 -9 -11 -17 2 -32 10 -34 18 -3 11 -1 11 7 -1 6 -8 11 -10 11 -4 0 15 -39
49 -47 41 -3 -4 -12 -2 -20 5 -11 8 -12 7 -7 -6 3 -9 2 -16 -3 -16 -5 0 -9 10
-10 21 -2 27 -5 30 -35 33 -13 1 -29 6 -36 10 -7 4 -19 2 -27 -4 -20 -16 -54
15 -36 33 6 6 11 21 11 34 0 13 4 23 9 23 5 0 11 18 15 41 8 53 29 119 37 119
4 0 9 22 13 50 4 27 11 52 16 55 6 3 10 17 10 30 0 13 5 27 11 31 6 3 8 17 5
31 -4 14 -1 29 7 38 9 8 12 25 9 41 -4 20 -2 25 8 19 10 -6 12 -1 8 19 -4 17
0 29 10 35 9 5 13 17 10 29 -4 13 0 23 9 26 11 4 13 14 9 31 -5 18 -2 27 9 31
10 4 13 14 9 30 -4 16 -2 24 6 24 9 0 11 10 7 30 -5 21 -3 29 6 27 8 -1 11 10
11 31 -2 22 3 32 13 32 11 0 13 7 8 30 -5 23 -3 32 10 36 10 4 13 13 10 24 -3
10 -1 21 5 25 7 4 9 18 6 31 -5 18 -2 24 10 24 13 0 15 6 11 29 -4 19 -1 33 8
41 8 6 11 18 8 26 -3 8 0 14 7 14 8 0 11 9 7 26 -4 20 0 28 15 32 14 3 19 11
16 26 -3 12 2 28 9 35 8 7 11 21 8 31 -3 10 0 20 8 23 10 3 13 15 10 31 -4 17
-1 26 7 26 9 0 11 10 7 30 -5 23 -3 30 9 30 12 0 15 7 11 27 -3 18 1 32 11 41
12 9 13 15 6 18 -13 5 -7 44 6 44 7 0 16 32 24 85 5 36 18 55 37 55 10 0 19
-4 19 -10z m-963 -1602 c-3 -8 -6 -5 -6 6 -1 11 2 17 5 13 3 -3 4 -12 1 -19z
m0 -40 c-3 -8 -6 -5 -6 6 -1 11 2 17 5 13 3 -3 4 -12 1 -19z m0 -75 c-3 -10
-5 -4 -5 12 0 17 2 24 5 18 2 -7 2 -21 0 -30z m595 -60 c-6 -2 -9 -10 -6 -15
4 -7 2 -8 -5 -4 -13 9 -5 26 12 25 9 0 8 -2 -1 -6z m680 -161 c9 -9 9 -12 0
-12 -7 0 -12 4 -12 9 0 5 -10 7 -22 3 -13 -3 -19 -1 -15 6 9 13 33 10 49 -6z
m-251 -178 c128 -58 156 -74 127 -74 -9 0 -19 4 -22 9 -3 5 -17 12 -31 15 -38
10 -192 83 -200 95 -9 16 -9 16 126 -45z m589 21 c7 -9 8 -15 2 -15 -5 0 -12
7 -16 15 -3 8 -4 15 -2 15 2 0 9 -7 16 -15z m730 -326 c0 -5 -4 -9 -8 -9 -5 0
-9 7 -9 15 0 8 4 12 9 9 4 -3 8 -9 8 -15z m310 -139 c0 -5 -2 -10 -4 -10 -3 0
-8 5 -11 10 -3 6 -1 10 4 10 6 0 11 -4 11 -10z m22489 -93 c-2 -1 -13 -9 -24
-17 -19 -14 -19 -14 -6 3 7 9 18 17 24 17 6 0 8 -1 6 -3z m-97 -58 c-30 -17
-56 -29 -58 -26 -5 5 87 56 101 57 6 0 -14 -14 -43 -31z m-77 -38 c-6 -5 -21
-12 -35 -15 l-25 -7 25 15 c28 17 50 21 35 7z"/>
<path d="M11606 17222 c-2 -4 -1 -14 3 -21 6 -10 10 -9 14 3 6 16 -8 32 -17
18z"/>
<path d="M11653 17178 c7 -10 16 -18 21 -18 4 0 3 6 -3 13 -6 8 -9 16 -6 19 3
2 -1 5 -9 5 -11 0 -12 -4 -3 -19z"/>
<path d="M11525 17179 c-4 -6 -5 -12 -2 -15 2 -3 7 2 10 11 7 17 1 20 -8 4z"/>
<path d="M9780 15420 c0 -5 5 -10 11 -10 5 0 7 5 4 10 -3 6 -8 10 -11 10 -2 0
-4 -4 -4 -10z"/>
<path d="M15635 14850 c-3 -5 1 -10 9 -10 9 0 16 5 16 10 0 6 -4 10 -9 10 -6
0 -13 -4 -16 -10z"/>
<path d="M15553 14717 c4 -10 7 -23 7 -28 0 -5 7 -9 15 -9 21 0 19 14 -7 36
-20 18 -21 18 -15 1z"/>
<path d="M10909 14330 c-25 -19 -29 -19 -62 -5 -22 9 -38 11 -42 5 -6 -9 4
-130 11 -130 2 0 44 26 94 58 86 56 90 59 72 75 -24 22 -41 21 -73 -3z"/>
<path d="M11002 14239 c-49 -35 -47 -50 6 -42 20 3 55 6 77 8 22 1 41 3 43 4
5 2 -66 61 -74 61 -5 -1 -28 -14 -52 -31z"/>
<path d="M18833 8345 c0 -8 4 -12 9 -9 5 3 6 10 3 15 -9 13 -12 11 -12 -6z"/>
<path d="M16606 7327 c3 -10 9 -15 12 -12 3 3 0 11 -7 18 -10 9 -11 8 -5 -6z"/>
<path d="M15963 5980 c0 -30 2 -43 4 -27 2 15 2 39 0 55 -2 15 -4 2 -4 -28z"/>
<path d="M3490 1752 c0 -5 11 -14 25 -20 14 -6 25 -10 25 -8 0 2 -11 11 -25
20 -14 9 -25 13 -25 8z"/>
<path d="M10000 16920 c0 -5 11 -10 25 -10 14 0 25 5 25 10 0 6 -11 10 -25 10
-14 0 -25 -4 -25 -10z"/>
<path d="M10110 16920 c0 -5 11 -10 25 -10 14 0 25 5 25 10 0 6 -11 10 -25 10
-14 0 -25 -4 -25 -10z"/>
</g>
</svg>
