<?xml version="1.0" encoding="utf-8"?>
<!-- Generator: Adobe Illustrator 15.1.0, SVG Export Plug-In . SVG Version: 6.00 Build 0)  -->
<!DOCTYPE svg PUBLIC "-//W3C//DTD SVG 1.1//EN" "http://www.w3.org/Graphics/SVG/1.1/DTD/svg11.dtd">
<svg version="1.1" xmlns="http://www.w3.org/2000/svg" xmlns:xlink="http://www.w3.org/1999/xlink" x="0px" y="0px" width="1698px"
	 height="664px" viewBox="0 0 1698 664" enable-background="new 0 0 1698 664" xml:space="preserve">
<g id="Bottom_jet">
	<path d="M1083.777,244.939c-37.691,21.156-102.362,74.453-122.234,100.703c-9.835,12.992-41.931,39.178-15.427,102.232
		c17.851,33.336,70.727-7.795,54.442-38.881c-18.546-35.402,38.946-102.916,101.792-147.982"/>
</g>
<g id="Top_jet">
	<path d="M1138.615,203.579c101.095-78.885,123.721-121.165,153.271-145.387c22.068-18.087,43.868-42.322,67.49-20.534
		c23.622,21.787-2.45,41.681-23.03,57.685c-39.011,30.339-78.246,40.731-185.359,127.827"/>
</g>
<g id="Center">
	<circle cx="1115.272" cy="232.322" r="13.793"/>
</g>
<g id="Swirl">
	<path fill="none" stroke="#000000" stroke-width="20" stroke-miterlimit="10" d="M1056.741,359.951
		C916.412,225.219,921.273,86.185,961.48,52.905c42.717-35.358,109.349-9.907,189.544,75.539
		c85.204,90.782,122.42,200.366,90.296,238.263c-25.698,30.316-99.707-5.869-165.303-80.824
		c-52.477-59.965-78.35-128.234-57.79-152.489c16.447-19.401,63.813,3.758,105.794,51.729
		c33.584,38.376,50.145,82.071,36.986,97.593c-10.528,12.418-40.84-2.404-67.708-33.105c-21.495-24.563-32.093-52.525-23.671-62.46
		c6.736-7.946,26.137,1.538,43.333,21.188"/>
</g>
<g id="Aerospace">
	<text transform="matrix(1 0 0 1 24.9844 592.127)" font-family="'Comfortaa'" font-size="230.1698">Aerospace Ltd</text>
</g>
<g id="Noqsi">
	<text transform="matrix(1 0 0 1 229.0601 426.7246)" font-family="'Comfortaa'" font-size="254.2191">Noqsi</text>
	<line fill="none" x1="2664" y1="312.292" x2="-146" y2="312.292"/>
</g>
<g id="Star" display="none">
	<polygon display="inline" points="918.185,245.5 902.543,260.378 905.933,281.698 886.948,271.421 867.72,281.231 871.628,260.001 
		856.355,244.745 877.754,241.902 887.543,222.662 896.86,242.136 	"/>
</g>
</svg>
