<?xml version="1.0" standalone="no"?>
<!DOCTYPE svg PUBLIC "-//W3C//DTD SVG 20010904//EN"
 "http://www.w3.org/TR/2001/REC-SVG-20010904/DTD/svg10.dtd">
<?xml-stylesheet type="text/css" href="/styles/main.css" ?>
<svg version="1.0" xmlns="http://www.w3.org/2000/svg"
 width="468pt" height="472pt" viewBox="0 0 468 472"
 preserveAspectRatio="xMidYMid meet">
<metadata>
Created by potrace 1.8, written by Peter Selinger 2001-2007
</metadata>
<g transform="translate(0,472) scale(0.195000,-0.195000)" stroke="none">
<path d="M965 2356 c-183 -55 -233 -74 -392 -154 l-182 -92 -128 -192 c-127
-190 -130 -196 -196 -381 l-68 -187 21 -233 22 -232 71 -137 c65 -123 87 -154
225 -313 143 -163 162 -181 265 -249 l112 -73 232 -59 232 -58 198 56 c150 43
248 78 403 146 l205 91 99 168 c124 211 306 575 306 612 0 61 -73 493 -104
618 l-33 131 -161 179 c-88 99 -172 184 -185 190 -190 87 -303 127 -500 177
-120 31 -221 55 -225 55 -4 -1 -101 -29 -217 -63z m213 8 c-3 -25 -13 -29
-187 -80 -102 -30 -191 -52 -198 -50 -7 3 -13 13 -13 23 0 15 36 29 193 75
105 31 196 57 200 57 5 1 7 -11 5 -25z m259 -31 c173 -43 183 -47 177 -67 -4
-11 -8 -22 -9 -24 -2 -2 -85 23 -185 56 -122 39 -186 65 -193 77 -8 15 -7 17
9 11 10 -4 100 -28 201 -53z m-229 -41 c2 -6 -59 -41 -144 -82 -81 -38 -148
-70 -149 -70 -2 0 -6 7 -9 16 -4 11 27 31 137 85 78 38 146 68 151 66 5 -2 11
-8 14 -15z m200 -28 c193 -51 187 -48 190 -72 3 -21 2 -21 -40 -8 -270 83
-356 116 -302 116 9 0 77 -16 152 -36z m-433 -31 c-38 -20 -94 -44 -123 -54
l-53 -18 3 21 c2 17 22 27 108 53 136 43 151 42 65 -2z m771 1 c47 -20 83 -38
82 -39 -4 -4 -158 21 -162 26 -8 9 -17 49 -11 49 4 0 45 -16 91 -36z m-996 12
c0 -35 -20 -51 -141 -112 -127 -63 -130 -64 -155 -47 l-26 17 153 77 c85 43
157 78 162 78 4 1 7 -5 7 -13z m680 -44 l175 -59 8 -52 c5 -29 5 -57 0 -61 -4
-4 -94 -35 -198 -68 l-191 -61 -131 36 -131 36 -21 71 c-15 51 -18 72 -10 75
7 2 73 34 148 72 75 37 145 68 156 68 11 1 99 -25 195 -57z m210 -17 c0 -8 -2
-15 -4 -15 -2 0 -6 7 -10 15 -3 8 -1 15 4 15 6 0 10 -7 10 -15z m-863 -17 c-3
-8 -6 -5 -6 6 -1 11 2 17 5 13 3 -3 4 -12 1 -19z m982 -23 c9 -10 -41 -5 -60
5 -34 19 -20 31 18 15 20 -9 39 -18 42 -20z m113 19 c24 -5 26 -8 18 -25 -10
-18 -12 -18 -62 2 -82 32 -90 41 -33 34 28 -3 62 -8 77 -11z m-1132 -8 c0 -8
-19 -18 -44 -25 -24 -6 -52 -13 -62 -16 -11 -4 6 7 36 24 63 34 70 36 70 17z
m140 0 c0 -2 2 -11 6 -19 3 -10 -4 -16 -23 -20 -15 -3 -36 -9 -45 -12 -14 -5
-18 -2 -18 13 0 13 10 24 28 30 29 11 52 14 52 8z m1194 -176 c80 -90 146
-168 146 -172 0 -4 -8 -12 -18 -17 -16 -8 -38 12 -148 136 -162 184 -158 177
-144 204 7 11 13 19 15 17 1 -1 69 -77 149 -168z m-1307 118 c-3 -7 -5 -2 -5
12 0 14 2 19 5 13 2 -7 2 -19 0 -25z m1253 -168 l148 -167 11 -77 c6 -43 11
-81 11 -86 0 -8 -134 33 -156 48 -5 4 -80 86 -166 183 -142 161 -156 180 -162
224 -4 26 -10 53 -12 60 -4 9 17 8 86 -3 l91 -15 149 -167z m-1280 171 c0 -18
-39 -33 -191 -77 -9 -2 -22 2 -29 11 -15 17 -20 15 112 55 113 35 108 34 108
11z m174 -55 c9 -30 16 -56 16 -59 0 -3 -32 5 -70 16 -65 19 -71 22 -68 45 2
19 12 29 38 38 61 22 67 19 84 -40z m-493 13 c9 -18 -2 -41 -95 -180 -102
-153 -107 -158 -130 -148 -24 11 -24 12 87 180 62 93 115 169 119 169 4 0 12
-9 19 -21z m346 -21 c-3 -7 -5 -2 -5 12 0 14 2 19 5 13 2 -7 2 -19 0 -25z
m-83 -61 c-32 -29 -97 -87 -144 -129 -47 -42 -86 -75 -87 -74 -4 3 78 210 86
218 4 5 49 21 101 36 118 35 128 23 44 -51z m-285 -113 c-33 -87 -64 -163 -69
-168 -9 -9 -80 11 -80 22 0 10 203 313 207 309 2 -2 -24 -75 -58 -163z m106
136 c9 -14 -85 -252 -111 -279 -13 -14 -25 -23 -28 -20 -3 3 75 220 104 287
10 23 25 29 35 12z m1124 -14 c-2 -2 -91 -31 -198 -65 -170 -55 -219 -66 -198
-45 14 14 392 131 396 122 1 -5 1 -11 0 -12z m70 -36 c0 -23 -1 -23 -9 -5 -5
11 -9 31 -9 45 0 23 1 23 9 5 5 -11 9 -31 9 -45z m-939 25 c0 -18 -307 -295
-327 -295 -34 0 1 42 150 177 146 133 177 154 177 118z m185 -33 c4 -10 0 -12
-11 -8 -8 3 -44 14 -80 23 -35 9 -64 22 -64 29 0 16 148 -27 155 -44z m715 -1
c5 -11 10 -24 10 -29 0 -5 -66 -37 -147 -72 l-148 -62 -67 21 c-38 12 -68 26
-68 30 0 8 363 128 392 130 10 1 22 -8 28 -18z m223 -157 c107 -120 131 -154
109 -154 -14 0 -257 283 -264 308 l-7 26 23 -25 c12 -13 75 -83 139 -155z
m-1015 144 c43 -12 80 -24 85 -28 6 -5 -112 -117 -266 -250 l-38 -33 -85 24
c-47 13 -84 28 -82 34 4 13 291 274 301 275 5 0 43 -10 85 -22z m233 -20 c60
-17 109 -35 109 -40 0 -4 -3 -8 -8 -8 -19 0 -217 61 -226 70 -16 16 7 12 125
-22z m714 -143 c49 -55 102 -115 119 -132 16 -18 26 -33 20 -33 -10 0 -237
255 -243 273 -5 15 -3 13 104 -108z m-845 96 c0 -13 -279 -261 -293 -261 -6 0
16 24 48 53 33 28 100 89 150 134 49 45 91 82 93 83 1 0 2 -4 2 -9z m125 -21
c28 -10 43 -18 35 -18 -8 0 -37 8 -65 18 -27 10 -43 18 -35 18 8 0 38 -8 65
-18z m743 -153 l103 -115 -78 -146 c-43 -80 -84 -146 -91 -146 -13 0 -302 87
-307 92 -5 5 -65 324 -65 344 0 16 30 33 143 81 l142 61 25 -28 c14 -15 71
-79 128 -143z m-621 79 c3 -2 53 -358 53 -377 0 -10 -53 -65 -129 -133 l-129
-115 -108 30 c-60 17 -114 36 -120 42 -10 10 -84 327 -84 357 0 5 65 67 144
139 l145 129 113 -35 c62 -19 114 -36 115 -37z m-22 44 c13 -5 14 -9 5 -9 -8
0 -24 4 -35 9 -13 5 -14 9 -5 9 8 0 24 -4 35 -9z m1060 -238 c-12 -12 -25 18
-42 100 -17 86 -17 88 2 102 19 14 20 11 33 -91 7 -58 10 -108 7 -111z m-903
149 c11 -10 76 -361 68 -366 -4 -2 -32 3 -62 11 l-54 16 -23 161 c-13 89 -26
174 -28 189 l-5 28 48 -17 c27 -8 52 -19 56 -22z m-1152 -34 c-1 -7 -27 -82
-58 -167 -55 -147 -59 -155 -86 -158 -24 -3 -28 -1 -21 15 4 10 29 81 57 158
28 77 54 150 59 163 7 19 12 21 29 12 11 -6 20 -16 20 -23z m81 -20 l26 -12
-100 -150 c-54 -82 -97 -143 -94 -135 2 8 29 81 58 162 57 155 60 158 110 135z
m-16 -183 c-63 -96 -92 -134 -106 -134 -25 0 -23 5 90 173 66 100 87 124 94
112 6 -12 -14 -50 -78 -151z m285 122 l95 -27 42 -191 41 -191 -26 -41 c-14
-23 -27 -42 -27 -43 -1 -2 -46 12 -101 30 l-99 33 -22 194 c-26 233 -28 274
-10 267 6 -2 55 -17 107 -31z m-125 -197 c14 -118 25 -217 25 -221 0 -7 -30
-12 -30 -5 -42 368 -47 423 -37 435 5 7 12 11 14 8 2 -2 15 -100 28 -217z
m1695 181 c72 -26 76 -28 68 -35 -9 -10 -169 46 -162 56 3 6 11 8 18 6 6 -2
40 -15 76 -27z m167 -22 c-3 -7 -5 -2 -5 12 0 14 2 19 5 13 2 -7 2 -19 0 -25z
m-150 -35 c-6 -5 -100 18 -111 28 -4 4 19 0 53 -8 34 -9 60 -17 58 -20z
m-1763 -163 c9 -91 17 -176 18 -190 1 -14 -18 -73 -42 -133 -34 -83 -47 -104
-56 -95 -10 11 -94 347 -94 377 0 6 32 61 72 122 47 73 74 106 78 97 4 -7 15
-87 24 -178z m1743 138 c67 -17 84 -25 88 -42 12 -49 65 -352 65 -370 0 -23
-158 -306 -174 -312 -6 -2 -49 11 -96 29 l-84 33 -34 200 -33 200 77 148 c58
110 81 145 92 141 9 -3 53 -15 99 -27z m197 -73 c4 -45 3 -51 -3 -25 -16 63
-22 116 -12 100 5 -8 12 -42 15 -75z m-20 -77 c15 -79 32 -169 38 -201 10 -56
6 -80 -11 -61 -4 5 -20 88 -35 184 -15 96 -29 185 -31 198 -3 12 -1 22 4 22 5
0 21 -64 35 -142z m33 -20 c-3 -7 -5 -2 -5 12 0 14 2 19 5 13 2 -7 2 -19 0
-25z m-974 -5 c15 -3 27 -8 26 -12 -1 -13 -231 -206 -248 -209 -10 -2 -33 3
-51 10 l-32 13 123 108 c82 72 128 106 139 102 8 -4 27 -9 43 -12z m-1272 -35
c0 -18 8 -113 18 -210 14 -150 15 -178 3 -183 -36 -13 -38 -6 -55 188 -22 247
-23 237 8 237 21 0 25 -5 26 -32z m84 -191 c25 -103 45 -197 45 -208 0 -23
-18 -24 -47 -1 -21 15 -24 35 -43 221 -11 112 -20 206 -19 210 2 21 25 -58 64
-222z m52 48 c48 -195 50 -218 26 -213 -13 2 -27 43 -59 178 -49 201 -51 213
-27 208 14 -2 27 -41 60 -173z m1364 109 c85 -25 159 -51 165 -57 7 -7 24 -82
39 -167 14 -85 29 -167 32 -181 4 -22 -9 -38 -114 -129 -65 -57 -125 -110
-134 -117 -14 -12 -41 -5 -189 46 -95 33 -174 62 -175 63 -4 5 -45 314 -45
340 0 20 27 49 126 137 69 61 129 111 133 111 4 0 77 -21 162 -46z m756 14
c-3 -7 -5 -2 -5 12 0 14 2 19 5 13 2 -7 2 -19 0 -25z m-510 -80 c-3 -7 -5 -2
-5 12 0 14 2 19 5 13 2 -7 2 -19 0 -25z m-7 -146 c12 -79 20 -145 18 -148 -3
-2 -15 56 -27 129 -13 72 -25 143 -28 157 -4 17 -2 22 4 15 6 -5 21 -74 33
-153z m-985 109 c33 -10 80 -24 103 -31 43 -11 44 -12 25 -32 -10 -11 -30 -29
-46 -40 l-27 -20 -83 28 c-45 15 -83 28 -85 29 -5 4 42 85 48 85 3 0 32 -9 65
-19z m1002 -13 c-3 -8 -6 -5 -6 6 -1 11 2 17 5 13 3 -3 4 -12 1 -19z m-1403
-7 c9 -15 -71 -196 -88 -199 -14 -3 -13 4 5 50 12 29 30 77 41 106 20 50 31
62 42 43z m117 -36 c41 -14 80 -27 87 -30 8 -3 -4 -31 -39 -87 -28 -46 -52
-84 -53 -85 -3 -3 -158 26 -162 30 -1 1 12 38 30 82 18 44 35 88 39 98 8 22 9
22 98 -8z m598 -189 c12 -88 24 -170 26 -181 4 -17 -9 -25 -89 -56 l-93 -35
-37 170 c-20 94 -36 178 -36 187 0 9 22 37 49 62 l48 45 55 -15 55 -16 22
-161z m698 172 c-3 -8 -6 -5 -6 6 -1 11 2 17 5 13 3 -3 4 -12 1 -19z m-981
-91 c2 -1 19 -79 39 -172 20 -94 38 -177 41 -186 3 -11 -10 -20 -43 -32 -27
-9 -51 -17 -54 -17 -8 0 -259 286 -259 294 0 3 23 44 52 90 l51 84 85 -29 c47
-16 86 -30 88 -32z m1461 51 c-9 -23 -87 -153 -87 -146 0 16 75 158 83 158 5
0 7 -6 4 -12z m-470 -20 c-3 -8 -6 -5 -6 6 -1 11 2 17 5 13 3 -3 4 -12 1 -19z
m449 -100 c-94 -200 -120 -248 -133 -248 -7 0 -13 6 -13 13 0 13 189 347 196
347 2 0 -21 -51 -50 -112z m-111 -58 c-30 -60 -60 -110 -66 -110 -5 0 -8 3 -6
8 53 96 120 212 123 212 2 0 -21 -49 -51 -110z m-1935 4 c0 -31 -23 -28 -28 4
-2 15 2 22 12 22 11 0 16 -9 16 -26z m-122 -10 l12 -25 -30 17 c-21 13 -26 20
-17 26 19 12 23 10 35 -18z m189 -6 c-12 -31 -37 -50 -37 -29 0 24 21 61 35
61 13 0 13 -4 2 -32z m1520 0 c-3 -7 -5 -2 -5 12 0 14 2 19 5 13 2 -7 2 -19 0
-25z m-1372 1 l60 -11 138 -160 c83 -95 137 -165 135 -175 -2 -12 -28 -25 -78
-40 -41 -13 -80 -23 -87 -23 -11 0 -304 329 -311 349 -2 5 4 26 12 46 14 32
19 36 43 31 16 -3 55 -10 88 -17z m-275 -29 c0 -28 -7 -25 -25 11 -16 30 -16
30 4 19 12 -6 21 -20 21 -30z m504 -114 c69 -79 126 -147 126 -150 0 -20 -31
10 -144 139 -69 79 -126 147 -126 150 0 20 35 -13 144 -139z m-568 103 c42
-25 54 -47 54 -93 0 -60 -18 -50 -60 34 -22 44 -37 80 -34 80 4 0 22 -9 40
-21z m112 -13 c3 -12 -1 -17 -10 -14 -7 3 -15 13 -16 22 -3 12 1 17 10 14 7
-3 15 -13 16 -22z m1617 15 c3 -5 1 -12 -5 -16 -5 -3 -10 1 -10 9 0 18 6 21
15 7z m122 -32 c87 -34 102 -44 87 -59 -7 -7 -37 -5 -91 6 -77 16 -81 18 -85
45 -4 26 -1 39 8 39 2 0 38 -14 81 -31z m-157 2 c0 -10 -233 -214 -251 -220
-28 -9 4 25 116 123 117 103 135 116 135 97z m44 -16 c3 -8 1 -15 -4 -15 -6 0
-10 7 -10 15 0 8 2 15 4 15 2 0 6 -7 10 -15z m-1411 -167 c80 -91 147 -170
150 -175 3 -4 -1 -16 -8 -26 -11 -16 -29 1 -175 169 -120 139 -158 189 -148
195 7 5 18 8 25 6 6 -1 76 -77 156 -169z m-213 118 c-1 -21 -1 -21 -15 -2 -21
27 -20 53 0 36 8 -7 15 -22 15 -34z m1870 -1 c0 -8 -7 -15 -15 -15 -9 0 -12 6
-9 15 4 8 10 15 15 15 5 0 9 -7 9 -15z m-247 -1 c3 -4 -58 -62 -136 -130 -119
-104 -143 -120 -145 -103 -2 11 -2 22 0 23 2 1 58 51 126 109 114 100 139 116
155 101z m-1441 -184 c74 -86 143 -168 153 -183 17 -26 17 -27 -2 -27 -27 0
-35 8 -187 184 -88 101 -135 163 -132 173 3 8 6 20 6 26 0 14 -2 16 162 -173z
m-210 118 c-16 -16 -21 -8 -15 27 6 29 6 29 16 7 7 -16 7 -26 -1 -34z m1763
31 l62 -12 -60 -126 c-32 -69 -64 -129 -69 -132 -20 -13 -300 -90 -306 -84 -3
3 -7 29 -9 58 l-4 52 147 128 c81 70 154 127 162 127 8 0 43 -5 77 -11z m-615
-82 c200 -72 208 -79 139 -136 l-41 -34 -196 53 c-109 29 -212 57 -229 62 -60
16 -43 41 55 80 48 20 89 36 92 36 3 1 84 -27 180 -61z m720 58 c0 -8 -142
-255 -146 -255 -2 0 25 58 61 130 36 72 70 130 75 130 6 0 10 -2 10 -5z
m-1692 -190 c110 -127 128 -152 118 -167 -6 -10 -14 -17 -18 -16 -4 2 -70 76
-148 166 -131 152 -140 165 -123 177 22 17 6 31 171 -160z m1752 138 c-12 -21
-52 -89 -88 -151 -36 -62 -67 -111 -69 -108 -2 2 29 69 69 150 55 110 77 146
91 146 18 0 18 -2 -3 -37z m-1193 -56 c-6 -15 -94 -44 -104 -33 -6 6 99 57
106 50 2 -2 1 -9 -2 -17z m1061 -91 c-23 -47 -46 -82 -50 -80 -5 3 0 20 10 37
11 18 32 53 47 80 42 74 39 55 -7 -37z m-1054 45 c-7 -7 -100 -41 -111 -41 -2
0 -3 4 -3 9 0 5 26 18 58 29 56 19 75 20 56 3z m275 -37 c113 -30 213 -62 221
-70 22 -22 4 -19 -184 32 -260 70 -277 75 -271 85 9 14 12 13 234 -47z m4 -55
l237 -64 10 -34 c5 -19 8 -36 7 -37 -12 -10 -276 -117 -287 -116 -8 1 -91 30
-185 66 l-170 64 0 73 0 73 65 23 c36 12 70 21 75 19 6 -1 117 -32 248 -67z
m-433 43 c0 -8 -126 -52 -150 -52 -25 0 1 15 63 37 68 24 87 27 87 15z m750
-4 c0 -14 -50 -68 -62 -68 -19 0 -6 40 20 59 31 24 42 26 42 9z m-750 -88 c0
-56 -1 -60 -24 -60 -56 0 -87 13 -102 42 -9 17 -14 31 -12 33 4 3 121 43 131
44 4 1 7 -26 7 -59z m759 -37 c1 -14 -7 -24 -20 -28 -42 -14 -53 44 -16 83
l22 24 6 -29 c4 -15 7 -38 8 -50z m351 43 c0 -15 -91 -51 -215 -86 -86 -24
-97 -25 -93 -2 2 13 38 27 143 59 160 47 165 48 165 29z m-1261 -32 c10 -24
10 -25 -11 -18 -38 11 -52 44 -20 44 11 0 24 -12 31 -26z m1290 -28 c9 -11
-25 -29 -181 -98 -198 -87 -204 -88 -207 -42 -1 16 319 151 365 153 6 1 17 -5
23 -13z m-1369 -26 l25 -20 -32 0 c-33 0 -49 12 -38 30 9 14 16 12 45 -10z
m110 -10 c9 -17 8 -20 -9 -20 -11 0 -25 9 -31 20 -9 17 -8 20 9 20 11 0 25 -9
31 -20z m110 -11 c0 -27 -65 -27 -80 0 -14 27 -15 27 35 23 36 -3 45 -8 45
-23z m784 4 c7 -16 -8 -33 -30 -33 -20 0 -24 29 -6 39 24 14 29 13 36 -6z
m-564 -60 c80 -30 153 -58 163 -62 15 -6 15 -9 5 -24 -12 -16 -22 -14 -133 29
-66 25 -143 54 -171 65 -43 16 -51 23 -47 40 4 14 11 18 22 14 9 -4 81 -32
161 -62z m492 30 c3 -14 -15 -26 -72 -51 -142 -64 -216 -85 -208 -60 4 10 248
125 270 127 3 1 8 -7 10 -16z m-894 1 c13 -4 31 -23 43 -46 l20 -40 -63 43
c-35 23 -65 44 -67 46 -7 5 42 3 67 -3z m300 -59 c56 -21 100 -40 98 -42 -8
-9 -251 60 -266 74 -25 26 53 11 168 -32z m-198 0 c0 -25 -17 -25 -29 1 -15
34 -14 36 9 24 11 -6 20 -17 20 -25z m179 -39 c213 -55 251 -65 260 -70 13 -8
1 -46 -14 -46 -7 0 -91 20 -186 45 -96 25 -186 48 -201 52 -29 6 -32 11 -22
37 8 21 7 21 163 -18z m643 1 c4 -22 -3 -25 -156 -67 -89 -24 -167 -45 -175
-48 -11 -4 -11 -1 -1 17 14 27 51 44 190 87 128 40 136 40 142 11z"/>
</g>
</svg>
