<?xml version="1.0" encoding="UTF-8" standalone="no"?>
<svg
   xmlns:xhtml="http://www.w3.org/1999/xhtml"
   xmlns:dc="http://purl.org/dc/elements/1.1/"
   xmlns:cc="http://creativecommons.org/ns#"
   xmlns:rdf="http://www.w3.org/1999/02/22-rdf-syntax-ns#"
   xmlns:svg="http://www.w3.org/2000/svg"
   xmlns="http://www.w3.org/2000/svg"
   xmlns:sodipodi="http://sodipodi.sourceforge.net/DTD/sodipodi-0.dtd"
   xmlns:inkscape="http://www.inkscape.org/namespaces/inkscape"
   version="1.0"
   viewBox="0 0 1476.000000 761.000000"
   preserveAspectRatio="xMidYMid meet"
   id="svg3098"
   inkscape:version="0.48.1 r9760"
   width="100%"
   height="100%"
   sodipodi:docname="TESS.svg">
  <defs
     id="defs3108" />
  <sodipodi:namedview
     pagecolor="#ffffff"
     bordercolor="#666666"
     borderopacity="1"
     objecttolerance="10"
     gridtolerance="10"
     guidetolerance="10"
     inkscape:pageopacity="0"
     inkscape:pageshadow="2"
     inkscape:window-width="1241"
     inkscape:window-height="702"
     id="namedview3106"
     showgrid="false"
     inkscape:zoom="0.46373941"
     inkscape:cx="780.65076"
     inkscape:cy="267.74947"
     inkscape:window-x="95"
     inkscape:window-y="10"
     inkscape:window-maximized="0"
     inkscape:current-layer="svg3098" />
  <metadata
     id="metadata3100">
Created by potrace 1.10, written by Peter Selinger 2001-2011
<rdf:RDF>
  <cc:Work
     rdf:about="">
    <dc:format>image/svg+xml</dc:format>
    <dc:type
       rdf:resource="http://purl.org/dc/dcmitype/StillImage" />
    <dc:title></dc:title>
  </cc:Work>
</rdf:RDF>
</metadata>
  <xhtml:link
     href="/styles/svg-content.css"
     rel="stylesheet"
     type="text/css" />
  <g
     transform="matrix(0.1,0,0,-0.1,178.97983,689.83935)"
     id="g3102"
     style="fill:#000000;stroke:none">
    <path
       d="m 10430.345,6543.7298 c -281,-104 -520.9997,-188 -533.9997,-188 -14,0 -32,-7 -40,-15 -9,-8 -118,-51 -242,-97 -123.999,-46 -226.999,-86 -229.999,-90 -2,-3 31,-29 74,-57 67,-44 77,-54 77,-80 0,-16 -4,-32 -9,-35 -4,-3 -39,-3 -76,1 -58,5 -77,13 -143,56 -42,27 -81,51 -87,54 -7,2 -167,-53 -356,-122 -189,-70 -364,-133 -389,-142 -25,-8 -58,-20 -75,-28 -16,-7 -57,-23 -90,-34 -33,-12 -96,-34 -140,-49 -44,-16 -116,-41 -160,-57 -44,-15 -84,-32 -89,-36 -6,-5 -16,-9 -24,-9 -8,0 -28,-6 -45,-14 -18,-8 -80,-31 -140,-52 l -107,-37 25,-33 c 29,-37 31,-54 11,-97 -8,-18 -16,-40 -20,-49 -3,-11 -16.399,-11.6752 -30,-18 -25.032,-5.5814 -49.779,-20.2931 -71,-24 -19,-4 -35,-11 -35,-16 0,-6 31,-52 69,-103 45,-61 110,-129 186,-196 99,-88 116,-107 113,-129 -2,-21 -13,-30 -53,-46 -27,-10 -64,-25 -82,-32 -17,-8 -38,-14 -46,-14 -8,0 -26,-9 -40,-20 -14,-11 -40,-20 -58,-20 -29,0 -49,16 -171,139 -76,77 -144,144 -152,148 -8,4 -67,58 -132,118 -65,61 -150,139 -189,174 -38,36 -95,89 -125,117 -30,29 -98,91 -150,139 -85,78 -96,91 -106,136 -8,35 -24,62 -55,96 -74,81 -168,158 -202,166 -18,4 -394,74 -837.0003,155 l -805,148 -105,-37 c -206,-73 -182,-56 -370,-261 -94,-104 -178,-188 -185,-188 -8,0 -15,-9 -15,-20 0,-13 -46,-66 -123,-143 -68,-67 -148,-151 -177,-187 -99,-122 -263,-300 -277,-300 -7,0 -13,-6 -13,-13 0,-8 -65,-85 -144,-172 l -144,-159 -20,-85 c -11,-47 -26,-113 -32,-146 l -12,-60 216,-625 c 119,-344 215,-634 214,-645 -61.7422,-44.7801 -31.2496,-30.6107 -106.8966,-73.4009 -114.6087,-29.0552 -198.0079,-89.2375 -285.1034,-131.5991 -7,0 -80,-25 -162,-55 -82,-31 -157,-54 -168,-53 -14,2 -38,51 -101,203 -76,185 -127,307 -130,312 -1,2 -43,-11 -94,-27 -50,-17 -97,-30 -102,-30 -6,0 -24,-9 -40,-21 -51,-36 -69,-24 -106,70 -18,46 -34,85 -36,87 -5,5 -97,-24 -142,-45 -22,-10 -65,-26 -95,-36 -30,-10 -73,-27 -96,-37 -22,-10 -50,-18 -62,-18 -11,0 -23,-4 -26,-9 -323.0981,-154.6595 -741.00129,-277.5456 -958.99999,-356 -177,-65 -331.0001,-121 -342.0001,-126 -11,-5 -33,-13 -49,-19 -17,-6 -26,-15 -23,-24 3,-7 -18.6503,-86.998 -11.6503,-139.998 0.6577,-129.3164 1.1378,-70.2831 -4.1958,-132.438 -56.7438,-13.7521 -67.1539,-22.564 -87.1539,1.436 -33.9283,27.4876 -48.8715,110.0622 -49.4966,135.3344 -5.6066,90.2895 -6.1144,97.1862 -51.5034,74.6656 -4,-3 -57.000004,-23 -116.000004,-44 -59,-21 -177.999996,-65 -262.999996,-96 -85,-32 -170.9999,-62 -189.9999,-67 -19,-6 -39,-13 -45,-18 -5,-4 -23,-10 -40,-14 -16,-4 -43,-14 -60.0001,-21 -16,-8 -59,-24 -95,-36 -36,-12 -78,-27 -95,-34 -16,-7 -230,-86 -475.00001,-175 -244.9999,-90 -450.9999,-165 -457.9999,-167 -8,-4 -12,-29 -12,-78 0,-41 -4,-77 -10,-80 -5,-3 -9,-73 -8,-172 2,-127 -1,-168 -10,-171 -10,-3 -10,-7 -2,-17 8,-9 9,-40 5,-92 -3,-43 -6,-129 -5,-191 1,-73 -3,-118 -10,-127 -7,-9 -11,-58 -11,-137 1,-68.00004 1,-182.00019 2,-254.00019 0,-91 -3,-134 -11,-139 -9,-5 -10,-38 -5,-121 5,-80 4,-118 -4,-128 -7,-9 -10,-64 -8,-167 l 3,-153.999999 24,3 c 14,2 30,7 35,12 6,4 21,11 35,15 29,8 250.9999,90.999999 294.9999,109.999999 17,7 434.00001,167 928.00011,355 827.9999,317.00005 896.9999,345.00015 896.9999,366.00015 0,13 -4,26 -10,29 -5,3 -10,29 -10,56.00004 0,28 -5,81 -11,119 -14,84 -6,100 52,100 59.8015,-4.3534 140.5676,27.4067 147.0001,-22 5,-7 15,-54 22,-104 7,-51 16,-97 20,-104.00004 5,-8 57,8.00004 176,53.00004 93,36 180,68 193.99999,72 14,4 48,18 77,31 28,13 57,24 63,24 7,0 28,7 48,16 89,40 101,44 114,44 8,0 18,4 24,9 5,4 32,16 59,26 59,20 77,27 127,49 20,9 43,16 51,16 9,0 19,5 22,10 3,6 13,10 22,10 8,0 31,7 51,16 21,9 46,20 57,25 11,5 38,15 60,23 41,14 165,61 200,76 11,5 47,18 80,31 33,12 84,33 113,45 29,13 61,24 70,24 10,0 22,4 28,9 13,13 295,121 316,121 9,0 19,4 22,9 3,4 34,19 68,31 35,13 67,26 71,30 7,6 -26,112 -59,187 -25,57 -19,79 29,102 93.534,11.6438 210.351,97.7843 261,101 18,0 25,7 29,28 -3.7918,186.2713 -177.0423,332.6249 -191,483 2,12 10,25 18,30 39,20 89,39 103,39 8,0 20,6 26,14 6,8 26,16 44,19 35,5 112,31 139,47 10,6 23,10 29,10 6,0 27,7 47,16 21,9 52,22 70,30 18,8 38,14 45,14 7,0 26,7 42,16 17,9 50,17 74,17 42,2 46,0 66,-35 13,-24 25,-34 31,-28 5,5 29,12 54,15 100.3647,16.3943 55.9691,12.3335 89,19.47 32.3821,-4.4367 11.3581,-49.5472 61,-114.47 17,-21 30,-43 30,-49 0,-10 29,-69 59,-121 46,-80 151,-313 153,-340 3,-30 0,-35 -21,-38 -16,-3 -30,3 -40,16 -44,55 -240,85 -284,44 -12,-11 -31,-22 -41,-24 -54,-9 -84,-143 -56,-245 38,-138 198,-311 435,-471 61,-42 412,-222 432,-222 7,0 42,-13 77,-29 46,-21 65,-35 69,-52 3,-13 13,-103 22,-199 14,-161.00004 20,-190.00004 71,-355.00019 51,-164 64,-194 147,-339 81,-140 106,-174 213,-288.999999 127,-136 226,-221.000001 322,-277.000001 31,-18 69,-41 84,-51 15,-11 32,-19 39,-19 6,0 28,-8 48,-19 40.0003,-21 58.0003,-28 151.0003,-66 128,-53 196,-74 237,-75 23,0 44,-4 48,-9 3,-5 31,-12 63,-16 31,-4 70,-11 86,-18 17,-6 59,-10 94,-9 38,2 70,-2 78,-9 20,-16 406,-8 427,9 8,7 30,13 48,12 67,0 222,19 232,29 6,6 20,11 32,11 11,0 75,16 140,35 66,20 140,41 165,46 25,6 81,28 125,49 44,20 105,47 135,60 143,58 173,74 385,205.000001 488,299.999999 886,728.999999 1130,1215.000189 51,102 100,212 110,245 9,33 22,74 29,90 39,93 70,220 92,375 14,96 29,183 35,192 12,24 12,125 -1,133 -6,3 -10,50 -10,104 0,108 -17,261 -31,276 -5,5 -9,22 -9,37 0,16 -4,36 -9,46 -6,9 -17,51 -27,92 -11,49 -45,130 -97,235 -74,148 -103,196 -157,251 -11,12 -20,31 -20,43 0,11 -6,21 -14,21 -7,0 -31,19 -52,43 -22,24 -53,59 -70,78 -17,18 -51,49 -75,67 -129,96 -149,114 -149,132 0,15 -7,20 -28,20 -15,0 -32,4 -38,9 -5,6 -92,49 -194,96 -145,68 -232,100 -405,152 -121,36 -224,70 -230,75 -5,5 -17,46 -26,91 -9,45 -31,150 -48,232 -34,165 -37,207 -18,223 21,18 357,142 384,142 18,0 69,-39 181,-137 225,-199 228,-201 286,-219 52,-16 54,-16 74,4 80.771,47.2467 143.119,88.4007 157.188,100.718 25.345,15.7245 52.278,19.0601 79.812,11.282 6.369,-3.6523 21.695,-3.2613 35,-10 23.195,-11.748 56,-20 127,-85 13,-11 36,-31 53,-45 17,-14 45,-37 61,-52 17,-16 33,-28 37,-28 7,0 933.9987,352 986.9987,375 17,7 59,23 95,35 36,12 79,28 95,35 17,7 68,27 115,45 175,65 196,73 225,85 17,7 46,18 65,25 19,7 49,19 65,25 17,7 72,28 122,46 51,19 93,37 93,41 0,9 -115,88 -128,88 -17,0 -52,46 -52,68 0,13 7,34 16,47 23,36 73,33 129,-5 24,-16 45,-30 48,-30 2,0 40,-24 85,-54 l 82,-54 73,29 c 39,15 84,28 100,29 15,0 27,5 27,10 0,11 6,14 105,51 33,12 74,28 90,34 17,7 58,23 93,35 34,13 65,27 68,31 3,5 13,9 22,9 18,0 170,57 187,70 6,4 24,10 40,14 29,7 82,28 117,47 10,5 23,9 31,9 7,0 28,9 48,19 20,11 58,26 85,34 27,8 63,22 79,31 17,9 38,16 47,16 9,0 19,4 22,9 3,4 19,11 36,14 17,4 54,18 84,32 29,14 59,25 67,25 8,0 37,12 64,25 28,14 55,25 62,25 7,0 36,11 65,24 29,13 76,32 105,41 114,37 169,3 -729,452 -449,224 -906,453 -1016,508 l -198,100 z m -714.9997,-659 c 71,-47 150,-97 254,-162 44.9997,-28 171.9997,-108 185.9997,-117 82,-54 123,-80 127,-80 2,0 19,-11 37,-25 18,-14 36,-25 40,-25 7,0 67,-40 76,-51 3,-4 14,-9 26,-13 11,-3 29,-14 40,-24 11,-9 35,-26 54,-36 80,-44 128,-86 123,-106 -3,-11 -12,-20 -20,-20 -11,0 -479,296 -783.9997,496 -37,24 -72,44 -78,44 -6,0 -11,4 -11,8 0,5 -12,15 -27,23 -16,8 -30,16 -33,19 -11,12 -90,60 -98,60 -10,0 -33,61 -26,72 3,4 11,5 18,1 6,-5 50,-33 96,-64 z m -1439.999,-995 c 234,-195 426,-359 428,-364 2,-5 -6,-13 -17,-19 -83.258,-18.8084 -137.015,71.0952 -217,133 -6,0 -69,50 -140,111 -71,60 -147,124 -169,141 -22,17 -56,46 -76,65 -19,19 -99,88 -177,153 -77,66 -139,122 -137,125 2,3 21,7 42,8 36,2 56,-13 463,-353 z m -5910.0003,-1624 c 19,0 21,-4 16,-25 15.462,-69.4005 62.6852,-108.5779 89,-180 41.1015,-80.1321 56.0928,-163.831 97,-239 13.6286,-35.6721 23.0463,-73.8182 39,-106 11,-22 22,-46 23,-54 3.6751,-16.366 13.5698,-28.5889 16,-44 0,-14 5,-25 49,-124 11,-26 21,-52 21,-56 0,-5 7,-23 16,-40 8,-18 19,-45 24,-62 8,-29 5.078,-15.7927 -28,-30 -22.188,-9.53 -38.282,-17.53 -61,-25 -13,-14 -27.906,-2.1281 -30,-13.564 -0.9006,-4.9183 -33,58.564 -65,144.564 -42.0545,198.9893 -128.0989,349.3562 -191,520 -107,289 -110,301 -91,310 75.0727,29.7285 73.0105,24.16 76,24 z m -2000.00009,-870 c 7,-55 16,-103 21,-106 5,-3 7,-9 4,-13 -4,-8 51,-384 61,-411 4,-8 8,-37 10,-64 3,-27 9,-55 14,-61 5,-7 7,-15 4,-18 -7,-7 14,-145 26,-172 5,-11 11,-42 12,-70 3,-47 1,-51 -27,-65 -127.6266,12.0768 49.3428,-9.7894 -108,13 -9,62 -39,270 -67,462 -29,193 -57,386 -63,430 l -12,80 50,10 c 61.7075,-3.5031 -44.4745,18.6474 75,-15 z"
       id="path3104"
       inkscape:connector-curvature="0"
       sodipodi:nodetypes="cscsccscccccccccccsccccccccscccccssscscccccccccccssccssccccccccccccccsccscscsccscccccccscccccscccsccccccsccccccccccccscsccccccscscscccscscsccccscscccccccccssccscsscccscccsccccccccsccccccccsccccccccccsscccccccccccscsccccsscccssccccsccscccccscscscscccsccsssccsccccsccccscccscscscccscssccccccccssscccccscssccsccccscccsccsccccccccccsccscscccccsccccsccccccccc" />
  </g>
</svg>
